{"glyphs":{"0":{"ha":658,"x_min":56,"x_max":729,"o":"m 729 683 q 717 529 729 608 q 678 374 704 450 q 616 231 653 299 q 531 112 579 163 q 423 31 482 61 q 294 1 364 1 q 185 25 231 1 q 112 90 140 49 q 69 185 83 131 q 56 304 56 240 q 72 461 56 378 q 120 624 89 544 q 196 775 151 703 q 292 901 240 847 q 404 988 344 956 q 528 1021 464 1021 q 617 994 579 1021 q 681 922 656 968 q 717 815 706 876 q 729 683 729 753 m 264 350 q 281 267 264 299 q 336 235 297 235 q 431 269 388 235 q 504 356 474 304 q 551 470 535 408 q 568 588 568 532 q 545 689 568 647 q 472 731 522 731 q 394 692 432 731 q 328 597 357 654 q 282 472 300 539 q 264 350 264 406 z "},"1":{"ha":444,"x_min":101,"x_max":554,"o":"m 218 24 q 126 6 174 14 q 181 256 154 131 q 203 367 192 308 q 227 485 215 426 q 250 603 239 544 q 269 713 261 661 q 204 704 236 710 q 149 695 178 700 q 101 688 121 690 q 110 747 104 707 q 122 828 115 786 q 136 931 128 875 q 225 949 168 938 q 354 969 274 957 q 554 1001 435 982 q 501 764 525 879 q 455 533 476 649 q 413 301 433 418 q 374 60 393 183 q 300 40 342 50 q 218 24 258 31 z "},"2":{"ha":649,"x_min":1,"x_max":747,"o":"m 236 29 q 1 13 124 21 l 25 188 q 67 277 29 231 q 158 372 106 324 q 272 465 211 419 q 383 551 332 510 q 469 628 435 593 q 503 690 503 664 q 487 755 503 732 q 447 778 471 778 q 406 767 424 778 q 380 740 389 757 q 367 704 371 724 q 363 665 363 685 l 363 651 q 364 646 363 647 q 286 639 326 643 q 209 631 251 636 q 125 622 167 626 q 123 645 124 633 q 122 667 122 657 q 154 813 122 749 q 237 922 186 878 q 352 989 288 965 q 481 1013 417 1013 q 581 996 533 1013 q 666 945 629 979 q 725 859 703 911 q 747 735 747 807 q 711 599 747 665 q 611 470 675 533 q 460 347 547 407 q 269 233 372 288 q 366 236 307 233 q 487 244 425 239 q 621 254 549 249 l 599 53 q 523 47 565 50 q 433 42 481 44 q 334 35 385 39 q 236 29 283 32 z "},"3":{"ha":636,"x_min":14,"x_max":719,"o":"m 667 356 q 632 225 667 292 q 538 105 597 158 q 402 17 479 51 q 243 -17 325 -17 q 154 -6 196 -17 q 81 28 113 6 q 32 87 50 51 q 14 171 14 122 q 26 242 14 203 l 269 256 q 283 215 269 228 q 318 203 297 203 q 357 212 336 203 q 397 236 378 221 q 427 271 415 251 q 439 314 439 290 q 407 375 439 347 q 301 403 375 403 q 194 395 247 403 q 106 385 142 388 l 131 590 q 217 647 172 617 q 297 704 261 676 q 379 767 340 735 l 156 763 l 172 1001 q 407 1013 299 1007 q 501 1015 453 1013 q 590 1019 549 1017 q 666 1022 632 1021 q 719 1022 700 1022 l 686 726 l 408 581 q 527 546 478 568 q 608 494 576 524 q 653 428 639 464 q 667 356 667 393 z "},"4":{"ha":638,"x_min":31,"x_max":699,"o":"m 303 -3 l 331 219 l 92 201 l 31 326 q 118 589 76 464 q 154 698 136 642 q 190 807 172 754 q 222 907 207 860 q 250 989 238 954 q 360 992 308 989 q 472 1004 413 996 q 377 744 421 875 q 292 479 333 614 q 289 463 290 469 q 285 446 288 456 l 383 446 q 389 477 385 456 q 399 528 393 499 q 410 592 404 557 q 424 663 417 626 q 457 839 438 743 q 547 851 501 846 q 625 861 585 857 q 694 868 665 865 q 687 821 693 854 q 673 746 681 788 q 658 657 665 704 q 642 568 650 610 q 628 493 633 526 q 619 446 622 460 l 699 446 l 642 224 l 571 224 l 558 42 l 303 -3 z "},"5":{"ha":625,"x_min":61,"x_max":717,"o":"m 681 438 q 664 338 681 389 q 619 237 647 286 q 551 143 590 188 q 469 65 513 99 q 378 13 425 32 q 286 -7 331 -7 q 191 11 233 -7 q 120 62 149 29 q 76 140 92 94 q 61 240 61 186 q 63 296 61 267 q 68 357 65 325 l 282 340 q 275 307 275 319 q 292 267 275 279 q 331 254 308 254 q 367 262 349 254 q 402 286 386 269 q 428 328 418 303 q 438 386 438 353 q 433 419 438 403 q 412 446 428 435 q 367 465 396 457 q 290 472 338 472 q 265 472 278 472 q 229 468 251 471 q 176 460 207 465 q 96 447 144 456 q 133 687 111 551 q 188 993 156 822 l 717 1013 l 689 786 q 531 781 611 783 q 368 774 451 778 q 362 724 365 754 q 354 657 358 693 q 506 640 443 657 q 607 594 568 624 q 663 526 646 565 q 681 438 681 486 z "},"6":{"ha":664,"x_min":72,"x_max":739,"o":"m 699 311 q 678 201 699 256 q 615 103 657 146 q 510 34 574 61 q 363 7 447 7 q 251 28 304 7 q 159 93 199 50 q 96 200 119 136 q 72 351 72 264 q 117 648 72 521 q 231 859 163 775 q 381 984 300 943 q 532 1025 461 1025 q 622 1006 583 1025 q 688 953 661 986 q 726 878 714 921 q 739 785 739 835 l 549 694 q 535 769 549 746 q 497 793 521 793 q 462 774 482 793 q 422 719 442 754 q 383 637 401 685 q 350 532 364 589 q 464 550 411 550 q 565 530 522 550 q 638 476 608 510 q 683 400 668 443 q 699 311 699 357 m 318 335 q 339 242 318 269 q 386 215 360 215 q 438 225 414 215 q 478 250 461 235 q 506 286 496 265 q 517 326 517 307 q 493 365 517 349 q 408 382 469 382 q 367 379 389 382 q 319 368 346 376 q 318 351 318 360 q 318 335 318 343 z "},"7":{"ha":471,"x_min":40,"x_max":642,"o":"m 40 13 l 317 772 l 111 742 l 154 986 l 642 1028 l 289 35 l 40 13 z "},"8":{"ha":719,"x_min":28,"x_max":817,"o":"m 740 351 q 707 213 740 279 q 616 97 674 147 q 481 15 558 46 q 315 -15 404 -15 q 201 -2 254 -15 q 109 38 147 11 q 49 109 71 65 q 28 214 28 153 q 40 312 28 261 q 78 408 51 363 q 148 492 106 454 q 250 551 190 531 q 184 629 204 589 q 164 713 164 669 q 201 831 164 774 q 297 933 238 889 q 431 1006 356 978 q 582 1033 506 1033 q 685 1016 642 1033 q 758 969 729 999 q 802 901 788 940 q 817 822 817 863 q 806 748 817 785 q 773 678 794 711 q 720 617 751 644 q 649 571 689 589 q 719 463 697 519 q 740 351 740 407 m 229 285 q 257 224 229 250 q 353 197 285 197 q 438 208 403 197 q 493 238 472 219 q 523 281 514 257 q 532 326 532 304 q 502 426 532 397 q 432 454 472 454 q 363 440 399 454 q 297 401 326 425 q 248 346 267 376 q 229 285 229 315 m 382 692 q 402 637 382 661 q 457 613 422 613 q 507 625 482 613 q 552 656 532 638 q 585 697 572 674 q 599 740 599 721 q 590 771 599 758 q 566 792 581 783 q 535 803 551 800 q 501 807 518 807 q 449 797 471 807 q 411 770 426 786 q 389 733 396 754 q 382 692 382 713 z "},"9":{"ha":679,"x_min":97,"x_max":756,"o":"m 756 654 q 708 394 756 513 q 583 190 661 275 q 407 57 506 104 q 203 10 308 10 l 224 240 q 312 256 269 240 q 388 303 354 272 q 447 377 422 333 q 483 474 471 421 q 416 444 451 454 q 346 435 381 435 q 253 454 299 435 q 174 509 208 474 q 119 594 140 544 q 97 708 97 644 q 126 845 97 785 q 201 947 154 906 q 306 1010 247 989 q 426 1032 365 1032 q 547 1010 488 1032 q 653 941 607 988 q 727 823 699 894 q 756 654 756 751 m 324 735 q 354 668 324 689 q 421 647 385 647 q 485 667 456 647 q 514 724 514 686 q 491 809 514 788 q 436 831 468 831 q 397 824 418 831 q 360 804 376 817 q 334 774 344 792 q 324 735 324 757 z "},"\u0000":{"ha":0,"x_min":0,"x_max":0,"o":""},"\r":{"ha":271,"x_min":0,"x_max":0,"o":""}," ":{"ha":271,"x_min":0,"x_max":0,"o":""},"A":{"ha":601,"x_min":-29,"x_max":644,"o":"m 511 28 q 435 15 476 22 q 360 3 393 8 q 371 93 365 49 q 378 171 375 132 q 385 238 382 210 l 264 238 l 208 38 q 136 28 178 33 q 58 19 94 24 q -29 8 14 14 q 81 372 26 193 q 127 529 103 447 q 176 692 151 611 q 222 849 200 774 q 261 986 244 924 q 453 1003 356 993 q 644 1029 551 1013 q 635 919 640 985 q 626 775 631 853 q 618 613 622 697 q 610 446 614 528 q 594 39 603 254 q 511 28 553 32 m 297 376 q 317 377 303 376 q 348 378 332 378 q 378 380 364 379 q 397 382 392 381 q 399 410 397 390 q 403 456 401 431 q 408 513 406 482 q 414 572 411 543 q 428 725 419 643 l 436 846 l 415 844 l 383 725 l 297 376 z "},"Á":{"ha":601,"x_min":-29,"x_max":644,"o":"m 511 28 q 435 15 476 22 q 360 3 393 8 q 371 93 365 49 q 378 171 375 132 q 385 238 382 210 l 264 238 l 208 38 q 136 28 178 33 q 58 19 94 24 q -29 8 14 14 q 81 372 26 193 q 127 529 103 447 q 176 692 151 611 q 222 849 200 774 q 261 986 244 924 q 453 1003 356 993 q 644 1029 551 1013 q 635 919 640 985 q 626 775 631 853 q 618 613 622 697 q 610 446 614 528 q 594 39 603 254 q 511 28 553 32 m 297 376 q 317 377 303 376 q 348 378 332 378 q 378 380 364 379 q 397 382 392 381 q 399 410 397 390 q 403 456 401 431 q 408 513 406 482 q 414 572 411 543 q 428 725 419 643 l 436 846 l 415 844 l 383 725 l 297 376 m 636 1174 q 460 1106 554 1140 q 283 1042 365 1072 q 282 1069 282 1057 q 282 1094 282 1082 q 283 1140 282 1117 q 283 1188 283 1163 q 461 1358 378 1283 q 617 1513 544 1433 q 624 1339 624 1419 q 636 1174 625 1258 z "},"Â":{"ha":601,"x_min":-29,"x_max":644,"o":"m 511 28 q 435 15 476 22 q 360 3 393 8 q 371 93 365 49 q 378 171 375 132 q 385 238 382 210 l 264 238 l 208 38 q 136 28 178 33 q 58 19 94 24 q -29 8 14 14 q 81 372 26 193 q 127 529 103 447 q 176 692 151 611 q 222 849 200 774 q 261 986 244 924 q 453 1003 356 993 q 644 1029 551 1013 q 635 919 640 985 q 626 775 631 853 q 618 613 622 697 q 610 446 614 528 q 594 39 603 254 q 511 28 553 32 m 297 376 q 317 377 303 376 q 348 378 332 378 q 378 380 364 379 q 397 382 392 381 q 399 410 397 390 q 403 456 401 431 q 408 513 406 482 q 414 572 411 543 q 428 725 419 643 l 436 846 l 415 844 l 383 725 l 297 376 m 450 1207 q 414 1171 435 1193 q 372 1125 393 1149 q 331 1079 351 1101 q 296 1042 310 1057 q 264 1070 278 1057 q 242 1094 250 1083 q 221 1118 229 1107 q 301 1229 260 1175 q 377 1325 336 1275 q 454 1411 418 1375 q 530 1404 508 1403 q 554 1403 551 1406 q 578 1317 565 1365 q 604 1225 592 1268 q 635 1122 619 1174 q 601 1094 618 1108 q 569 1069 588 1082 q 535 1043 551 1056 l 450 1207 z "},"Ä":{"ha":601,"x_min":-29,"x_max":682,"o":"m 511 28 q 435 15 476 22 q 360 3 393 8 q 371 93 365 49 q 378 171 375 132 q 385 238 382 210 l 264 238 l 208 38 q 136 28 178 33 q 58 19 94 24 q -29 8 14 14 q 81 372 26 193 q 127 529 103 447 q 176 692 151 611 q 222 849 200 774 q 261 986 244 924 q 453 1003 356 993 q 644 1029 551 1013 q 635 919 640 985 q 626 775 631 853 q 618 613 622 697 q 610 446 614 528 q 594 39 603 254 q 511 28 553 32 m 297 376 q 317 377 303 376 q 348 378 332 378 q 378 380 364 379 q 397 382 392 381 q 399 410 397 390 q 403 456 401 431 q 408 513 406 482 q 414 572 411 543 q 428 725 419 643 l 436 846 l 415 844 l 383 725 l 297 376 m 682 1261 q 672 1213 682 1236 q 644 1172 663 1190 q 598 1142 625 1154 q 533 1131 571 1131 q 450 1167 478 1131 q 422 1250 422 1204 q 430 1296 422 1274 q 453 1335 438 1318 q 492 1363 468 1351 q 549 1374 517 1374 q 649 1339 615 1374 q 682 1261 682 1304 m 358 1261 q 349 1213 358 1236 q 321 1172 340 1190 q 274 1142 301 1154 q 211 1131 246 1131 q 128 1167 156 1131 q 100 1250 100 1204 q 108 1296 100 1274 q 131 1335 115 1318 q 169 1363 146 1351 q 225 1374 193 1374 q 326 1339 293 1374 q 358 1261 358 1304 z "},"À":{"ha":601,"x_min":-29,"x_max":644,"o":"m 511 28 q 435 15 476 22 q 360 3 393 8 q 371 93 365 49 q 378 171 375 132 q 385 238 382 210 l 264 238 l 208 38 q 136 28 178 33 q 58 19 94 24 q -29 8 14 14 q 81 372 26 193 q 127 529 103 447 q 176 692 151 611 q 222 849 200 774 q 261 986 244 924 q 453 1003 356 993 q 644 1029 551 1013 q 635 919 640 985 q 626 775 631 853 q 618 613 622 697 q 610 446 614 528 q 594 39 603 254 q 511 28 553 32 m 297 376 q 317 377 303 376 q 348 378 332 378 q 378 380 364 379 q 397 382 392 381 q 399 410 397 390 q 403 456 401 431 q 408 513 406 482 q 414 572 411 543 q 428 725 419 643 l 436 846 l 415 844 l 383 725 l 297 376 m 446 1044 q 310 1078 375 1061 q 193 1106 253 1090 q 93 1135 133 1122 q 113 1233 101 1175 q 133 1344 124 1290 q 158 1475 146 1408 q 267 1361 213 1417 q 365 1257 313 1313 q 456 1157 417 1201 l 446 1044 z "},"Å":{"ha":601,"x_min":-29,"x_max":644,"o":"m 511 28 q 435 15 476 22 q 360 3 393 8 q 371 93 365 49 q 378 171 375 132 q 385 238 382 210 l 264 238 l 208 38 q 136 28 178 33 q 58 19 94 24 q -29 8 14 14 q 81 372 26 193 q 127 529 103 447 q 176 692 151 611 q 222 849 200 774 q 261 986 244 924 q 453 1003 356 993 q 644 1029 551 1013 q 635 919 640 985 q 626 775 631 853 q 618 613 622 697 q 610 446 614 528 q 594 39 603 254 q 511 28 553 32 m 297 376 q 317 377 303 376 q 348 378 332 378 q 378 380 364 379 q 397 382 392 381 q 399 410 397 390 q 403 456 401 431 q 408 513 406 482 q 414 572 411 543 q 428 725 419 643 l 436 846 l 415 844 l 383 725 l 297 376 m 550 1221 q 539 1160 550 1190 q 505 1107 528 1131 q 449 1068 482 1083 q 375 1053 417 1053 q 314 1066 340 1053 q 269 1101 288 1079 q 242 1150 250 1122 q 233 1207 233 1178 q 242 1265 233 1236 q 272 1317 251 1294 q 324 1353 293 1339 q 394 1367 354 1367 q 463 1354 433 1367 q 511 1322 492 1342 q 540 1276 531 1303 q 550 1221 550 1250 m 317 1204 q 336 1151 317 1175 q 390 1126 356 1126 q 456 1153 433 1126 q 479 1211 479 1181 q 459 1263 479 1240 q 399 1285 439 1285 q 337 1260 357 1285 q 317 1204 317 1235 z "},"Ã":{"ha":601,"x_min":-29,"x_max":764,"o":"m 511 28 q 435 15 476 22 q 360 3 393 8 q 371 93 365 49 q 378 171 375 132 q 385 238 382 210 l 264 238 l 208 38 q 136 28 178 33 q 58 19 94 24 q -29 8 14 14 q 81 372 26 193 q 127 529 103 447 q 176 692 151 611 q 222 849 200 774 q 261 986 244 924 q 453 1003 356 993 q 644 1029 551 1013 q 635 919 640 985 q 626 775 631 853 q 618 613 622 697 q 610 446 614 528 q 594 39 603 254 q 511 28 553 32 m 297 376 q 317 377 303 376 q 348 378 332 378 q 378 380 364 379 q 397 382 392 381 q 399 410 397 390 q 403 456 401 431 q 408 513 406 482 q 414 572 411 543 q 428 725 419 643 l 436 846 l 415 844 l 383 725 l 297 376 m 368 1171 q 328 1159 347 1171 q 291 1131 308 1147 q 257 1096 274 1114 q 226 1065 240 1078 q 195 1089 208 1078 q 171 1108 182 1100 q 151 1126 160 1117 q 160 1144 151 1126 q 183 1190 168 1163 q 220 1249 199 1217 q 268 1308 242 1281 q 325 1353 294 1335 q 392 1372 356 1372 q 451 1353 425 1372 q 496 1311 476 1333 q 527 1271 515 1289 q 546 1253 539 1253 q 586 1267 567 1253 q 624 1303 606 1282 q 658 1344 642 1324 q 689 1378 675 1365 q 719 1354 706 1365 q 744 1335 733 1343 q 764 1317 756 1326 q 697 1196 735 1249 q 663 1151 682 1172 q 621 1114 643 1131 q 574 1087 599 1097 q 522 1076 550 1076 q 472 1091 489 1076 q 440 1124 454 1106 q 412 1156 426 1142 q 368 1171 397 1171 z "},"Æ":{"ha":717,"x_min":-40,"x_max":840,"o":"m 342 -1 l 342 3 l 339 3 q 357 90 349 49 q 373 171 365 132 q 385 238 381 210 l 283 238 l 211 38 q 137 28 181 33 q 54 19 93 24 q -40 8 8 14 q 101 372 32 193 q 163 529 132 447 q 225 692 194 611 q 283 849 256 774 q 333 986 311 924 q 422 992 381 990 q 504 994 463 993 q 592 996 546 994 q 696 1003 638 997 l 840 1014 l 786 846 q 764 849 778 847 q 733 851 750 850 q 694 851 717 851 l 660 603 q 696 607 678 606 q 729 608 711 608 q 763 610 747 608 q 752 533 757 571 q 740 457 747 496 q 708 455 725 456 q 675 453 690 454 q 640 450 658 451 l 604 196 l 721 204 l 707 46 l 342 -1 m 328 376 q 345 377 333 376 q 369 378 357 378 q 392 380 381 379 q 410 382 404 381 q 417 425 411 394 q 429 497 422 456 q 445 587 436 539 q 463 683 454 635 q 481 774 472 731 q 494 846 489 817 l 481 844 l 435 725 l 328 376 z "},"B":{"ha":594,"x_min":-1,"x_max":711,"o":"m 628 349 q 604 243 628 292 q 540 155 581 194 q 447 85 500 115 q 334 35 393 56 q 213 5 275 15 q 94 -6 151 -6 q -1 3 43 -6 q 105 492 65 246 q 181 989 144 739 q 331 1016 253 1004 q 492 1028 408 1028 q 565 1019 526 1028 q 636 989 604 1011 q 690 931 668 967 q 711 839 711 894 q 694 740 711 786 q 649 657 676 694 q 588 592 622 619 q 517 551 553 565 q 554 524 535 542 q 590 481 574 506 q 617 424 607 457 q 628 349 628 390 m 310 493 q 299 434 304 460 q 290 385 294 408 q 281 335 286 361 q 271 275 276 310 q 331 285 297 278 q 394 306 364 292 q 446 345 425 321 q 467 404 467 369 q 453 446 467 429 q 420 474 440 463 q 376 490 400 485 q 332 494 353 494 q 320 494 325 494 q 310 493 315 494 m 372 829 q 366 793 369 814 q 358 749 363 772 q 349 704 354 726 q 342 665 344 682 q 403 681 372 671 q 458 702 433 690 q 497 728 482 714 q 511 758 511 742 q 499 792 511 779 q 466 814 486 806 q 424 826 446 822 q 386 829 403 829 l 372 829 z "},"C":{"ha":575,"x_min":54,"x_max":710,"o":"m 593 299 q 519 166 560 222 q 433 72 478 110 q 342 15 388 33 q 253 -3 296 -3 q 174 17 210 -3 q 113 75 139 36 q 70 171 86 114 q 54 304 54 228 q 90 562 54 435 q 192 790 126 689 q 347 953 257 892 q 544 1015 436 1015 q 608 1001 578 1015 q 661 963 639 988 q 697 901 683 938 q 710 821 710 865 q 710 803 710 813 q 708 785 710 794 l 526 736 q 488 771 510 771 q 441 745 465 771 q 393 678 417 719 q 347 587 369 638 q 308 485 325 536 q 281 387 292 433 q 271 311 271 340 q 283 249 271 267 q 314 231 294 231 q 349 242 329 231 q 385 273 368 254 q 415 315 401 292 q 435 363 429 339 l 593 299 z "},"Ç":{"ha":575,"x_min":54,"x_max":710,"o":"m 593 299 q 519 166 560 222 q 433 72 478 110 q 342 15 388 33 q 253 -3 296 -3 q 174 17 210 -3 q 113 75 139 36 q 70 171 86 114 q 54 304 54 228 q 90 562 54 435 q 192 790 126 689 q 347 953 257 892 q 544 1015 436 1015 q 608 1001 578 1015 q 661 963 639 988 q 697 901 683 938 q 710 821 710 865 q 710 803 710 813 q 708 785 710 794 l 526 736 q 488 771 510 771 q 441 745 465 771 q 393 678 417 719 q 347 587 369 638 q 308 485 325 536 q 281 387 292 433 q 271 311 271 340 q 283 249 271 267 q 314 231 294 231 q 349 242 329 231 q 385 273 368 254 q 415 315 401 292 q 435 363 429 339 l 593 299 m 440 -94 q 426 -148 440 -124 q 386 -190 411 -172 q 327 -219 361 -208 q 253 -229 293 -229 q 188 -217 219 -229 q 136 -178 157 -204 l 163 -56 q 236 -94 199 -94 q 287 -72 267 -94 q 307 -15 307 -50 q 300 26 307 1 q 341 21 325 24 q 370 16 357 18 q 385 14 383 14 q 440 -94 440 -40 z "},"D":{"ha":613,"x_min":6,"x_max":707,"o":"m 707 710 q 686 556 707 638 q 628 395 665 475 q 535 242 590 315 q 411 115 481 169 q 259 26 342 60 q 83 -7 176 -7 q 44 -5 64 -7 q 6 0 25 -3 q 79 374 43 192 q 108 533 93 450 q 138 696 124 615 q 165 850 151 776 q 186 983 178 924 q 307 1004 246 994 q 432 1014 368 1014 q 559 990 507 1014 q 644 925 611 967 q 692 828 676 883 q 707 710 707 772 m 379 818 q 347 661 364 736 q 314 510 331 586 q 281 350 297 433 q 249 168 264 267 q 313 228 282 190 q 372 317 344 267 q 423 422 400 367 q 463 531 446 478 q 488 629 479 583 q 497 708 497 675 q 469 789 497 760 q 379 818 440 818 z "},"Ð":{"ha":618,"x_min":18,"x_max":696,"o":"m 696 682 q 680 529 696 608 q 633 375 664 450 q 558 232 603 300 q 458 113 514 164 q 333 33 401 63 q 189 3 265 3 q 102 16 144 3 q 18 58 60 29 q 42 178 29 113 q 68 305 53 233 q 97 460 83 376 q 78 458 88 458 q 63 458 69 458 l 47 458 l 93 606 q 103 604 97 604 l 125 604 q 161 805 144 707 q 189 983 178 903 q 310 1004 249 994 q 435 1014 371 1014 q 556 988 506 1014 q 638 917 607 963 q 682 812 668 872 q 696 682 696 751 m 296 458 q 269 321 282 392 q 238 168 256 250 q 332 258 288 199 q 411 389 376 317 q 467 538 446 461 q 488 681 488 615 q 481 745 488 715 q 458 797 474 775 q 421 832 443 819 q 369 844 399 844 q 344 724 356 782 q 321 604 332 665 q 350 605 336 604 q 375 606 364 606 q 397 607 386 606 l 364 457 l 343 457 q 322 458 333 457 q 296 458 310 458 z "},"E":{"ha":474,"x_min":11,"x_max":632,"o":"m 11 -1 l 193 986 l 632 1024 q 615 961 622 993 q 602 906 608 935 q 592 856 596 878 q 552 853 578 854 q 497 852 526 853 q 438 851 468 851 q 386 851 408 851 l 338 603 q 418 607 381 606 q 481 608 449 608 q 528 610 513 608 q 517 533 522 571 q 506 457 513 496 q 460 455 492 456 q 397 453 429 454 q 318 450 361 451 l 271 194 l 474 226 l 460 68 l 11 -1 z "},"É":{"ha":474,"x_min":11,"x_max":632,"o":"m 11 -1 l 193 986 l 632 1024 q 615 961 622 993 q 602 906 608 935 q 592 856 596 878 q 552 853 578 854 q 497 852 526 853 q 438 851 468 851 q 386 851 408 851 l 338 603 q 418 607 381 606 q 481 608 449 608 q 528 610 513 608 q 517 533 522 571 q 506 457 513 496 q 460 455 492 456 q 397 453 429 454 q 318 450 361 451 l 271 194 l 474 226 l 460 68 l 11 -1 m 613 1214 q 436 1147 531 1181 q 260 1082 342 1113 q 258 1110 258 1097 q 258 1135 258 1122 q 259 1180 258 1157 q 260 1228 260 1203 q 438 1399 354 1324 q 593 1553 521 1474 q 601 1379 600 1460 q 613 1214 601 1299 z "},"Ê":{"ha":474,"x_min":11,"x_max":632,"o":"m 11 -1 l 193 986 l 632 1024 q 615 961 622 993 q 602 906 608 935 q 592 856 596 878 q 552 853 578 854 q 497 852 526 853 q 438 851 468 851 q 386 851 408 851 l 338 603 q 418 607 381 606 q 481 608 449 608 q 528 610 513 608 q 517 533 522 571 q 506 457 513 496 q 460 455 492 456 q 397 453 429 454 q 318 450 361 451 l 271 194 l 474 226 l 460 68 l 11 -1 m 426 1247 q 390 1211 411 1233 q 349 1165 369 1189 q 307 1119 328 1142 q 272 1082 286 1097 q 240 1110 254 1097 q 218 1135 226 1124 q 197 1158 206 1147 q 278 1269 236 1215 q 353 1365 313 1315 q 431 1451 394 1415 q 506 1444 485 1443 q 531 1443 528 1446 q 555 1357 542 1406 q 581 1265 568 1308 q 611 1163 596 1214 q 578 1135 594 1149 q 546 1109 564 1122 q 511 1083 528 1096 l 426 1247 z "},"Ë":{"ha":474,"x_min":11,"x_max":658,"o":"m 11 -1 l 193 986 l 632 1024 q 615 961 622 993 q 602 906 608 935 q 592 856 596 878 q 552 853 578 854 q 497 852 526 853 q 438 851 468 851 q 386 851 408 851 l 338 603 q 418 607 381 606 q 481 608 449 608 q 528 610 513 608 q 517 533 522 571 q 506 457 513 496 q 460 455 492 456 q 397 453 429 454 q 318 450 361 451 l 271 194 l 474 226 l 460 68 l 11 -1 m 658 1301 q 649 1253 658 1276 q 620 1213 639 1231 q 574 1183 601 1194 q 510 1171 547 1171 q 426 1208 454 1171 q 399 1290 399 1244 q 406 1336 399 1314 q 429 1375 414 1358 q 469 1403 444 1392 q 525 1414 493 1414 q 625 1379 592 1414 q 658 1301 658 1344 m 335 1301 q 326 1253 335 1276 q 297 1213 317 1231 q 250 1183 278 1194 q 188 1171 222 1171 q 104 1208 132 1171 q 76 1290 76 1244 q 84 1336 76 1314 q 107 1375 92 1358 q 146 1403 122 1392 q 201 1414 169 1414 q 302 1379 269 1414 q 335 1301 335 1344 z "},"È":{"ha":474,"x_min":11,"x_max":632,"o":"m 11 -1 l 193 986 l 632 1024 q 615 961 622 993 q 602 906 608 935 q 592 856 596 878 q 552 853 578 854 q 497 852 526 853 q 438 851 468 851 q 386 851 408 851 l 338 603 q 418 607 381 606 q 481 608 449 608 q 528 610 513 608 q 517 533 522 571 q 506 457 513 496 q 460 455 492 456 q 397 453 429 454 q 318 450 361 451 l 271 194 l 474 226 l 460 68 l 11 -1 m 422 1085 q 286 1118 351 1101 q 169 1147 229 1131 q 69 1175 110 1163 q 89 1273 78 1215 q 110 1385 100 1331 q 135 1515 122 1449 q 243 1401 189 1457 q 341 1297 289 1353 q 432 1197 393 1242 l 422 1085 z "},"F":{"ha":474,"x_min":6,"x_max":653,"o":"m 171 33 q 86 17 132 26 q 6 -1 40 7 q 38 133 22 58 q 70 289 54 207 q 101 455 86 371 q 129 617 115 539 q 188 999 158 801 l 653 1022 l 613 851 l 394 851 l 351 604 q 433 606 394 606 q 499 606 465 606 q 550 607 532 606 q 540 531 546 568 q 528 456 533 493 q 476 456 510 456 q 408 458 443 457 q 328 461 372 460 l 264 51 q 171 33 217 43 z "},"G":{"ha":693,"x_min":58,"x_max":789,"o":"m 756 529 q 700 283 746 388 q 590 107 654 178 q 451 1 525 36 q 310 -33 376 -33 q 212 -11 258 -33 q 131 56 165 11 q 78 169 97 101 q 58 329 58 238 q 110 642 58 508 q 240 864 161 775 q 408 996 318 953 q 575 1039 497 1039 q 672 1019 631 1039 q 739 967 713 1000 q 777 891 765 935 q 789 799 789 847 l 599 763 q 565 842 586 818 q 518 865 544 865 q 442 816 483 865 q 364 689 400 767 q 303 518 328 611 q 275 335 278 425 q 301 212 275 249 q 367 175 326 175 q 424 189 394 175 q 478 228 454 203 q 517 288 501 254 q 535 363 533 322 l 386 340 l 413 478 q 540 494 478 486 q 652 511 593 501 q 756 529 711 521 z "},"H":{"ha":614,"x_min":13,"x_max":760,"o":"m 13 -3 q 83 374 49 189 q 111 535 96 451 q 140 701 126 619 q 167 860 154 783 q 189 1001 179 938 l 414 1017 q 367 814 390 919 q 325 608 344 708 l 463 624 q 497 815 482 722 q 538 1006 513 907 q 608 1015 569 1011 q 681 1021 647 1018 q 737 1026 714 1024 q 760 1028 760 1028 q 723 891 740 965 q 689 737 706 817 q 657 575 672 657 q 629 419 642 493 q 572 58 599 243 l 356 33 q 388 196 374 117 q 416 335 401 263 q 439 458 431 407 l 304 446 q 281 324 294 393 q 257 192 268 254 q 226 42 242 117 l 13 -3 z "},"I":{"ha":278,"x_min":-8,"x_max":408,"o":"m 219 28 q 171 24 207 28 q 96 16 135 21 q 26 7 57 11 q -8 1 -6 3 q 25 134 8 61 q 59 287 42 207 q 92 449 76 367 q 124 607 108 531 q 192 972 158 785 l 408 1007 q 336 642 372 821 q 305 483 321 565 q 274 321 289 401 q 245 165 260 240 q 219 28 231 89 z "},"Í":{"ha":278,"x_min":-8,"x_max":621,"o":"m 219 28 q 171 24 207 28 q 96 16 135 21 q 26 7 57 11 q -8 1 -6 3 q 25 134 8 61 q 59 287 42 207 q 92 449 76 367 q 124 607 108 531 q 192 972 158 785 l 408 1007 q 336 642 372 821 q 305 483 321 565 q 274 321 289 401 q 245 165 260 240 q 219 28 231 89 m 621 1174 q 444 1106 539 1140 q 268 1042 350 1072 q 267 1069 267 1057 q 267 1094 267 1082 q 267 1140 267 1117 q 268 1188 268 1163 q 446 1358 363 1283 q 601 1513 529 1433 q 609 1339 608 1419 q 621 1174 610 1258 z "},"Î":{"ha":278,"x_min":-8,"x_max":619,"o":"m 219 28 q 171 24 207 28 q 96 16 135 21 q 26 7 57 11 q -8 1 -6 3 q 25 134 8 61 q 59 287 42 207 q 92 449 76 367 q 124 607 108 531 q 192 972 158 785 l 408 1007 q 336 642 372 821 q 305 483 321 565 q 274 321 289 401 q 245 165 260 240 q 219 28 231 89 m 435 1207 q 399 1171 419 1193 q 357 1125 378 1149 q 315 1079 336 1101 q 281 1042 294 1057 q 249 1070 263 1057 q 226 1094 235 1083 q 206 1118 214 1107 q 286 1229 244 1175 q 362 1325 321 1275 q 439 1411 403 1375 q 515 1404 493 1403 q 539 1403 536 1406 q 563 1317 550 1365 q 589 1225 576 1268 q 619 1122 604 1174 q 586 1094 603 1108 q 554 1069 572 1082 q 519 1043 536 1056 l 435 1207 z "},"Ï":{"ha":278,"x_min":-8,"x_max":667,"o":"m 219 28 q 171 24 207 28 q 96 16 135 21 q 26 7 57 11 q -8 1 -6 3 q 25 134 8 61 q 59 287 42 207 q 92 449 76 367 q 124 607 108 531 q 192 972 158 785 l 408 1007 q 336 642 372 821 q 305 483 321 565 q 274 321 289 401 q 245 165 260 240 q 219 28 231 89 m 667 1261 q 657 1213 667 1236 q 628 1172 647 1190 q 583 1142 610 1154 q 518 1131 556 1131 q 435 1167 463 1131 q 407 1250 407 1204 q 415 1296 407 1274 q 438 1335 422 1318 q 477 1363 453 1351 q 533 1374 501 1374 q 633 1339 600 1374 q 667 1261 667 1304 m 343 1261 q 334 1213 343 1236 q 306 1172 325 1190 q 258 1142 286 1154 q 196 1131 231 1131 q 113 1167 140 1131 q 85 1250 85 1204 q 92 1296 85 1274 q 115 1335 100 1318 q 154 1363 131 1351 q 210 1374 178 1374 q 310 1339 278 1374 q 343 1261 343 1304 z "},"Ì":{"ha":278,"x_min":-8,"x_max":440,"o":"m 219 28 q 171 24 207 28 q 96 16 135 21 q 26 7 57 11 q -8 1 -6 3 q 25 134 8 61 q 59 287 42 207 q 92 449 76 367 q 124 607 108 531 q 192 972 158 785 l 408 1007 q 336 642 372 821 q 305 483 321 565 q 274 321 289 401 q 245 165 260 240 q 219 28 231 89 m 431 1044 q 294 1078 360 1061 q 178 1106 238 1090 q 78 1135 118 1122 q 97 1233 86 1175 q 118 1344 108 1290 q 143 1475 131 1408 q 251 1361 197 1417 q 349 1257 297 1313 q 440 1157 401 1201 l 431 1044 z "},"J":{"ha":388,"x_min":-37,"x_max":556,"o":"m 397 369 q 367 242 385 308 q 319 123 349 176 q 247 34 289 69 q 146 -1 204 -1 q 62 15 107 -1 q -37 72 17 32 l 58 286 q 85 262 65 272 q 129 251 106 251 q 159 279 146 251 q 182 344 172 307 q 197 419 192 381 q 206 482 203 458 q 256 751 232 617 q 311 1018 279 885 q 434 1035 374 1024 q 556 1064 494 1047 q 513 903 535 993 q 469 718 490 813 q 430 533 449 624 q 397 369 411 442 z "},"K":{"ha":642,"x_min":10,"x_max":838,"o":"m 10 -1 q 88 376 51 193 q 117 540 101 456 q 145 708 132 625 q 169 870 158 792 q 185 1013 179 949 q 257 1008 217 1010 q 332 1003 297 1006 q 415 1000 374 1000 q 411 979 414 994 q 404 942 408 964 q 395 894 400 921 q 385 842 390 868 q 360 704 374 781 l 368 706 q 408 767 382 728 q 461 851 433 807 q 515 937 489 896 q 560 1007 542 978 q 699 1019 629 1013 q 838 1038 768 1026 q 711 865 772 950 q 658 790 685 829 q 604 714 631 751 q 555 642 578 676 q 514 578 532 607 q 586 307 544 438 q 671 40 628 176 q 606 42 639 42 q 540 43 572 43 q 463 42 500 43 q 385 40 425 42 q 358 230 372 131 q 331 419 343 329 l 306 390 q 284 288 296 349 q 261 169 272 226 q 235 32 249 103 l 10 -1 z "},"L":{"ha":419,"x_min":17,"x_max":438,"o":"m 383 44 q 292 42 340 44 q 196 33 244 39 q 101 19 147 28 q 17 -3 54 10 q 36 136 25 60 q 62 294 47 213 q 91 460 76 376 q 121 619 106 543 q 194 990 156 801 l 438 1022 q 365 708 400 861 q 335 573 350 643 q 306 436 319 503 q 281 307 292 369 q 263 196 269 244 q 337 199 297 199 q 407 200 376 200 q 411 148 408 174 q 417 101 414 122 q 423 65 421 81 q 426 43 425 49 q 405 44 415 43 q 383 44 394 44 z "},"M":{"ha":860,"x_min":-42,"x_max":956,"o":"m -42 8 q 75 371 19 193 q 124 528 99 446 q 174 690 149 610 q 220 846 199 771 q 258 985 242 921 q 403 993 335 985 q 550 1008 471 1001 q 541 940 546 978 q 530 860 536 901 q 517 774 524 818 q 500 660 510 729 q 474 486 490 590 l 492 486 q 558 662 532 592 q 601 776 585 732 q 635 863 618 821 q 669 944 653 906 q 699 1011 685 982 q 764 1018 733 1014 q 825 1027 794 1022 q 887 1037 856 1032 q 956 1049 918 1042 q 929 883 942 968 q 907 715 917 799 q 888 549 897 631 q 872 393 879 467 q 843 57 856 221 l 601 14 q 603 51 601 21 q 609 126 606 82 q 619 225 613 171 q 631 333 625 279 q 644 438 638 388 q 658 525 651 489 l 646 525 q 603 402 626 467 q 555 271 579 338 q 507 140 531 204 q 465 18 483 76 q 382 15 417 17 q 301 10 347 13 l 346 525 l 325 525 q 311 465 322 507 q 285 367 300 422 q 254 253 271 313 q 223 144 238 194 q 199 60 208 93 q 188 24 189 28 l -42 8 z "},"N":{"ha":629,"x_min":8,"x_max":775,"o":"m 8 -7 q 83 375 47 189 q 113 538 97 453 q 143 706 129 624 q 169 866 157 789 q 188 1007 181 943 q 271 1013 231 1010 q 344 1017 307 1015 q 411 1022 382 1019 q 443 818 429 915 q 458 731 450 776 q 472 644 465 686 q 486 565 479 603 q 500 497 493 526 q 513 565 506 526 q 528 645 519 603 q 545 732 536 688 q 563 818 554 776 q 606 1021 583 915 l 775 1042 q 692 647 728 833 q 659 485 675 567 q 629 326 643 403 q 606 185 615 250 q 590 76 596 121 q 558 70 586 76 q 492 56 529 64 q 419 38 456 47 q 364 24 382 29 q 343 238 354 136 q 333 326 339 281 q 323 414 328 372 q 313 492 318 456 q 304 554 308 529 q 293 493 300 529 q 279 416 286 457 q 265 331 272 375 q 250 246 258 288 q 211 40 232 147 l 8 -7 z "},"Ñ":{"ha":629,"x_min":8,"x_max":893,"o":"m 8 -7 q 83 375 47 189 q 113 538 97 453 q 143 706 129 624 q 169 866 157 789 q 188 1007 181 943 q 271 1013 231 1010 q 344 1017 307 1015 q 411 1022 382 1019 q 443 818 429 915 q 458 731 450 776 q 472 644 465 686 q 486 565 479 603 q 500 497 493 526 q 513 565 506 526 q 528 645 519 603 q 545 732 536 688 q 563 818 554 776 q 606 1021 583 915 l 775 1042 q 692 647 728 833 q 659 485 675 567 q 629 326 643 403 q 606 185 615 250 q 590 76 596 121 q 558 70 586 76 q 492 56 529 64 q 419 38 456 47 q 364 24 382 29 q 343 238 354 136 q 333 326 339 281 q 323 414 328 372 q 313 492 318 456 q 304 554 308 529 q 293 493 300 529 q 279 416 286 457 q 265 331 272 375 q 250 246 258 288 q 211 40 232 147 l 8 -7 m 497 1171 q 457 1159 476 1171 q 420 1131 438 1147 q 386 1096 403 1114 q 356 1065 369 1078 q 324 1089 338 1078 q 300 1108 311 1100 q 281 1126 289 1117 q 289 1144 281 1126 q 313 1190 297 1163 q 349 1249 328 1217 q 397 1308 371 1281 q 454 1353 424 1335 q 521 1372 485 1372 q 580 1353 554 1372 q 625 1311 606 1333 q 656 1271 644 1289 q 675 1253 668 1253 q 715 1267 696 1253 q 753 1303 735 1282 q 788 1344 771 1324 q 818 1378 804 1365 q 849 1354 835 1365 q 874 1335 863 1343 q 893 1317 885 1326 q 826 1196 864 1249 q 792 1151 811 1172 q 750 1114 772 1131 q 703 1087 728 1097 q 651 1076 679 1076 q 601 1091 618 1076 q 569 1124 583 1106 q 541 1156 556 1142 q 497 1171 526 1171 z "},"O":{"ha":685,"x_min":43,"x_max":778,"o":"m 778 751 q 753 537 778 638 q 689 352 729 436 q 595 202 649 268 q 483 90 542 136 q 365 19 425 43 q 251 -6 306 -6 q 168 12 206 -6 q 103 63 131 29 q 59 151 75 97 q 43 279 43 204 q 63 443 43 357 q 115 614 82 529 q 197 775 149 699 q 304 910 246 851 q 429 1004 363 969 q 568 1039 496 1039 q 672 1013 631 1039 q 735 947 713 988 q 768 854 758 906 q 778 751 778 803 m 250 315 q 256 283 250 300 q 271 254 261 267 q 295 233 281 242 q 326 224 310 224 q 438 267 389 224 q 518 372 486 310 q 567 506 550 435 q 585 635 585 576 q 583 671 585 651 q 574 707 581 690 q 555 735 568 724 q 519 747 542 747 q 438 725 475 747 q 370 666 400 703 q 318 583 340 629 q 280 488 296 536 q 257 394 264 440 q 250 315 250 349 z "},"Ó":{"ha":685,"x_min":43,"x_max":819,"o":"m 778 751 q 753 537 778 638 q 689 352 729 436 q 595 202 649 268 q 483 90 542 136 q 365 19 425 43 q 251 -6 306 -6 q 168 12 206 -6 q 103 63 131 29 q 59 151 75 97 q 43 279 43 204 q 63 443 43 357 q 115 614 82 529 q 197 775 149 699 q 304 910 246 851 q 429 1004 363 969 q 568 1039 496 1039 q 672 1013 631 1039 q 735 947 713 988 q 768 854 758 906 q 778 751 778 803 m 250 315 q 256 283 250 300 q 271 254 261 267 q 295 233 281 242 q 326 224 310 224 q 438 267 389 224 q 518 372 486 310 q 567 506 550 435 q 585 635 585 576 q 583 671 585 651 q 574 707 581 690 q 555 735 568 724 q 519 747 542 747 q 438 725 475 747 q 370 666 400 703 q 318 583 340 629 q 280 488 296 536 q 257 394 264 440 q 250 315 250 349 m 819 1214 q 643 1147 738 1181 q 467 1082 549 1113 q 465 1110 465 1097 q 465 1135 465 1122 q 466 1180 465 1157 q 467 1228 467 1203 q 644 1399 561 1324 q 800 1553 728 1474 q 808 1379 807 1460 q 819 1214 808 1299 z "},"Ô":{"ha":685,"x_min":43,"x_max":818,"o":"m 778 751 q 753 537 778 638 q 689 352 729 436 q 595 202 649 268 q 483 90 542 136 q 365 19 425 43 q 251 -6 306 -6 q 168 12 206 -6 q 103 63 131 29 q 59 151 75 97 q 43 279 43 204 q 63 443 43 357 q 115 614 82 529 q 197 775 149 699 q 304 910 246 851 q 429 1004 363 969 q 568 1039 496 1039 q 672 1013 631 1039 q 735 947 713 988 q 768 854 758 906 q 778 751 778 803 m 250 315 q 256 283 250 300 q 271 254 261 267 q 295 233 281 242 q 326 224 310 224 q 438 267 389 224 q 518 372 486 310 q 567 506 550 435 q 585 635 585 576 q 583 671 585 651 q 574 707 581 690 q 555 735 568 724 q 519 747 542 747 q 438 725 475 747 q 370 666 400 703 q 318 583 340 629 q 280 488 296 536 q 257 394 264 440 q 250 315 250 349 m 633 1247 q 597 1211 618 1233 q 556 1165 576 1189 q 514 1119 535 1142 q 479 1082 493 1097 q 447 1110 461 1097 q 425 1135 433 1124 q 404 1158 413 1147 q 485 1269 443 1215 q 560 1365 519 1315 q 638 1451 601 1415 q 713 1444 692 1443 q 738 1443 735 1446 q 762 1357 749 1406 q 788 1265 775 1308 q 818 1163 803 1214 q 785 1135 801 1149 q 753 1109 771 1122 q 718 1083 735 1096 l 633 1247 z "},"Ö":{"ha":685,"x_min":43,"x_max":865,"o":"m 778 751 q 753 537 778 638 q 689 352 729 436 q 595 202 649 268 q 483 90 542 136 q 365 19 425 43 q 251 -6 306 -6 q 168 12 206 -6 q 103 63 131 29 q 59 151 75 97 q 43 279 43 204 q 63 443 43 357 q 115 614 82 529 q 197 775 149 699 q 304 910 246 851 q 429 1004 363 969 q 568 1039 496 1039 q 672 1013 631 1039 q 735 947 713 988 q 768 854 758 906 q 778 751 778 803 m 250 315 q 256 283 250 300 q 271 254 261 267 q 295 233 281 242 q 326 224 310 224 q 438 267 389 224 q 518 372 486 310 q 567 506 550 435 q 585 635 585 576 q 583 671 585 651 q 574 707 581 690 q 555 735 568 724 q 519 747 542 747 q 438 725 475 747 q 370 666 400 703 q 318 583 340 629 q 280 488 296 536 q 257 394 264 440 q 250 315 250 349 m 865 1301 q 856 1253 865 1276 q 827 1213 846 1231 q 781 1183 808 1194 q 717 1171 754 1171 q 633 1208 661 1171 q 606 1290 606 1244 q 613 1336 606 1314 q 636 1375 621 1358 q 676 1403 651 1392 q 732 1414 700 1414 q 832 1379 799 1414 q 865 1301 865 1344 m 542 1301 q 533 1253 542 1276 q 504 1213 524 1231 q 457 1183 485 1194 q 394 1171 429 1171 q 311 1208 339 1171 q 283 1290 283 1244 q 291 1336 283 1314 q 314 1375 299 1358 q 353 1403 329 1392 q 408 1414 376 1414 q 509 1379 476 1414 q 542 1301 542 1344 z "},"Ò":{"ha":685,"x_min":43,"x_max":778,"o":"m 778 751 q 753 537 778 638 q 689 352 729 436 q 595 202 649 268 q 483 90 542 136 q 365 19 425 43 q 251 -6 306 -6 q 168 12 206 -6 q 103 63 131 29 q 59 151 75 97 q 43 279 43 204 q 63 443 43 357 q 115 614 82 529 q 197 775 149 699 q 304 910 246 851 q 429 1004 363 969 q 568 1039 496 1039 q 672 1013 631 1039 q 735 947 713 988 q 768 854 758 906 q 778 751 778 803 m 250 315 q 256 283 250 300 q 271 254 261 267 q 295 233 281 242 q 326 224 310 224 q 438 267 389 224 q 518 372 486 310 q 567 506 550 435 q 585 635 585 576 q 583 671 585 651 q 574 707 581 690 q 555 735 568 724 q 519 747 542 747 q 438 725 475 747 q 370 666 400 703 q 318 583 340 629 q 280 488 296 536 q 257 394 264 440 q 250 315 250 349 m 629 1085 q 493 1118 558 1101 q 376 1147 436 1131 q 276 1175 317 1163 q 296 1273 285 1215 q 317 1385 307 1331 q 342 1515 329 1449 q 450 1401 396 1457 q 548 1297 496 1353 q 639 1197 600 1242 l 629 1085 z "},"Ø":{"ha":685,"x_min":-1,"x_max":865,"o":"m 68 -11 l -1 56 l 65 133 q 43 279 43 196 q 63 443 43 357 q 115 614 82 529 q 197 775 149 699 q 304 910 246 851 q 429 1004 363 969 q 568 1039 496 1039 q 660 1019 622 1039 q 722 967 697 1000 l 771 1031 l 842 978 l 865 1006 l 764 875 q 774 813 771 844 q 778 751 778 782 q 753 537 778 638 q 689 352 729 436 q 595 202 649 268 q 483 90 542 136 q 365 19 425 43 q 251 -6 306 -6 q 114 49 168 -6 l 68 -11 m 272 251 q 343 233 308 233 q 417 254 382 233 q 483 308 453 275 q 535 385 513 342 q 576 473 558 429 q 601 560 593 517 q 610 635 610 603 q 607 672 610 657 l 272 251 m 240 376 q 241 359 240 368 q 243 342 242 350 l 574 740 q 492 800 539 800 q 403 759 447 800 q 323 655 360 718 q 263 517 286 592 q 240 376 240 442 z "},"Õ":{"ha":685,"x_min":43,"x_max":947,"o":"m 778 751 q 753 537 778 638 q 689 352 729 436 q 595 202 649 268 q 483 90 542 136 q 365 19 425 43 q 251 -6 306 -6 q 168 12 206 -6 q 103 63 131 29 q 59 151 75 97 q 43 279 43 204 q 63 443 43 357 q 115 614 82 529 q 197 775 149 699 q 304 910 246 851 q 429 1004 363 969 q 568 1039 496 1039 q 672 1013 631 1039 q 735 947 713 988 q 768 854 758 906 q 778 751 778 803 m 250 315 q 256 283 250 300 q 271 254 261 267 q 295 233 281 242 q 326 224 310 224 q 438 267 389 224 q 518 372 486 310 q 567 506 550 435 q 585 635 585 576 q 583 671 585 651 q 574 707 581 690 q 555 735 568 724 q 519 747 542 747 q 438 725 475 747 q 370 666 400 703 q 318 583 340 629 q 280 488 296 536 q 257 394 264 440 q 250 315 250 349 m 551 1211 q 511 1199 531 1211 q 474 1171 492 1188 q 440 1136 457 1154 q 410 1106 424 1118 q 378 1129 392 1118 q 354 1149 365 1140 q 335 1167 343 1157 q 343 1185 335 1167 q 367 1230 351 1203 q 403 1289 382 1257 q 451 1348 425 1321 q 508 1394 478 1375 q 575 1413 539 1413 q 634 1393 608 1413 q 679 1351 660 1374 q 710 1311 699 1329 q 729 1293 722 1293 q 769 1308 750 1293 q 807 1343 789 1322 q 842 1385 825 1364 q 872 1418 858 1406 q 903 1394 889 1406 q 928 1375 917 1383 q 947 1357 939 1367 q 881 1236 918 1289 q 846 1192 865 1213 q 804 1154 826 1171 q 758 1127 782 1138 q 706 1117 733 1117 q 655 1131 672 1117 q 624 1164 638 1146 q 595 1197 610 1182 q 551 1211 581 1211 z "},"Œ":{"ha":779,"x_min":49,"x_max":938,"o":"m 344 14 q 208 38 264 14 q 117 104 153 63 q 65 203 82 146 q 49 325 49 261 q 67 471 49 394 q 116 619 85 547 q 192 758 147 692 q 292 876 238 825 q 410 961 347 928 q 540 1000 472 994 l 938 1026 q 921 964 928 996 q 907 909 914 938 q 897 858 900 881 l 881 858 q 806 862 850 858 q 724 865 763 865 l 675 615 q 724 614 700 614 q 768 613 744 613 q 811 613 792 613 l 833 613 q 823 536 828 574 q 811 460 818 499 q 799 459 806 460 q 786 458 793 458 q 745 459 768 458 q 700 461 722 460 q 657 464 678 463 l 608 207 l 779 229 l 765 71 l 358 14 l 344 14 m 247 375 q 277 277 247 317 q 375 238 307 238 q 386 238 381 238 q 399 239 392 238 l 494 758 q 406 712 450 751 q 326 616 363 672 q 269 495 290 560 q 247 375 247 431 z "},"P":{"ha":526,"x_min":-4,"x_max":650,"o":"m -4 -1 q 75 365 38 186 q 107 524 90 440 q 139 688 124 607 q 168 843 154 768 q 192 981 182 918 q 271 1002 232 993 q 351 1018 310 1011 q 428 1025 392 1025 q 533 1004 490 1025 q 601 948 575 983 q 639 865 628 913 q 650 764 650 818 q 622 614 650 686 q 545 485 593 542 q 435 396 497 429 q 307 363 374 363 l 292 363 q 271 260 281 315 q 254 157 261 204 q 236 46 244 101 l -4 -1 m 383 857 q 353 683 368 765 q 319 508 338 601 q 366 534 342 514 q 411 587 390 554 q 444 663 432 619 q 457 753 457 706 q 434 831 457 804 q 383 857 411 857 z "},"Þ":{"ha":536,"x_min":1,"x_max":633,"o":"m 1 -1 q 81 382 43 196 q 113 548 96 463 q 144 716 129 633 q 174 876 160 799 q 197 1014 188 953 q 301 1026 256 1021 q 383 1035 346 1031 q 428 1039 419 1039 l 399 900 q 507 878 463 900 q 580 820 551 857 q 621 735 608 783 q 633 632 633 686 q 604 483 633 554 q 527 358 575 413 q 417 270 479 303 q 290 238 356 238 l 275 238 q 258 155 264 190 q 249 94 253 119 q 242 46 243 67 l 1 -1 m 368 732 q 336 558 351 640 q 304 383 321 476 q 350 410 325 389 q 395 463 375 431 q 428 538 415 494 q 440 628 440 581 q 417 706 440 679 q 368 732 394 732 z "},"Q":{"ha":729,"x_min":43,"x_max":790,"o":"m 729 61 q 676 -6 704 29 q 626 -67 647 -42 q 569 13 599 -28 q 511 94 539 53 l 504 106 q 376 23 440 51 q 251 -6 311 -6 q 168 12 206 -6 q 103 63 131 29 q 59 151 75 97 q 43 279 43 204 q 63 443 43 357 q 115 614 82 529 q 197 775 149 699 q 304 910 246 851 q 429 1004 363 969 q 568 1039 496 1039 q 672 1013 631 1039 q 735 947 713 988 q 768 854 758 906 q 778 751 778 803 q 744 501 778 615 q 658 294 711 386 l 790 139 q 729 61 760 99 m 250 315 q 256 283 250 300 q 271 254 261 267 q 295 233 281 242 q 326 224 310 224 q 415 250 375 224 l 360 342 q 449 411 418 386 q 494 447 481 436 q 514 464 511 461 l 544 429 q 574 535 563 481 q 585 635 585 589 q 583 671 585 651 q 574 707 581 690 q 555 735 568 724 q 519 747 542 747 q 438 725 475 747 q 370 666 400 703 q 318 583 340 629 q 280 488 296 536 q 257 394 264 440 q 250 315 250 349 z "},"R":{"ha":617,"x_min":6,"x_max":713,"o":"m 6 -1 q 78 360 43 183 q 106 516 90 435 q 134 677 121 597 q 159 831 147 757 q 178 967 171 906 q 349 1003 257 992 q 531 1015 440 1015 q 620 1003 585 1015 q 676 967 656 990 q 704 914 696 944 q 713 846 713 883 q 693 737 713 790 q 641 635 674 683 q 566 548 608 588 q 475 483 524 508 q 528 362 500 428 q 582 236 557 296 q 639 97 610 167 l 424 22 q 374 203 396 118 q 354 274 364 238 q 336 344 344 311 q 322 401 328 376 q 315 440 317 426 l 297 435 q 277 326 289 390 q 256 203 265 263 q 231 57 243 132 l 6 -1 m 332 601 q 397 624 358 604 q 469 670 435 643 q 529 726 504 697 q 554 778 554 756 q 544 802 554 793 q 517 816 535 811 q 479 822 500 821 q 436 824 458 824 q 405 823 421 824 q 376 822 389 822 l 332 601 z "},"S":{"ha":597,"x_min":19,"x_max":718,"o":"m 615 343 q 585 202 615 265 q 505 93 556 139 q 385 22 454 47 q 238 -3 317 -3 q 126 27 182 -3 q 19 122 71 57 l 122 324 q 151 287 132 306 q 195 254 171 268 q 244 231 219 240 q 288 222 268 222 q 322 228 304 222 q 356 244 340 233 q 380 270 371 256 q 389 304 389 285 q 367 366 389 338 q 314 420 346 394 q 244 472 282 446 q 176 528 207 499 q 122 593 144 557 q 100 674 100 629 q 143 808 100 746 q 251 916 186 871 q 392 988 315 961 q 536 1014 468 1014 q 607 1005 574 1014 q 665 976 640 996 q 703 925 689 956 q 718 849 718 894 q 715 810 718 829 q 708 768 711 790 l 507 710 q 512 732 510 721 q 514 754 514 743 q 499 815 514 796 q 461 833 485 833 q 434 825 450 833 q 402 803 418 817 q 375 772 386 790 q 364 733 364 754 q 383 678 364 700 q 429 636 401 656 q 490 597 457 617 q 550 544 522 576 q 597 465 578 513 q 615 343 615 417 z "},"T":{"ha":503,"x_min":125,"x_max":663,"o":"m 125 -1 q 186 300 157 151 q 211 431 199 363 q 235 565 224 499 q 256 692 247 631 q 272 806 265 754 q 208 808 240 810 q 143 817 175 807 q 144 868 144 839 q 146 926 144 897 q 149 994 147 958 q 221 990 185 992 q 293 989 257 989 q 430 992 364 989 q 552 1001 496 996 q 663 1013 608 1006 l 647 938 q 634 872 640 906 q 622 815 628 839 q 560 803 592 807 q 499 794 529 800 q 478 690 489 747 q 456 570 467 632 q 436 444 446 508 q 417 322 426 381 q 375 38 394 185 l 125 -1 z "},"U":{"ha":582,"x_min":43,"x_max":721,"o":"m 578 271 q 523 136 558 192 q 440 44 488 81 q 338 -8 392 8 q 229 -25 283 -25 q 164 -15 197 -25 q 104 17 131 -4 q 60 69 78 38 q 43 144 43 101 q 43 156 43 150 q 44 167 43 161 q 63 304 50 224 q 89 472 75 385 q 119 648 103 560 q 149 808 136 736 q 172 928 163 881 q 185 988 182 976 q 254 994 214 990 q 329 1001 294 999 q 414 1010 372 1006 q 350 706 378 842 q 326 589 338 647 q 303 482 314 531 q 285 398 293 433 q 273 340 278 363 q 262 284 268 318 q 256 222 256 250 q 267 185 256 200 q 294 171 278 171 q 333 190 318 171 q 359 235 349 208 q 374 288 369 261 q 383 331 379 315 q 402 420 392 371 q 423 523 413 469 q 444 632 433 576 q 464 740 454 688 q 510 993 488 863 l 721 1007 q 714 971 721 1007 q 696 875 707 935 q 672 739 685 815 q 642 580 658 663 q 609 417 625 497 q 578 271 593 338 z "},"Ú":{"ha":582,"x_min":43,"x_max":768,"o":"m 578 271 q 523 136 558 192 q 440 44 488 81 q 338 -8 392 8 q 229 -25 283 -25 q 164 -15 197 -25 q 104 17 131 -4 q 60 69 78 38 q 43 144 43 101 q 43 156 43 150 q 44 167 43 161 q 63 304 50 224 q 89 472 75 385 q 119 648 103 560 q 149 808 136 736 q 172 928 163 881 q 185 988 182 976 q 254 994 214 990 q 329 1001 294 999 q 414 1010 372 1006 q 350 706 378 842 q 326 589 338 647 q 303 482 314 531 q 285 398 293 433 q 273 340 278 363 q 262 284 268 318 q 256 222 256 250 q 267 185 256 200 q 294 171 278 171 q 333 190 318 171 q 359 235 349 208 q 374 288 369 261 q 383 331 379 315 q 402 420 392 371 q 423 523 413 469 q 444 632 433 576 q 464 740 454 688 q 510 993 488 863 l 721 1007 q 714 971 721 1007 q 696 875 707 935 q 672 739 685 815 q 642 580 658 663 q 609 417 625 497 q 578 271 593 338 m 768 1186 q 592 1119 686 1153 q 415 1054 497 1085 q 414 1082 414 1069 q 414 1107 414 1094 q 415 1152 414 1129 q 415 1200 415 1175 q 593 1371 510 1296 q 749 1525 676 1446 q 756 1351 756 1432 q 768 1186 757 1271 z "},"Û":{"ha":582,"x_min":43,"x_max":767,"o":"m 578 271 q 523 136 558 192 q 440 44 488 81 q 338 -8 392 8 q 229 -25 283 -25 q 164 -15 197 -25 q 104 17 131 -4 q 60 69 78 38 q 43 144 43 101 q 43 156 43 150 q 44 167 43 161 q 63 304 50 224 q 89 472 75 385 q 119 648 103 560 q 149 808 136 736 q 172 928 163 881 q 185 988 182 976 q 254 994 214 990 q 329 1001 294 999 q 414 1010 372 1006 q 350 706 378 842 q 326 589 338 647 q 303 482 314 531 q 285 398 293 433 q 273 340 278 363 q 262 284 268 318 q 256 222 256 250 q 267 185 256 200 q 294 171 278 171 q 333 190 318 171 q 359 235 349 208 q 374 288 369 261 q 383 331 379 315 q 402 420 392 371 q 423 523 413 469 q 444 632 433 576 q 464 740 454 688 q 510 993 488 863 l 721 1007 q 714 971 721 1007 q 696 875 707 935 q 672 739 685 815 q 642 580 658 663 q 609 417 625 497 q 578 271 593 338 m 582 1219 q 546 1183 567 1206 q 504 1138 525 1161 q 463 1092 483 1114 q 428 1054 442 1069 q 396 1083 410 1069 q 374 1107 382 1096 q 353 1131 361 1119 q 433 1242 392 1188 q 509 1338 468 1288 q 586 1424 550 1388 q 662 1417 640 1415 q 686 1415 683 1418 q 710 1329 697 1378 q 736 1238 724 1281 q 767 1135 751 1186 q 733 1107 750 1121 q 701 1081 719 1094 q 667 1056 683 1068 l 582 1219 z "},"Ü":{"ha":582,"x_min":43,"x_max":814,"o":"m 578 271 q 523 136 558 192 q 440 44 488 81 q 338 -8 392 8 q 229 -25 283 -25 q 164 -15 197 -25 q 104 17 131 -4 q 60 69 78 38 q 43 144 43 101 q 43 156 43 150 q 44 167 43 161 q 63 304 50 224 q 89 472 75 385 q 119 648 103 560 q 149 808 136 736 q 172 928 163 881 q 185 988 182 976 q 254 994 214 990 q 329 1001 294 999 q 414 1010 372 1006 q 350 706 378 842 q 326 589 338 647 q 303 482 314 531 q 285 398 293 433 q 273 340 278 363 q 262 284 268 318 q 256 222 256 250 q 267 185 256 200 q 294 171 278 171 q 333 190 318 171 q 359 235 349 208 q 374 288 369 261 q 383 331 379 315 q 402 420 392 371 q 423 523 413 469 q 444 632 433 576 q 464 740 454 688 q 510 993 488 863 l 721 1007 q 714 971 721 1007 q 696 875 707 935 q 672 739 685 815 q 642 580 658 663 q 609 417 625 497 q 578 271 593 338 m 814 1274 q 804 1226 814 1249 q 776 1185 794 1203 q 730 1155 757 1167 q 665 1143 703 1143 q 582 1180 610 1143 q 554 1263 554 1217 q 562 1308 554 1286 q 585 1347 569 1331 q 624 1375 600 1364 q 681 1386 649 1386 q 781 1351 747 1386 q 814 1274 814 1317 m 490 1274 q 481 1226 490 1249 q 453 1185 472 1203 q 406 1155 433 1167 q 343 1143 378 1143 q 260 1180 288 1143 q 232 1263 232 1217 q 240 1308 232 1286 q 263 1347 247 1331 q 301 1375 278 1364 q 357 1386 325 1386 q 458 1351 425 1386 q 490 1274 490 1317 z "},"Ù":{"ha":582,"x_min":43,"x_max":721,"o":"m 578 271 q 523 136 558 192 q 440 44 488 81 q 338 -8 392 8 q 229 -25 283 -25 q 164 -15 197 -25 q 104 17 131 -4 q 60 69 78 38 q 43 144 43 101 q 43 156 43 150 q 44 167 43 161 q 63 304 50 224 q 89 472 75 385 q 119 648 103 560 q 149 808 136 736 q 172 928 163 881 q 185 988 182 976 q 254 994 214 990 q 329 1001 294 999 q 414 1010 372 1006 q 350 706 378 842 q 326 589 338 647 q 303 482 314 531 q 285 398 293 433 q 273 340 278 363 q 262 284 268 318 q 256 222 256 250 q 267 185 256 200 q 294 171 278 171 q 333 190 318 171 q 359 235 349 208 q 374 288 369 261 q 383 331 379 315 q 402 420 392 371 q 423 523 413 469 q 444 632 433 576 q 464 740 454 688 q 510 993 488 863 l 721 1007 q 714 971 721 1007 q 696 875 707 935 q 672 739 685 815 q 642 580 658 663 q 609 417 625 497 q 578 271 593 338 m 578 1057 q 442 1090 507 1074 q 325 1119 385 1103 q 225 1147 265 1135 q 244 1245 233 1188 q 265 1357 256 1303 q 290 1488 278 1421 q 399 1374 344 1429 q 497 1269 444 1325 q 588 1169 549 1214 l 578 1057 z "},"V":{"ha":526,"x_min":82,"x_max":693,"o":"m 82 -12 q 115 369 100 182 q 128 533 122 447 q 140 703 135 619 q 147 866 144 788 q 151 1010 150 944 q 223 1011 185 1010 q 292 1014 261 1013 q 346 1017 324 1015 q 368 1019 368 1019 q 342 755 353 858 q 324 587 331 651 q 313 463 318 522 q 303 351 308 403 q 293 264 297 300 l 318 264 l 474 1003 q 550 1007 511 1004 q 623 1011 585 1010 q 693 1017 661 1013 q 653 882 674 956 q 612 729 633 808 q 570 568 590 650 q 531 410 550 486 q 442 42 486 231 l 82 -12 z "},"W":{"ha":835,"x_min":57,"x_max":1006,"o":"m 57 -6 l 163 981 q 285 994 228 983 q 400 1008 343 1004 q 396 980 400 1007 q 385 909 392 953 q 369 810 378 865 q 345 660 361 756 q 303 394 329 564 l 324 394 q 383 603 360 522 q 422 735 407 685 q 449 833 436 786 q 474 921 463 881 q 493 989 486 961 l 506 989 q 556 992 531 989 q 605 998 582 994 q 653 1007 628 1001 q 647 956 650 994 q 638 862 643 917 q 626 741 632 807 q 615 612 621 675 q 605 492 610 549 q 596 394 600 435 l 621 394 l 753 992 q 846 1004 800 999 q 929 1015 886 1010 q 1006 1028 972 1021 q 964 898 985 969 q 921 747 943 826 q 878 588 899 668 q 839 432 858 507 q 753 67 794 254 l 439 14 l 500 550 l 483 550 l 346 46 l 57 -6 z "},"X":{"ha":571,"x_min":-50,"x_max":724,"o":"m 592 64 q 572 58 589 63 q 531 47 556 54 q 476 32 506 40 q 417 15 446 24 q 364 -1 389 7 q 325 -14 339 -8 q 318 94 321 42 q 312 186 315 140 q 307 263 308 232 q 274 186 294 232 q 235 96 254 140 q 186 -8 211 44 l -50 13 q 89 257 19 136 q 217 510 158 378 q 201 621 208 572 q 183 717 193 669 q 163 812 174 764 q 140 921 151 860 l 363 1013 q 378 868 369 947 q 394 722 388 789 q 458 861 426 792 q 522 999 489 931 l 724 944 q 658 832 688 883 q 603 729 629 781 q 550 624 576 678 q 493 506 524 571 q 513 390 501 444 q 537 283 524 336 q 563 177 550 231 q 592 64 576 124 z "},"Y":{"ha":533,"x_min":107,"x_max":725,"o":"m 107 21 l 171 300 q 169 430 171 360 q 163 571 167 500 q 154 708 158 642 q 147 824 150 774 q 142 906 144 875 q 139 936 139 936 l 365 1022 l 365 853 q 365 782 365 818 q 365 711 365 746 q 364 646 364 676 q 364 594 364 615 q 408 711 382 642 q 456 846 433 781 q 510 1007 482 922 l 725 958 q 608 721 665 839 q 558 615 585 669 q 506 505 532 560 q 454 399 479 450 q 408 303 429 347 q 391 224 401 267 q 371 142 381 181 q 344 50 358 96 l 107 21 z "},"Ý":{"ha":533,"x_min":107,"x_max":731,"o":"m 107 21 l 171 300 q 169 430 171 360 q 163 571 167 500 q 154 708 158 642 q 147 824 150 774 q 142 906 144 875 q 139 936 139 936 l 365 1022 l 365 853 q 365 782 365 818 q 365 711 365 746 q 364 646 364 676 q 364 594 364 615 q 408 711 382 642 q 456 846 433 781 q 510 1007 482 922 l 725 958 q 608 721 665 839 q 558 615 585 669 q 506 505 532 560 q 454 399 479 450 q 408 303 429 347 q 391 224 401 267 q 371 142 381 181 q 344 50 358 96 l 107 21 m 731 1174 q 554 1106 649 1140 q 378 1042 460 1072 q 376 1069 376 1057 q 376 1094 376 1082 q 377 1140 376 1117 q 378 1188 378 1163 q 556 1358 472 1283 q 711 1513 639 1433 q 719 1339 718 1419 q 731 1174 719 1258 z "},"Z":{"ha":599,"x_min":11,"x_max":739,"o":"m 599 56 q 546 54 586 56 q 451 50 506 53 q 332 43 396 47 q 207 34 268 39 q 94 24 146 29 q 11 13 42 18 l 13 215 l 407 753 q 340 748 383 753 q 253 738 297 743 q 178 726 210 732 l 144 724 l 171 942 l 739 982 l 703 790 l 324 251 q 398 254 351 251 q 494 260 444 257 q 603 267 544 263 l 599 56 z "},"a":{"ha":601,"x_min":-29,"x_max":644,"o":"m 511 28 q 435 15 476 22 q 360 3 393 8 q 371 93 365 49 q 378 171 375 132 q 385 238 382 210 l 264 238 l 208 38 q 136 28 178 33 q 58 19 94 24 q -29 8 14 14 q 81 372 26 193 q 127 529 103 447 q 176 692 151 611 q 222 849 200 774 q 261 986 244 924 q 453 1003 356 993 q 644 1029 551 1013 q 635 919 640 985 q 626 775 631 853 q 618 613 622 697 q 610 446 614 528 q 594 39 603 254 q 511 28 553 32 m 297 376 q 317 377 303 376 q 348 378 332 378 q 378 380 364 379 q 397 382 392 381 q 399 410 397 390 q 403 456 401 431 q 408 513 406 482 q 414 572 411 543 q 428 725 419 643 l 436 846 l 415 844 l 383 725 l 297 376 z "},"á":{"ha":601,"x_min":-29,"x_max":644,"o":"m 511 28 q 435 15 476 22 q 360 3 393 8 q 371 93 365 49 q 378 171 375 132 q 385 238 382 210 l 264 238 l 208 38 q 136 28 178 33 q 58 19 94 24 q -29 8 14 14 q 81 372 26 193 q 127 529 103 447 q 176 692 151 611 q 222 849 200 774 q 261 986 244 924 q 453 1003 356 993 q 644 1029 551 1013 q 635 919 640 985 q 626 775 631 853 q 618 613 622 697 q 610 446 614 528 q 594 39 603 254 q 511 28 553 32 m 297 376 q 317 377 303 376 q 348 378 332 378 q 378 380 364 379 q 397 382 392 381 q 399 410 397 390 q 403 456 401 431 q 408 513 406 482 q 414 572 411 543 q 428 725 419 643 l 436 846 l 415 844 l 383 725 l 297 376 m 617 1194 q 440 1127 535 1161 q 264 1063 346 1093 q 263 1090 263 1078 q 263 1115 263 1103 q 263 1160 263 1138 q 264 1208 264 1183 q 442 1379 358 1304 q 597 1533 525 1454 q 605 1360 604 1440 q 617 1194 606 1279 z "},"â":{"ha":601,"x_min":-29,"x_max":647,"o":"m 511 28 q 435 15 476 22 q 360 3 393 8 q 371 93 365 49 q 378 171 375 132 q 385 238 382 210 l 264 238 l 208 38 q 136 28 178 33 q 58 19 94 24 q -29 8 14 14 q 81 372 26 193 q 127 529 103 447 q 176 692 151 611 q 222 849 200 774 q 261 986 244 924 q 453 1003 356 993 q 644 1029 551 1013 q 635 919 640 985 q 626 775 631 853 q 618 613 622 697 q 610 446 614 528 q 594 39 603 254 q 511 28 553 32 m 297 376 q 317 377 303 376 q 348 378 332 378 q 378 380 364 379 q 397 382 392 381 q 399 410 397 390 q 403 456 401 431 q 408 513 406 482 q 414 572 411 543 q 428 725 419 643 l 436 846 l 415 844 l 383 725 l 297 376 m 463 1235 q 426 1199 447 1221 q 385 1153 406 1176 q 343 1107 364 1129 q 308 1069 322 1085 q 276 1098 290 1085 q 254 1122 263 1111 q 233 1146 242 1135 q 314 1257 272 1203 q 390 1353 349 1303 q 467 1439 431 1403 q 542 1432 521 1431 q 567 1431 564 1433 q 591 1344 578 1393 q 617 1253 604 1296 q 647 1150 632 1201 q 614 1122 631 1136 q 582 1097 600 1110 q 547 1071 564 1083 l 463 1235 z "},"ä":{"ha":601,"x_min":-29,"x_max":731,"o":"m 511 28 q 435 15 476 22 q 360 3 393 8 q 371 93 365 49 q 378 171 375 132 q 385 238 382 210 l 264 238 l 208 38 q 136 28 178 33 q 58 19 94 24 q -29 8 14 14 q 81 372 26 193 q 127 529 103 447 q 176 692 151 611 q 222 849 200 774 q 261 986 244 924 q 453 1003 356 993 q 644 1029 551 1013 q 635 919 640 985 q 626 775 631 853 q 618 613 622 697 q 610 446 614 528 q 594 39 603 254 q 511 28 553 32 m 297 376 q 317 377 303 376 q 348 378 332 378 q 378 380 364 379 q 397 382 392 381 q 399 410 397 390 q 403 456 401 431 q 408 513 406 482 q 414 572 411 543 q 428 725 419 643 l 436 846 l 415 844 l 383 725 l 297 376 m 731 1301 q 721 1253 731 1276 q 692 1213 711 1231 q 647 1183 674 1194 q 582 1171 619 1171 q 499 1208 526 1171 q 471 1290 471 1244 q 478 1336 471 1314 q 501 1375 486 1358 q 541 1403 517 1392 q 597 1414 565 1414 q 697 1379 664 1414 q 731 1301 731 1344 m 407 1301 q 398 1253 407 1276 q 369 1213 389 1231 q 322 1183 350 1194 q 260 1171 294 1171 q 176 1208 204 1171 q 149 1290 149 1244 q 156 1336 149 1314 q 179 1375 164 1358 q 218 1403 194 1392 q 274 1414 242 1414 q 374 1379 342 1414 q 407 1301 407 1344 z "},"à":{"ha":601,"x_min":-29,"x_max":644,"o":"m 511 28 q 435 15 476 22 q 360 3 393 8 q 371 93 365 49 q 378 171 375 132 q 385 238 382 210 l 264 238 l 208 38 q 136 28 178 33 q 58 19 94 24 q -29 8 14 14 q 81 372 26 193 q 127 529 103 447 q 176 692 151 611 q 222 849 200 774 q 261 986 244 924 q 453 1003 356 993 q 644 1029 551 1013 q 635 919 640 985 q 626 775 631 853 q 618 613 622 697 q 610 446 614 528 q 594 39 603 254 q 511 28 553 32 m 297 376 q 317 377 303 376 q 348 378 332 378 q 378 380 364 379 q 397 382 392 381 q 399 410 397 390 q 403 456 401 431 q 408 513 406 482 q 414 572 411 543 q 428 725 419 643 l 436 846 l 415 844 l 383 725 l 297 376 m 611 1069 q 475 1103 540 1086 q 358 1131 418 1115 q 258 1160 299 1147 q 278 1258 267 1200 q 299 1369 289 1315 q 324 1500 311 1433 q 432 1386 378 1442 q 530 1282 478 1338 q 621 1182 582 1226 l 611 1069 z "},"å":{"ha":601,"x_min":-29,"x_max":644,"o":"m 511 28 q 435 15 476 22 q 360 3 393 8 q 371 93 365 49 q 378 171 375 132 q 385 238 382 210 l 264 238 l 208 38 q 136 28 178 33 q 58 19 94 24 q -29 8 14 14 q 81 372 26 193 q 127 529 103 447 q 176 692 151 611 q 222 849 200 774 q 261 986 244 924 q 453 1003 356 993 q 644 1029 551 1013 q 635 919 640 985 q 626 775 631 853 q 618 613 622 697 q 610 446 614 528 q 594 39 603 254 q 511 28 553 32 m 297 376 q 317 377 303 376 q 348 378 332 378 q 378 380 364 379 q 397 382 392 381 q 399 410 397 390 q 403 456 401 431 q 408 513 406 482 q 414 572 411 543 q 428 725 419 643 l 436 846 l 415 844 l 383 725 l 297 376 m 599 1261 q 588 1201 599 1231 q 553 1147 576 1171 q 498 1108 531 1124 q 424 1093 465 1093 q 363 1106 389 1093 q 317 1141 336 1119 q 290 1190 299 1163 q 282 1247 282 1218 q 291 1306 282 1276 q 321 1357 300 1335 q 372 1393 342 1379 q 443 1407 403 1407 q 511 1394 482 1407 q 560 1363 540 1382 q 589 1317 579 1343 q 599 1261 599 1290 m 365 1244 q 385 1191 365 1215 q 439 1167 404 1167 q 505 1194 482 1167 q 528 1251 528 1221 q 508 1303 528 1281 q 447 1325 488 1325 q 385 1300 406 1325 q 365 1244 365 1275 z "},"ã":{"ha":601,"x_min":-29,"x_max":813,"o":"m 511 28 q 435 15 476 22 q 360 3 393 8 q 371 93 365 49 q 378 171 375 132 q 385 238 382 210 l 264 238 l 208 38 q 136 28 178 33 q 58 19 94 24 q -29 8 14 14 q 81 372 26 193 q 127 529 103 447 q 176 692 151 611 q 222 849 200 774 q 261 986 244 924 q 453 1003 356 993 q 644 1029 551 1013 q 635 919 640 985 q 626 775 631 853 q 618 613 622 697 q 610 446 614 528 q 594 39 603 254 q 511 28 553 32 m 297 376 q 317 377 303 376 q 348 378 332 378 q 378 380 364 379 q 397 382 392 381 q 399 410 397 390 q 403 456 401 431 q 408 513 406 482 q 414 572 411 543 q 428 725 419 643 l 436 846 l 415 844 l 383 725 l 297 376 m 417 1211 q 376 1199 396 1211 q 340 1171 357 1188 q 306 1136 322 1154 q 275 1106 289 1118 q 244 1129 257 1118 q 219 1149 231 1140 q 200 1167 208 1157 q 208 1185 200 1167 q 232 1230 217 1203 q 269 1289 247 1257 q 317 1348 290 1321 q 374 1394 343 1375 q 440 1413 404 1413 q 499 1393 474 1413 q 544 1351 525 1374 q 576 1311 564 1329 q 594 1293 588 1293 q 635 1308 615 1293 q 672 1343 654 1322 q 707 1385 690 1364 q 738 1418 724 1406 q 768 1394 754 1406 q 793 1375 782 1383 q 813 1357 804 1367 q 746 1236 783 1289 q 711 1192 731 1213 q 669 1154 692 1171 q 623 1127 647 1138 q 571 1117 599 1117 q 520 1131 538 1117 q 489 1164 503 1146 q 460 1197 475 1182 q 417 1211 446 1211 z "},"æ":{"ha":717,"x_min":-40,"x_max":840,"o":"m 342 -1 l 342 3 l 339 3 q 357 90 349 49 q 373 171 365 132 q 385 238 381 210 l 283 238 l 211 38 q 137 28 181 33 q 54 19 93 24 q -40 8 8 14 q 101 372 32 193 q 163 529 132 447 q 225 692 194 611 q 283 849 256 774 q 333 986 311 924 q 422 992 381 990 q 504 994 463 993 q 592 996 546 994 q 696 1003 638 997 l 840 1014 l 786 846 q 764 849 778 847 q 733 851 750 850 q 694 851 717 851 l 660 603 q 696 607 678 606 q 729 608 711 608 q 763 610 747 608 q 752 533 757 571 q 740 457 747 496 q 708 455 725 456 q 675 453 690 454 q 640 450 658 451 l 604 196 l 721 204 l 707 46 l 342 -1 m 328 376 q 345 377 333 376 q 369 378 357 378 q 392 380 381 379 q 410 382 404 381 q 417 425 411 394 q 429 497 422 456 q 445 587 436 539 q 463 683 454 635 q 481 774 472 731 q 494 846 489 817 l 481 844 l 435 725 l 328 376 z "},"b":{"ha":594,"x_min":-1,"x_max":711,"o":"m 628 349 q 604 243 628 292 q 540 155 581 194 q 447 85 500 115 q 334 35 393 56 q 213 5 275 15 q 94 -6 151 -6 q -1 3 43 -6 q 105 492 65 246 q 181 989 144 739 q 331 1016 253 1004 q 492 1028 408 1028 q 565 1019 526 1028 q 636 989 604 1011 q 690 931 668 967 q 711 839 711 894 q 694 740 711 786 q 649 657 676 694 q 588 592 622 619 q 517 551 553 565 q 554 524 535 542 q 590 481 574 506 q 617 424 607 457 q 628 349 628 390 m 310 493 q 299 434 304 460 q 290 385 294 408 q 281 335 286 361 q 271 275 276 310 q 331 285 297 278 q 394 306 364 292 q 446 345 425 321 q 467 404 467 369 q 453 446 467 429 q 420 474 440 463 q 376 490 400 485 q 332 494 353 494 q 320 494 325 494 q 310 493 315 494 m 372 829 q 366 793 369 814 q 358 749 363 772 q 349 704 354 726 q 342 665 344 682 q 403 681 372 671 q 458 702 433 690 q 497 728 482 714 q 511 758 511 742 q 499 792 511 779 q 466 814 486 806 q 424 826 446 822 q 386 829 403 829 l 372 829 z "},"c":{"ha":575,"x_min":54,"x_max":710,"o":"m 593 299 q 519 166 560 222 q 433 72 478 110 q 342 15 388 33 q 253 -3 296 -3 q 174 17 210 -3 q 113 75 139 36 q 70 171 86 114 q 54 304 54 228 q 90 562 54 435 q 192 790 126 689 q 347 953 257 892 q 544 1015 436 1015 q 608 1001 578 1015 q 661 963 639 988 q 697 901 683 938 q 710 821 710 865 q 710 803 710 813 q 708 785 710 794 l 526 736 q 488 771 510 771 q 441 745 465 771 q 393 678 417 719 q 347 587 369 638 q 308 485 325 536 q 281 387 292 433 q 271 311 271 340 q 283 249 271 267 q 314 231 294 231 q 349 242 329 231 q 385 273 368 254 q 415 315 401 292 q 435 363 429 339 l 593 299 z "},"ç":{"ha":575,"x_min":54,"x_max":710,"o":"m 593 299 q 519 166 560 222 q 433 72 478 110 q 342 15 388 33 q 253 -3 296 -3 q 174 17 210 -3 q 113 75 139 36 q 70 171 86 114 q 54 304 54 228 q 90 562 54 435 q 192 790 126 689 q 347 953 257 892 q 544 1015 436 1015 q 608 1001 578 1015 q 661 963 639 988 q 697 901 683 938 q 710 821 710 865 q 710 803 710 813 q 708 785 710 794 l 526 736 q 488 771 510 771 q 441 745 465 771 q 393 678 417 719 q 347 587 369 638 q 308 485 325 536 q 281 387 292 433 q 271 311 271 340 q 283 249 271 267 q 314 231 294 231 q 349 242 329 231 q 385 273 368 254 q 415 315 401 292 q 435 363 429 339 l 593 299 m 440 -94 q 426 -148 440 -124 q 386 -190 411 -172 q 327 -219 361 -208 q 253 -229 293 -229 q 188 -217 219 -229 q 136 -178 157 -204 l 163 -56 q 236 -94 199 -94 q 287 -72 267 -94 q 307 -15 307 -50 q 300 26 307 1 q 341 21 325 24 q 370 16 357 18 q 385 14 383 14 q 440 -94 440 -40 z "},"d":{"ha":613,"x_min":6,"x_max":707,"o":"m 707 710 q 686 556 707 638 q 628 395 665 475 q 535 242 590 315 q 411 115 481 169 q 259 26 342 60 q 83 -7 176 -7 q 44 -5 64 -7 q 6 0 25 -3 q 79 374 43 192 q 108 533 93 450 q 138 696 124 615 q 165 850 151 776 q 186 983 178 924 q 307 1004 246 994 q 432 1014 368 1014 q 559 990 507 1014 q 644 925 611 967 q 692 828 676 883 q 707 710 707 772 m 379 818 q 347 661 364 736 q 314 510 331 586 q 281 350 297 433 q 249 168 264 267 q 313 228 282 190 q 372 317 344 267 q 423 422 400 367 q 463 531 446 478 q 488 629 479 583 q 497 708 497 675 q 469 789 497 760 q 379 818 440 818 z "},"ð":{"ha":618,"x_min":18,"x_max":696,"o":"m 696 682 q 680 529 696 608 q 633 375 664 450 q 558 232 603 300 q 458 113 514 164 q 333 33 401 63 q 189 3 265 3 q 102 16 144 3 q 18 58 60 29 q 42 178 29 113 q 68 305 53 233 q 97 460 83 376 q 78 458 88 458 q 63 458 69 458 l 47 458 l 93 606 q 103 604 97 604 l 125 604 q 161 805 144 707 q 189 983 178 903 q 310 1004 249 994 q 435 1014 371 1014 q 556 988 506 1014 q 638 917 607 963 q 682 812 668 872 q 696 682 696 751 m 296 458 q 269 321 282 392 q 238 168 256 250 q 332 258 288 199 q 411 389 376 317 q 467 538 446 461 q 488 681 488 615 q 481 745 488 715 q 458 797 474 775 q 421 832 443 819 q 369 844 399 844 q 344 724 356 782 q 321 604 332 665 q 350 605 336 604 q 375 606 364 606 q 397 607 386 606 l 364 457 l 343 457 q 322 458 333 457 q 296 458 310 458 z "},"e":{"ha":474,"x_min":11,"x_max":632,"o":"m 11 -1 l 193 986 l 632 1024 q 615 961 622 993 q 602 906 608 935 q 592 856 596 878 q 552 853 578 854 q 497 852 526 853 q 438 851 468 851 q 386 851 408 851 l 338 603 q 418 607 381 606 q 481 608 449 608 q 528 610 513 608 q 517 533 522 571 q 506 457 513 496 q 460 455 492 456 q 397 453 429 454 q 318 450 361 451 l 271 194 l 474 226 l 460 68 l 11 -1 z "},"é":{"ha":474,"x_min":11,"x_max":632,"o":"m 11 -1 l 193 986 l 632 1024 q 615 961 622 993 q 602 906 608 935 q 592 856 596 878 q 552 853 578 854 q 497 852 526 853 q 438 851 468 851 q 386 851 408 851 l 338 603 q 418 607 381 606 q 481 608 449 608 q 528 610 513 608 q 517 533 522 571 q 506 457 513 496 q 460 455 492 456 q 397 453 429 454 q 318 450 361 451 l 271 194 l 474 226 l 460 68 l 11 -1 m 606 1181 q 429 1113 524 1147 q 253 1049 335 1079 q 251 1076 251 1064 q 251 1101 251 1089 q 252 1147 251 1124 q 253 1194 253 1169 q 431 1365 347 1290 q 586 1519 514 1440 q 594 1346 593 1426 q 606 1181 594 1265 z "},"ê":{"ha":474,"x_min":11,"x_max":636,"o":"m 11 -1 l 193 986 l 632 1024 q 615 961 622 993 q 602 906 608 935 q 592 856 596 878 q 552 853 578 854 q 497 852 526 853 q 438 851 468 851 q 386 851 408 851 l 338 603 q 418 607 381 606 q 481 608 449 608 q 528 610 513 608 q 517 533 522 571 q 506 457 513 496 q 460 455 492 456 q 397 453 429 454 q 318 450 361 451 l 271 194 l 474 226 l 460 68 l 11 -1 m 451 1221 q 415 1185 436 1207 q 374 1139 394 1163 q 332 1093 353 1115 q 297 1056 311 1071 q 265 1084 279 1071 q 243 1108 251 1097 q 222 1132 231 1121 q 303 1243 261 1189 q 378 1339 338 1289 q 456 1425 419 1389 q 531 1418 510 1417 q 556 1417 553 1419 q 580 1331 567 1379 q 606 1239 593 1282 q 636 1136 621 1188 q 603 1108 619 1122 q 571 1083 589 1096 q 536 1057 553 1069 l 451 1221 z "},"ë":{"ha":474,"x_min":11,"x_max":719,"o":"m 11 -1 l 193 986 l 632 1024 q 615 961 622 993 q 602 906 608 935 q 592 856 596 878 q 552 853 578 854 q 497 852 526 853 q 438 851 468 851 q 386 851 408 851 l 338 603 q 418 607 381 606 q 481 608 449 608 q 528 610 513 608 q 517 533 522 571 q 506 457 513 496 q 460 455 492 456 q 397 453 429 454 q 318 450 361 451 l 271 194 l 474 226 l 460 68 l 11 -1 m 719 1288 q 710 1240 719 1263 q 681 1199 700 1217 q 635 1169 663 1181 q 571 1157 608 1157 q 488 1194 515 1157 q 460 1276 460 1231 q 467 1322 460 1300 q 490 1361 475 1344 q 530 1389 506 1378 q 586 1400 554 1400 q 686 1365 653 1400 q 719 1288 719 1331 m 396 1288 q 387 1240 396 1263 q 358 1199 378 1217 q 311 1169 339 1181 q 249 1157 283 1157 q 165 1194 193 1157 q 138 1276 138 1231 q 145 1322 138 1300 q 168 1361 153 1344 q 207 1389 183 1378 q 263 1400 231 1400 q 363 1365 331 1400 q 396 1288 396 1331 z "},"è":{"ha":474,"x_min":11,"x_max":632,"o":"m 11 -1 l 193 986 l 632 1024 q 615 961 622 993 q 602 906 608 935 q 592 856 596 878 q 552 853 578 854 q 497 852 526 853 q 438 851 468 851 q 386 851 408 851 l 338 603 q 418 607 381 606 q 481 608 449 608 q 528 610 513 608 q 517 533 522 571 q 506 457 513 496 q 460 455 492 456 q 397 453 429 454 q 318 450 361 451 l 271 194 l 474 226 l 460 68 l 11 -1 m 600 1056 q 464 1089 529 1072 q 347 1117 407 1101 q 247 1146 288 1133 q 267 1244 256 1186 q 288 1356 278 1301 q 313 1486 300 1419 q 421 1372 367 1428 q 519 1268 467 1324 q 610 1168 571 1213 l 600 1056 z "},"f":{"ha":474,"x_min":6,"x_max":653,"o":"m 171 33 q 86 17 132 26 q 6 -1 40 7 q 38 133 22 58 q 70 289 54 207 q 101 455 86 371 q 129 617 115 539 q 188 999 158 801 l 653 1022 l 613 851 l 394 851 l 351 604 q 433 606 394 606 q 499 606 465 606 q 550 607 532 606 q 540 531 546 568 q 528 456 533 493 q 476 456 510 456 q 408 458 443 457 q 328 461 372 460 l 264 51 q 171 33 217 43 z "},"g":{"ha":693,"x_min":58,"x_max":789,"o":"m 756 529 q 700 283 746 388 q 590 107 654 178 q 451 1 525 36 q 310 -33 376 -33 q 212 -11 258 -33 q 131 56 165 11 q 78 169 97 101 q 58 329 58 238 q 110 642 58 508 q 240 864 161 775 q 408 996 318 953 q 575 1039 497 1039 q 672 1019 631 1039 q 739 967 713 1000 q 777 891 765 935 q 789 799 789 847 l 599 763 q 565 842 586 818 q 518 865 544 865 q 442 816 483 865 q 364 689 400 767 q 303 518 328 611 q 275 335 278 425 q 301 212 275 249 q 367 175 326 175 q 424 189 394 175 q 478 228 454 203 q 517 288 501 254 q 535 363 533 322 l 386 340 l 413 478 q 540 494 478 486 q 652 511 593 501 q 756 529 711 521 z "},"h":{"ha":613,"x_min":11,"x_max":758,"o":"m 11 -3 q 86 376 50 192 q 115 541 100 456 q 144 710 131 626 q 169 872 157 793 q 188 1014 181 950 q 247 1010 219 1013 q 300 1007 274 1008 q 353 1005 326 1006 q 413 1004 381 1004 q 366 807 389 906 q 324 608 343 708 l 461 624 q 496 815 481 722 q 536 1006 511 907 q 607 1015 568 1011 q 679 1021 646 1018 q 735 1026 713 1024 q 758 1028 758 1028 q 722 891 739 965 q 688 737 704 817 q 656 575 671 657 q 628 419 640 493 q 571 58 597 243 l 354 33 q 386 196 372 117 q 415 335 400 263 q 438 458 429 407 l 303 446 q 280 324 293 393 q 256 192 267 254 q 225 42 240 117 l 11 -3 z "},"i":{"ha":281,"x_min":7,"x_max":396,"o":"m 236 28 q 187 24 224 28 q 111 16 150 21 q 41 7 72 11 q 7 1 10 3 q 35 134 21 61 q 65 287 50 207 q 94 449 81 367 q 121 607 108 531 q 179 972 150 785 l 396 1007 q 333 642 364 821 q 308 483 321 565 q 281 321 294 401 q 257 165 268 240 q 236 28 246 89 z "},"ı":{"ha":281,"x_min":7,"x_max":396,"o":"m 236 28 q 187 24 224 28 q 111 16 150 21 q 41 7 72 11 q 7 1 10 3 q 35 134 21 61 q 65 287 50 207 q 94 449 81 367 q 121 607 108 531 q 179 972 150 785 l 396 1007 q 333 642 364 821 q 308 483 321 565 q 281 321 294 401 q 257 165 268 240 q 236 28 246 89 z "},"í":{"ha":281,"x_min":7,"x_max":492,"o":"m 236 28 q 187 24 224 28 q 111 16 150 21 q 41 7 72 11 q 7 1 10 3 q 35 134 21 61 q 65 287 50 207 q 94 449 81 367 q 121 607 108 531 q 179 972 150 785 l 396 1007 q 333 642 364 821 q 308 483 321 565 q 281 321 294 401 q 257 165 268 240 q 236 28 246 89 m 492 1154 q 315 1087 410 1121 q 139 1022 221 1053 q 138 1050 138 1038 q 138 1075 138 1063 q 138 1120 138 1097 q 139 1168 139 1143 q 317 1339 233 1264 q 472 1493 400 1414 q 480 1319 479 1400 q 492 1154 481 1239 z "},"î":{"ha":281,"x_min":7,"x_max":522,"o":"m 236 28 q 187 24 224 28 q 111 16 150 21 q 41 7 72 11 q 7 1 10 3 q 35 134 21 61 q 65 287 50 207 q 94 449 81 367 q 121 607 108 531 q 179 972 150 785 l 396 1007 q 333 642 364 821 q 308 483 321 565 q 281 321 294 401 q 257 165 268 240 q 236 28 246 89 m 338 1194 q 301 1158 322 1181 q 260 1113 281 1136 q 218 1067 239 1089 q 183 1029 197 1044 q 151 1058 165 1044 q 129 1082 138 1071 q 108 1106 117 1094 q 189 1217 147 1163 q 265 1313 224 1263 q 342 1399 306 1363 q 417 1392 396 1390 q 442 1390 439 1393 q 466 1304 453 1353 q 492 1213 479 1256 q 522 1110 507 1161 q 489 1082 506 1096 q 457 1056 475 1069 q 422 1031 439 1043 l 338 1194 z "},"ï":{"ha":281,"x_min":7,"x_max":606,"o":"m 236 28 q 187 24 224 28 q 111 16 150 21 q 41 7 72 11 q 7 1 10 3 q 35 134 21 61 q 65 287 50 207 q 94 449 81 367 q 121 607 108 531 q 179 972 150 785 l 396 1007 q 333 642 364 821 q 308 483 321 565 q 281 321 294 401 q 257 165 268 240 q 236 28 246 89 m 606 1261 q 596 1213 606 1236 q 567 1172 586 1190 q 522 1142 549 1154 q 457 1131 494 1131 q 374 1167 401 1131 q 346 1250 346 1204 q 353 1296 346 1274 q 376 1335 361 1318 q 416 1363 392 1351 q 472 1374 440 1374 q 572 1339 539 1374 q 606 1261 606 1304 m 282 1261 q 273 1213 282 1236 q 244 1172 264 1190 q 197 1142 225 1154 q 135 1131 169 1131 q 51 1167 79 1131 q 24 1250 24 1204 q 31 1296 24 1274 q 54 1335 39 1318 q 93 1363 69 1351 q 149 1374 117 1374 q 249 1339 217 1374 q 282 1261 282 1304 z "},"ì":{"ha":281,"x_min":7,"x_max":496,"o":"m 236 28 q 187 24 224 28 q 111 16 150 21 q 41 7 72 11 q 7 1 10 3 q 35 134 21 61 q 65 287 50 207 q 94 449 81 367 q 121 607 108 531 q 179 972 150 785 l 396 1007 q 333 642 364 821 q 308 483 321 565 q 281 321 294 401 q 257 165 268 240 q 236 28 246 89 m 486 1029 q 350 1063 415 1046 q 233 1091 293 1075 q 133 1119 174 1107 q 153 1217 142 1160 q 174 1329 164 1275 q 199 1460 186 1393 q 307 1346 253 1401 q 405 1242 353 1297 q 496 1142 457 1186 l 486 1029 z "},"j":{"ha":388,"x_min":-37,"x_max":556,"o":"m 397 369 q 367 242 385 308 q 319 123 349 176 q 247 34 289 69 q 146 -1 204 -1 q 62 15 107 -1 q -37 72 17 32 l 58 286 q 85 262 65 272 q 129 251 106 251 q 159 279 146 251 q 182 344 172 307 q 197 419 192 381 q 206 482 203 458 q 256 751 232 617 q 311 1018 279 885 q 434 1035 374 1024 q 556 1064 494 1047 q 513 903 535 993 q 469 718 490 813 q 430 533 449 624 q 397 369 411 442 z "},"k":{"ha":642,"x_min":10,"x_max":838,"o":"m 10 -1 q 88 376 51 193 q 117 540 101 456 q 145 708 132 625 q 169 870 158 792 q 185 1013 179 949 q 257 1008 217 1010 q 332 1003 297 1006 q 415 1000 374 1000 q 411 979 414 994 q 404 942 408 964 q 395 894 400 921 q 385 842 390 868 q 360 704 374 781 l 368 706 q 408 767 382 728 q 461 851 433 807 q 515 937 489 896 q 560 1007 542 978 q 699 1019 629 1013 q 838 1038 768 1026 q 711 865 772 950 q 658 790 685 829 q 604 714 631 751 q 555 642 578 676 q 514 578 532 607 q 586 307 544 438 q 671 40 628 176 q 606 42 639 42 q 540 43 572 43 q 463 42 500 43 q 385 40 425 42 q 358 230 372 131 q 331 419 343 329 l 306 390 q 284 288 296 349 q 261 169 272 226 q 235 32 249 103 l 10 -1 z "},"l":{"ha":419,"x_min":17,"x_max":438,"o":"m 383 44 q 292 42 340 44 q 196 33 244 39 q 101 19 147 28 q 17 -3 54 10 q 36 136 25 60 q 62 294 47 213 q 91 460 76 376 q 121 619 106 543 q 194 990 156 801 l 438 1022 q 365 708 400 861 q 335 573 350 643 q 306 436 319 503 q 281 307 292 369 q 263 196 269 244 q 337 199 297 199 q 407 200 376 200 q 411 148 408 174 q 417 101 414 122 q 423 65 421 81 q 426 43 425 49 q 405 44 415 43 q 383 44 394 44 z "},"m":{"ha":860,"x_min":-42,"x_max":956,"o":"m -42 8 q 75 371 19 193 q 124 528 99 446 q 174 690 149 610 q 220 846 199 771 q 258 985 242 921 q 403 993 335 985 q 550 1008 471 1001 q 541 940 546 978 q 530 860 536 901 q 517 774 524 818 q 500 660 510 729 q 474 486 490 590 l 492 486 q 558 662 532 592 q 601 776 585 732 q 635 863 618 821 q 669 944 653 906 q 699 1011 685 982 q 764 1018 733 1014 q 825 1027 794 1022 q 887 1037 856 1032 q 956 1049 918 1042 q 929 883 942 968 q 907 715 917 799 q 888 549 897 631 q 872 393 879 467 q 843 57 856 221 l 601 14 q 603 51 601 21 q 609 126 606 82 q 619 225 613 171 q 631 333 625 279 q 644 438 638 388 q 658 525 651 489 l 646 525 q 603 402 626 467 q 555 271 579 338 q 507 140 531 204 q 465 18 483 76 q 382 15 417 17 q 301 10 347 13 l 346 525 l 325 525 q 311 465 322 507 q 285 367 300 422 q 254 253 271 313 q 223 144 238 194 q 199 60 208 93 q 188 24 189 28 l -42 8 z "},"n":{"ha":628,"x_min":7,"x_max":774,"o":"m 7 -7 q 86 381 49 193 q 116 547 100 461 q 146 717 132 633 q 171 878 160 801 q 188 1018 182 956 q 218 1017 206 1017 q 247 1017 231 1017 q 294 1017 267 1017 q 350 1019 322 1018 q 410 1022 378 1021 q 444 835 429 925 q 476 672 460 756 q 504 531 492 589 q 517 595 510 558 q 532 672 524 632 q 548 753 540 713 q 564 835 556 794 q 604 1021 583 925 l 774 1042 q 690 639 726 829 q 658 473 674 557 q 628 312 642 389 q 604 169 614 235 q 589 58 594 103 q 556 52 585 58 q 491 38 528 46 q 417 21 454 29 q 363 6 381 13 q 344 217 354 117 q 335 305 340 260 q 325 392 331 350 q 314 469 319 433 q 303 532 308 506 q 292 471 299 506 q 278 397 285 436 q 264 316 271 358 q 249 235 257 274 q 210 40 231 142 l 7 -7 z "},"ñ":{"ha":628,"x_min":7,"x_max":886,"o":"m 7 -7 q 86 381 49 193 q 116 547 100 461 q 146 717 132 633 q 171 878 160 801 q 188 1018 182 956 q 218 1017 206 1017 q 247 1017 231 1017 q 294 1017 267 1017 q 350 1019 322 1018 q 410 1022 378 1021 q 444 835 429 925 q 476 672 460 756 q 504 531 492 589 q 517 595 510 558 q 532 672 524 632 q 548 753 540 713 q 564 835 556 794 q 604 1021 583 925 l 774 1042 q 690 639 726 829 q 658 473 674 557 q 628 312 642 389 q 604 169 614 235 q 589 58 594 103 q 556 52 585 58 q 491 38 528 46 q 417 21 454 29 q 363 6 381 13 q 344 217 354 117 q 335 305 340 260 q 325 392 331 350 q 314 469 319 433 q 303 532 308 506 q 292 471 299 506 q 278 397 285 436 q 264 316 271 358 q 249 235 257 274 q 210 40 231 142 l 7 -7 m 490 1171 q 450 1159 469 1171 q 413 1131 431 1147 q 379 1096 396 1114 q 349 1065 363 1078 q 317 1089 331 1078 q 293 1108 304 1100 q 274 1126 282 1117 q 282 1144 274 1126 q 306 1190 290 1163 q 342 1249 321 1217 q 390 1308 364 1281 q 447 1353 417 1335 q 514 1372 478 1372 q 573 1353 547 1372 q 618 1311 599 1333 q 649 1271 638 1289 q 668 1253 661 1253 q 708 1267 689 1253 q 746 1303 728 1282 q 781 1344 764 1324 q 811 1378 797 1365 q 842 1354 828 1365 q 867 1335 856 1343 q 886 1317 878 1326 q 819 1196 857 1249 q 785 1151 804 1172 q 743 1114 765 1131 q 697 1087 721 1097 q 644 1076 672 1076 q 594 1091 611 1076 q 563 1124 576 1106 q 534 1156 549 1142 q 490 1171 519 1171 z "},"o":{"ha":685,"x_min":43,"x_max":778,"o":"m 778 751 q 753 537 778 638 q 689 352 729 436 q 595 202 649 268 q 483 90 542 136 q 365 19 425 43 q 251 -6 306 -6 q 168 12 206 -6 q 103 63 131 29 q 59 151 75 97 q 43 279 43 204 q 63 443 43 357 q 115 614 82 529 q 197 775 149 699 q 304 910 246 851 q 429 1004 363 969 q 568 1039 496 1039 q 672 1013 631 1039 q 735 947 713 988 q 768 854 758 906 q 778 751 778 803 m 250 315 q 256 283 250 300 q 271 254 261 267 q 295 233 281 242 q 326 224 310 224 q 438 267 389 224 q 518 372 486 310 q 567 506 550 435 q 585 635 585 576 q 583 671 585 651 q 574 707 581 690 q 555 735 568 724 q 519 747 542 747 q 438 725 475 747 q 370 666 400 703 q 318 583 340 629 q 280 488 296 536 q 257 394 264 440 q 250 315 250 349 z "},"ó":{"ha":685,"x_min":43,"x_max":778,"o":"m 778 751 q 753 537 778 638 q 689 352 729 436 q 595 202 649 268 q 483 90 542 136 q 365 19 425 43 q 251 -6 306 -6 q 168 12 206 -6 q 103 63 131 29 q 59 151 75 97 q 43 279 43 204 q 63 443 43 357 q 115 614 82 529 q 197 775 149 699 q 304 910 246 851 q 429 1004 363 969 q 568 1039 496 1039 q 672 1013 631 1039 q 735 947 713 988 q 768 854 758 906 q 778 751 778 803 m 250 315 q 256 283 250 300 q 271 254 261 267 q 295 233 281 242 q 326 224 310 224 q 438 267 389 224 q 518 372 486 310 q 567 506 550 435 q 585 635 585 576 q 583 671 585 651 q 574 707 581 690 q 555 735 568 724 q 519 747 542 747 q 438 725 475 747 q 370 666 400 703 q 318 583 340 629 q 280 488 296 536 q 257 394 264 440 q 250 315 250 349 m 732 1194 q 556 1127 650 1161 q 379 1063 461 1093 q 378 1090 378 1078 q 378 1115 378 1103 q 378 1160 378 1138 q 379 1208 379 1183 q 557 1379 474 1304 q 713 1533 640 1454 q 720 1360 719 1440 q 732 1194 721 1279 z "},"ô":{"ha":685,"x_min":43,"x_max":778,"o":"m 778 751 q 753 537 778 638 q 689 352 729 436 q 595 202 649 268 q 483 90 542 136 q 365 19 425 43 q 251 -6 306 -6 q 168 12 206 -6 q 103 63 131 29 q 59 151 75 97 q 43 279 43 204 q 63 443 43 357 q 115 614 82 529 q 197 775 149 699 q 304 910 246 851 q 429 1004 363 969 q 568 1039 496 1039 q 672 1013 631 1039 q 735 947 713 988 q 768 854 758 906 q 778 751 778 803 m 250 315 q 256 283 250 300 q 271 254 261 267 q 295 233 281 242 q 326 224 310 224 q 438 267 389 224 q 518 372 486 310 q 567 506 550 435 q 585 635 585 576 q 583 671 585 651 q 574 707 581 690 q 555 735 568 724 q 519 747 542 747 q 438 725 475 747 q 370 666 400 703 q 318 583 340 629 q 280 488 296 536 q 257 394 264 440 q 250 315 250 349 m 578 1235 q 542 1199 563 1221 q 500 1153 521 1176 q 458 1107 479 1129 q 424 1069 438 1085 q 392 1098 406 1085 q 369 1122 378 1111 q 349 1146 357 1135 q 429 1257 388 1203 q 505 1353 464 1303 q 582 1439 546 1403 q 658 1432 636 1431 q 682 1431 679 1433 q 706 1344 693 1393 q 732 1253 719 1296 q 763 1150 747 1201 q 729 1122 746 1136 q 697 1097 715 1110 q 663 1071 679 1083 l 578 1235 z "},"ö":{"ha":685,"x_min":43,"x_max":846,"o":"m 778 751 q 753 537 778 638 q 689 352 729 436 q 595 202 649 268 q 483 90 542 136 q 365 19 425 43 q 251 -6 306 -6 q 168 12 206 -6 q 103 63 131 29 q 59 151 75 97 q 43 279 43 204 q 63 443 43 357 q 115 614 82 529 q 197 775 149 699 q 304 910 246 851 q 429 1004 363 969 q 568 1039 496 1039 q 672 1013 631 1039 q 735 947 713 988 q 768 854 758 906 q 778 751 778 803 m 250 315 q 256 283 250 300 q 271 254 261 267 q 295 233 281 242 q 326 224 310 224 q 438 267 389 224 q 518 372 486 310 q 567 506 550 435 q 585 635 585 576 q 583 671 585 651 q 574 707 581 690 q 555 735 568 724 q 519 747 542 747 q 438 725 475 747 q 370 666 400 703 q 318 583 340 629 q 280 488 296 536 q 257 394 264 440 q 250 315 250 349 m 846 1301 q 836 1253 846 1276 q 808 1213 826 1231 q 762 1183 789 1194 q 697 1171 735 1171 q 614 1208 642 1171 q 586 1290 586 1244 q 594 1336 586 1314 q 617 1375 601 1358 q 656 1403 632 1392 q 713 1414 681 1414 q 813 1379 779 1414 q 846 1301 846 1344 m 522 1301 q 513 1253 522 1276 q 485 1213 504 1231 q 438 1183 465 1194 q 375 1171 410 1171 q 292 1208 319 1171 q 264 1290 264 1244 q 272 1336 264 1314 q 294 1375 279 1358 q 333 1403 310 1392 q 389 1414 357 1414 q 490 1379 457 1414 q 522 1301 522 1344 z "},"ò":{"ha":685,"x_min":43,"x_max":778,"o":"m 778 751 q 753 537 778 638 q 689 352 729 436 q 595 202 649 268 q 483 90 542 136 q 365 19 425 43 q 251 -6 306 -6 q 168 12 206 -6 q 103 63 131 29 q 59 151 75 97 q 43 279 43 204 q 63 443 43 357 q 115 614 82 529 q 197 775 149 699 q 304 910 246 851 q 429 1004 363 969 q 568 1039 496 1039 q 672 1013 631 1039 q 735 947 713 988 q 768 854 758 906 q 778 751 778 803 m 250 315 q 256 283 250 300 q 271 254 261 267 q 295 233 281 242 q 326 224 310 224 q 438 267 389 224 q 518 372 486 310 q 567 506 550 435 q 585 635 585 576 q 583 671 585 651 q 574 707 581 690 q 555 735 568 724 q 519 747 542 747 q 438 725 475 747 q 370 666 400 703 q 318 583 340 629 q 280 488 296 536 q 257 394 264 440 q 250 315 250 349 m 726 1069 q 590 1103 656 1086 q 474 1131 533 1115 q 374 1160 414 1147 q 393 1258 382 1200 q 414 1369 404 1315 q 439 1500 426 1433 q 547 1386 493 1442 q 645 1282 593 1338 q 736 1182 697 1226 l 726 1069 z "},"ø":{"ha":685,"x_min":-1,"x_max":865,"o":"m 68 -11 l -1 56 l 65 133 q 43 279 43 196 q 63 443 43 357 q 115 614 82 529 q 197 775 149 699 q 304 910 246 851 q 429 1004 363 969 q 568 1039 496 1039 q 660 1019 622 1039 q 722 967 697 1000 l 771 1031 l 842 978 l 865 1006 l 764 875 q 774 813 771 844 q 778 751 778 782 q 753 537 778 638 q 689 352 729 436 q 595 202 649 268 q 483 90 542 136 q 365 19 425 43 q 251 -6 306 -6 q 114 49 168 -6 l 68 -11 m 272 251 q 343 233 308 233 q 417 254 382 233 q 483 308 453 275 q 535 385 513 342 q 576 473 558 429 q 601 560 593 517 q 610 635 610 603 q 607 672 610 657 l 272 251 m 240 376 q 241 359 240 368 q 243 342 242 350 l 574 740 q 492 800 539 800 q 403 759 447 800 q 323 655 360 718 q 263 517 286 592 q 240 376 240 442 z "},"õ":{"ha":685,"x_min":43,"x_max":928,"o":"m 778 751 q 753 537 778 638 q 689 352 729 436 q 595 202 649 268 q 483 90 542 136 q 365 19 425 43 q 251 -6 306 -6 q 168 12 206 -6 q 103 63 131 29 q 59 151 75 97 q 43 279 43 204 q 63 443 43 357 q 115 614 82 529 q 197 775 149 699 q 304 910 246 851 q 429 1004 363 969 q 568 1039 496 1039 q 672 1013 631 1039 q 735 947 713 988 q 768 854 758 906 q 778 751 778 803 m 250 315 q 256 283 250 300 q 271 254 261 267 q 295 233 281 242 q 326 224 310 224 q 438 267 389 224 q 518 372 486 310 q 567 506 550 435 q 585 635 585 576 q 583 671 585 651 q 574 707 581 690 q 555 735 568 724 q 519 747 542 747 q 438 725 475 747 q 370 666 400 703 q 318 583 340 629 q 280 488 296 536 q 257 394 264 440 q 250 315 250 349 m 532 1211 q 492 1199 511 1211 q 455 1171 472 1188 q 421 1136 438 1154 q 390 1106 404 1118 q 359 1129 372 1118 q 335 1149 346 1140 q 315 1167 324 1157 q 324 1185 315 1167 q 347 1230 332 1203 q 384 1289 363 1257 q 432 1348 406 1321 q 489 1394 458 1375 q 556 1413 519 1413 q 615 1393 589 1413 q 660 1351 640 1374 q 691 1311 679 1329 q 710 1293 703 1293 q 750 1308 731 1293 q 788 1343 769 1322 q 822 1385 806 1364 q 853 1418 839 1406 q 883 1394 869 1406 q 908 1375 897 1383 q 928 1357 919 1367 q 861 1236 899 1289 q 826 1192 846 1213 q 785 1154 807 1171 q 738 1127 763 1138 q 686 1117 714 1117 q 635 1131 653 1117 q 604 1164 618 1146 q 576 1197 590 1182 q 532 1211 561 1211 z "},"œ":{"ha":779,"x_min":49,"x_max":938,"o":"m 344 14 q 208 38 264 14 q 117 104 153 63 q 65 203 82 146 q 49 325 49 261 q 67 471 49 394 q 116 619 85 547 q 192 758 147 692 q 292 876 238 825 q 410 961 347 928 q 540 1000 472 994 l 938 1026 q 921 964 928 996 q 907 909 914 938 q 897 858 900 881 l 881 858 q 806 862 850 858 q 724 865 763 865 l 675 615 q 724 614 700 614 q 768 613 744 613 q 811 613 792 613 l 833 613 q 823 536 828 574 q 811 460 818 499 q 799 459 806 460 q 786 458 793 458 q 745 459 768 458 q 700 461 722 460 q 657 464 678 463 l 608 207 l 779 229 l 765 71 l 358 14 l 344 14 m 247 375 q 277 277 247 317 q 375 238 307 238 q 386 238 381 238 q 399 239 392 238 l 494 758 q 406 712 450 751 q 326 616 363 672 q 269 495 290 560 q 247 375 247 431 z "},"p":{"ha":526,"x_min":-4,"x_max":650,"o":"m -4 -1 q 75 365 38 186 q 107 524 90 440 q 139 688 124 607 q 168 843 154 768 q 192 981 182 918 q 271 1002 232 993 q 351 1018 310 1011 q 428 1025 392 1025 q 533 1004 490 1025 q 601 948 575 983 q 639 865 628 913 q 650 764 650 818 q 622 614 650 686 q 545 485 593 542 q 435 396 497 429 q 307 363 374 363 l 292 363 q 271 260 281 315 q 254 157 261 204 q 236 46 244 101 l -4 -1 m 383 857 q 353 683 368 765 q 319 508 338 601 q 366 534 342 514 q 411 587 390 554 q 444 663 432 619 q 457 753 457 706 q 434 831 457 804 q 383 857 411 857 z "},"þ":{"ha":536,"x_min":1,"x_max":633,"o":"m 1 -1 q 81 382 43 196 q 113 548 96 463 q 144 716 129 633 q 174 876 160 799 q 197 1014 188 953 q 301 1026 256 1021 q 383 1035 346 1031 q 428 1039 419 1039 l 399 900 q 507 878 463 900 q 580 820 551 857 q 621 735 608 783 q 633 632 633 686 q 604 483 633 554 q 527 358 575 413 q 417 270 479 303 q 290 238 356 238 l 275 238 q 258 155 264 190 q 249 94 253 119 q 242 46 243 67 l 1 -1 m 368 732 q 336 558 351 640 q 304 383 321 476 q 350 410 325 389 q 395 463 375 431 q 428 538 415 494 q 440 628 440 581 q 417 706 440 679 q 368 732 394 732 z "},"q":{"ha":729,"x_min":43,"x_max":790,"o":"m 729 61 q 676 -6 704 29 q 626 -67 647 -42 q 569 13 599 -28 q 511 94 539 53 l 504 106 q 376 23 440 51 q 251 -6 311 -6 q 168 12 206 -6 q 103 63 131 29 q 59 151 75 97 q 43 279 43 204 q 63 443 43 357 q 115 614 82 529 q 197 775 149 699 q 304 910 246 851 q 429 1004 363 969 q 568 1039 496 1039 q 672 1013 631 1039 q 735 947 713 988 q 768 854 758 906 q 778 751 778 803 q 744 501 778 615 q 658 294 711 386 l 790 139 q 729 61 760 99 m 250 315 q 256 283 250 300 q 271 254 261 267 q 295 233 281 242 q 326 224 310 224 q 415 250 375 224 l 360 342 q 449 411 418 386 q 494 447 481 436 q 514 464 511 461 l 544 429 q 574 535 563 481 q 585 635 585 589 q 583 671 585 651 q 574 707 581 690 q 555 735 568 724 q 519 747 542 747 q 438 725 475 747 q 370 666 400 703 q 318 583 340 629 q 280 488 296 536 q 257 394 264 440 q 250 315 250 349 z "},"r":{"ha":617,"x_min":6,"x_max":713,"o":"m 6 -1 q 78 360 43 183 q 106 516 90 435 q 134 677 121 597 q 159 831 147 757 q 178 967 171 906 q 349 1003 257 992 q 531 1015 440 1015 q 620 1003 585 1015 q 676 967 656 990 q 704 914 696 944 q 713 846 713 883 q 693 737 713 790 q 641 635 674 683 q 566 548 608 588 q 475 483 524 508 q 528 362 500 428 q 582 236 557 296 q 639 97 610 167 l 424 22 q 374 189 396 111 q 354 255 364 221 q 336 319 344 289 q 322 374 328 350 q 315 414 317 399 l 297 408 q 277 304 289 364 q 256 189 265 244 q 231 57 243 124 l 6 -1 m 332 601 q 397 624 358 604 q 469 670 435 643 q 529 726 504 697 q 554 778 554 756 q 544 802 554 793 q 517 816 535 811 q 479 822 500 821 q 436 824 458 824 q 405 823 421 824 q 376 822 389 822 l 332 601 z "},"s":{"ha":597,"x_min":19,"x_max":718,"o":"m 615 343 q 585 202 615 265 q 505 93 556 139 q 385 22 454 47 q 238 -3 317 -3 q 126 27 182 -3 q 19 122 71 57 l 122 324 q 151 287 132 306 q 195 254 171 268 q 244 231 219 240 q 288 222 268 222 q 322 228 304 222 q 356 244 340 233 q 380 270 371 256 q 389 304 389 285 q 367 366 389 338 q 314 420 346 394 q 244 472 282 446 q 176 528 207 499 q 122 593 144 557 q 100 674 100 629 q 143 808 100 746 q 251 916 186 871 q 392 988 315 961 q 536 1014 468 1014 q 607 1005 574 1014 q 665 976 640 996 q 703 925 689 956 q 718 849 718 894 q 715 810 718 829 q 708 768 711 790 l 507 710 q 512 732 510 721 q 514 754 514 743 q 499 815 514 796 q 461 833 485 833 q 434 825 450 833 q 402 803 418 817 q 375 772 386 790 q 364 733 364 754 q 383 678 364 700 q 429 636 401 656 q 490 597 457 617 q 550 544 522 576 q 597 465 578 513 q 615 343 615 417 z "},"ß":{"ha":608,"x_min":7,"x_max":722,"o":"m 619 243 q 609 145 619 192 q 573 64 599 99 q 506 8 547 29 q 401 -14 464 -14 q 335 3 367 -14 q 276 56 304 19 l 318 258 q 347 203 328 224 q 383 183 367 183 q 408 197 399 183 q 418 244 418 211 q 406 313 418 286 q 379 369 393 340 q 353 437 365 397 q 342 544 342 476 q 372 647 342 601 q 437 729 401 693 q 502 792 472 765 q 532 835 532 818 q 497 856 532 849 q 372 864 461 864 q 340 678 358 785 q 302 456 321 571 q 266 228 283 340 q 236 28 249 115 q 187 24 224 28 q 111 16 150 21 q 41 7 72 11 q 7 1 10 3 q 37 137 21 61 q 69 297 53 213 q 100 467 85 381 q 140 691 115 554 q 197 1031 164 828 q 454 1017 353 1031 q 615 980 556 1004 q 699 924 675 956 q 722 856 722 893 q 694 740 722 786 q 633 658 667 693 q 570 594 600 622 q 536 535 540 565 l 536 532 q 549 492 536 519 q 578 427 561 465 q 607 342 594 389 q 619 243 619 296 z "},"t":{"ha":503,"x_min":125,"x_max":663,"o":"m 125 -1 q 186 300 157 151 q 211 431 199 363 q 235 565 224 499 q 256 692 247 631 q 272 806 265 754 q 208 808 240 810 q 143 817 175 807 q 144 868 144 839 q 146 926 144 897 q 149 994 147 958 q 221 990 185 992 q 293 989 257 989 q 430 992 364 989 q 552 1001 496 996 q 663 1013 608 1006 l 647 938 q 634 872 640 906 q 622 815 628 839 q 560 803 592 807 q 499 794 529 800 q 478 690 489 747 q 456 570 467 632 q 436 444 446 508 q 417 322 426 381 q 375 38 394 185 l 125 -1 z "},"u":{"ha":582,"x_min":43,"x_max":721,"o":"m 578 271 q 523 136 558 192 q 440 44 488 81 q 338 -8 392 8 q 229 -25 283 -25 q 164 -15 197 -25 q 104 17 131 -4 q 60 69 78 38 q 43 144 43 101 q 43 156 43 150 q 44 167 43 161 q 63 304 50 224 q 89 472 75 385 q 119 648 103 560 q 149 808 136 736 q 172 928 163 881 q 185 988 182 976 q 254 994 214 990 q 329 1001 294 999 q 414 1010 372 1006 q 350 706 378 842 q 326 589 338 647 q 303 482 314 531 q 285 398 293 433 q 273 340 278 363 q 262 284 268 318 q 256 222 256 250 q 267 185 256 200 q 294 171 278 171 q 333 190 318 171 q 359 235 349 208 q 374 288 369 261 q 383 331 379 315 q 402 420 392 371 q 423 523 413 469 q 444 632 433 576 q 464 740 454 688 q 510 993 488 863 l 721 1007 q 714 971 721 1007 q 696 875 707 935 q 672 739 685 815 q 642 580 658 663 q 609 417 625 497 q 578 271 593 338 z "},"ú":{"ha":582,"x_min":43,"x_max":721,"o":"m 578 271 q 523 136 558 192 q 440 44 488 81 q 338 -8 392 8 q 229 -25 283 -25 q 164 -15 197 -25 q 104 17 131 -4 q 60 69 78 38 q 43 144 43 101 q 43 156 43 150 q 44 167 43 161 q 63 304 50 224 q 89 472 75 385 q 119 648 103 560 q 149 808 136 736 q 172 928 163 881 q 185 988 182 976 q 254 994 214 990 q 329 1001 294 999 q 414 1010 372 1006 q 350 706 378 842 q 326 589 338 647 q 303 482 314 531 q 285 398 293 433 q 273 340 278 363 q 262 284 268 318 q 256 222 256 250 q 267 185 256 200 q 294 171 278 171 q 333 190 318 171 q 359 235 349 208 q 374 288 369 261 q 383 331 379 315 q 402 420 392 371 q 423 523 413 469 q 444 632 433 576 q 464 740 454 688 q 510 993 488 863 l 721 1007 q 714 971 721 1007 q 696 875 707 935 q 672 739 685 815 q 642 580 658 663 q 609 417 625 497 q 578 271 593 338 m 704 1154 q 528 1087 622 1121 q 351 1022 433 1053 q 350 1050 350 1038 q 350 1075 350 1063 q 351 1120 350 1097 q 351 1168 351 1143 q 529 1339 446 1264 q 685 1493 613 1414 q 692 1319 692 1400 q 704 1154 693 1239 z "},"û":{"ha":582,"x_min":43,"x_max":735,"o":"m 578 271 q 523 136 558 192 q 440 44 488 81 q 338 -8 392 8 q 229 -25 283 -25 q 164 -15 197 -25 q 104 17 131 -4 q 60 69 78 38 q 43 144 43 101 q 43 156 43 150 q 44 167 43 161 q 63 304 50 224 q 89 472 75 385 q 119 648 103 560 q 149 808 136 736 q 172 928 163 881 q 185 988 182 976 q 254 994 214 990 q 329 1001 294 999 q 414 1010 372 1006 q 350 706 378 842 q 326 589 338 647 q 303 482 314 531 q 285 398 293 433 q 273 340 278 363 q 262 284 268 318 q 256 222 256 250 q 267 185 256 200 q 294 171 278 171 q 333 190 318 171 q 359 235 349 208 q 374 288 369 261 q 383 331 379 315 q 402 420 392 371 q 423 523 413 469 q 444 632 433 576 q 464 740 454 688 q 510 993 488 863 l 721 1007 q 714 971 721 1007 q 696 875 707 935 q 672 739 685 815 q 642 580 658 663 q 609 417 625 497 q 578 271 593 338 m 550 1194 q 514 1158 535 1181 q 472 1113 493 1136 q 431 1067 451 1089 q 396 1029 410 1044 q 364 1058 378 1044 q 342 1082 350 1071 q 321 1106 329 1094 q 401 1217 360 1163 q 477 1313 436 1263 q 554 1399 518 1363 q 630 1392 608 1390 q 654 1390 651 1393 q 678 1304 665 1353 q 704 1213 692 1256 q 735 1110 719 1161 q 701 1082 718 1096 q 669 1056 688 1069 q 635 1031 651 1043 l 550 1194 z "},"ü":{"ha":582,"x_min":43,"x_max":818,"o":"m 578 271 q 523 136 558 192 q 440 44 488 81 q 338 -8 392 8 q 229 -25 283 -25 q 164 -15 197 -25 q 104 17 131 -4 q 60 69 78 38 q 43 144 43 101 q 43 156 43 150 q 44 167 43 161 q 63 304 50 224 q 89 472 75 385 q 119 648 103 560 q 149 808 136 736 q 172 928 163 881 q 185 988 182 976 q 254 994 214 990 q 329 1001 294 999 q 414 1010 372 1006 q 350 706 378 842 q 326 589 338 647 q 303 482 314 531 q 285 398 293 433 q 273 340 278 363 q 262 284 268 318 q 256 222 256 250 q 267 185 256 200 q 294 171 278 171 q 333 190 318 171 q 359 235 349 208 q 374 288 369 261 q 383 331 379 315 q 402 420 392 371 q 423 523 413 469 q 444 632 433 576 q 464 740 454 688 q 510 993 488 863 l 721 1007 q 714 971 721 1007 q 696 875 707 935 q 672 739 685 815 q 642 580 658 663 q 609 417 625 497 q 578 271 593 338 m 818 1261 q 808 1213 818 1236 q 780 1172 799 1190 q 734 1142 761 1154 q 669 1131 707 1131 q 586 1167 614 1131 q 558 1250 558 1204 q 566 1296 558 1274 q 589 1335 574 1318 q 628 1363 604 1351 q 685 1374 653 1374 q 785 1339 751 1374 q 818 1261 818 1304 m 494 1261 q 485 1213 494 1236 q 457 1172 476 1190 q 410 1142 438 1154 q 347 1131 382 1131 q 264 1167 292 1131 q 236 1250 236 1204 q 244 1296 236 1274 q 267 1335 251 1318 q 306 1363 282 1351 q 361 1374 329 1374 q 462 1339 429 1374 q 494 1261 494 1304 z "},"ù":{"ha":582,"x_min":43,"x_max":721,"o":"m 578 271 q 523 136 558 192 q 440 44 488 81 q 338 -8 392 8 q 229 -25 283 -25 q 164 -15 197 -25 q 104 17 131 -4 q 60 69 78 38 q 43 144 43 101 q 43 156 43 150 q 44 167 43 161 q 63 304 50 224 q 89 472 75 385 q 119 648 103 560 q 149 808 136 736 q 172 928 163 881 q 185 988 182 976 q 254 994 214 990 q 329 1001 294 999 q 414 1010 372 1006 q 350 706 378 842 q 326 589 338 647 q 303 482 314 531 q 285 398 293 433 q 273 340 278 363 q 262 284 268 318 q 256 222 256 250 q 267 185 256 200 q 294 171 278 171 q 333 190 318 171 q 359 235 349 208 q 374 288 369 261 q 383 331 379 315 q 402 420 392 371 q 423 523 413 469 q 444 632 433 576 q 464 740 454 688 q 510 993 488 863 l 721 1007 q 714 971 721 1007 q 696 875 707 935 q 672 739 685 815 q 642 580 658 663 q 609 417 625 497 q 578 271 593 338 m 699 1029 q 563 1063 628 1046 q 446 1091 506 1075 q 346 1119 386 1107 q 365 1217 354 1160 q 386 1329 376 1275 q 411 1460 399 1393 q 519 1346 465 1401 q 617 1242 565 1297 q 708 1142 669 1186 l 699 1029 z "},"v":{"ha":526,"x_min":82,"x_max":693,"o":"m 82 -12 q 115 369 100 182 q 128 533 122 447 q 140 703 135 619 q 147 866 144 788 q 151 1010 150 944 q 223 1011 185 1010 q 292 1014 261 1013 q 346 1017 324 1015 q 368 1019 368 1019 q 342 755 353 858 q 324 587 331 651 q 313 463 318 522 q 303 351 308 403 q 293 264 297 300 l 318 264 l 474 1003 q 550 1007 511 1004 q 623 1011 585 1010 q 693 1017 661 1013 q 653 882 674 956 q 612 729 633 808 q 570 568 590 650 q 531 410 550 486 q 442 42 486 231 l 82 -12 z "},"w":{"ha":835,"x_min":57,"x_max":1006,"o":"m 57 -6 l 163 981 q 285 994 228 983 q 400 1008 343 1004 q 396 980 400 1007 q 385 909 392 953 q 369 810 378 865 q 345 660 361 756 q 303 394 329 564 l 324 394 q 383 603 360 522 q 422 735 407 685 q 449 833 436 786 q 474 921 463 881 q 493 989 486 961 l 506 989 q 556 992 531 989 q 605 998 582 994 q 653 1007 628 1001 q 647 956 650 994 q 638 862 643 917 q 626 741 632 807 q 615 612 621 675 q 605 492 610 549 q 596 394 600 435 l 621 394 l 753 992 q 846 1004 800 999 q 929 1015 886 1010 q 1006 1028 972 1021 q 964 898 985 969 q 921 747 943 826 q 878 588 899 668 q 839 432 858 507 q 753 67 794 254 l 439 14 l 500 550 l 483 550 l 346 46 l 57 -6 z "},"x":{"ha":571,"x_min":-50,"x_max":724,"o":"m 592 64 q 572 58 589 63 q 531 47 556 54 q 476 32 506 40 q 417 15 446 24 q 364 -1 389 7 q 325 -14 339 -8 q 318 94 321 42 q 312 186 315 140 q 307 263 308 232 q 274 186 294 232 q 235 96 254 140 q 186 -8 211 44 l -50 13 q 89 257 19 136 q 217 510 158 378 q 201 621 208 572 q 183 717 193 669 q 163 812 174 764 q 140 921 151 860 l 363 1013 q 378 868 369 947 q 394 722 388 789 q 458 861 426 792 q 522 999 489 931 l 724 944 q 658 832 688 883 q 603 729 629 781 q 550 624 576 678 q 493 506 524 571 q 513 390 501 444 q 537 283 524 336 q 563 177 550 231 q 592 64 576 124 z "},"y":{"ha":533,"x_min":107,"x_max":725,"o":"m 107 21 l 171 300 q 169 430 171 360 q 163 571 167 500 q 154 708 158 642 q 147 824 150 774 q 142 906 144 875 q 139 936 139 936 l 365 1022 l 365 853 q 365 782 365 818 q 365 711 365 746 q 364 646 364 676 q 364 594 364 615 q 408 711 382 642 q 456 846 433 781 q 510 1007 482 922 l 725 958 q 608 721 665 839 q 558 615 585 669 q 506 505 532 560 q 454 399 479 450 q 408 303 429 347 q 391 224 401 267 q 371 142 381 181 q 344 50 358 96 l 107 21 z "},"ý":{"ha":533,"x_min":107,"x_max":725,"o":"m 107 21 l 171 300 q 169 430 171 360 q 163 571 167 500 q 154 708 158 642 q 147 824 150 774 q 142 906 144 875 q 139 936 139 936 l 365 1022 l 365 853 q 365 782 365 818 q 365 711 365 746 q 364 646 364 676 q 364 594 364 615 q 408 711 382 642 q 456 846 433 781 q 510 1007 482 922 l 725 958 q 608 721 665 839 q 558 615 585 669 q 506 505 532 560 q 454 399 479 450 q 408 303 429 347 q 391 224 401 267 q 371 142 381 181 q 344 50 358 96 l 107 21 m 621 1181 q 444 1113 539 1147 q 268 1049 350 1079 q 267 1076 267 1064 q 267 1101 267 1089 q 267 1147 267 1124 q 268 1194 268 1169 q 446 1365 363 1290 q 601 1519 529 1440 q 609 1346 608 1426 q 621 1181 610 1265 z "},"ÿ":{"ha":533,"x_min":107,"x_max":735,"o":"m 107 21 l 171 300 q 169 430 171 360 q 163 571 167 500 q 154 708 158 642 q 147 824 150 774 q 142 906 144 875 q 139 936 139 936 l 365 1022 l 365 853 q 365 782 365 818 q 365 711 365 746 q 364 646 364 676 q 364 594 364 615 q 408 711 382 642 q 456 846 433 781 q 510 1007 482 922 l 725 958 q 608 721 665 839 q 558 615 585 669 q 506 505 532 560 q 454 399 479 450 q 408 303 429 347 q 391 224 401 267 q 371 142 381 181 q 344 50 358 96 l 107 21 m 735 1288 q 725 1240 735 1263 q 697 1199 715 1217 q 651 1169 678 1181 q 586 1157 624 1157 q 503 1194 531 1157 q 475 1276 475 1231 q 483 1322 475 1300 q 506 1361 490 1344 q 545 1389 521 1378 q 601 1400 569 1400 q 701 1365 668 1400 q 735 1288 735 1331 m 411 1288 q 402 1240 411 1263 q 374 1199 393 1217 q 326 1169 354 1181 q 264 1157 299 1157 q 181 1194 208 1157 q 153 1276 153 1231 q 160 1322 153 1300 q 183 1361 168 1344 q 222 1389 199 1378 q 278 1400 246 1400 q 378 1365 346 1400 q 411 1288 411 1331 z "},"z":{"ha":599,"x_min":11,"x_max":739,"o":"m 599 56 q 546 54 586 56 q 451 50 506 53 q 332 43 396 47 q 207 34 268 39 q 94 24 146 29 q 11 13 42 18 l 13 215 l 407 753 q 340 748 383 753 q 253 738 297 743 q 178 726 210 732 l 144 724 l 171 942 l 739 982 l 703 790 l 324 251 q 398 254 351 251 q 494 260 444 257 q 603 267 544 263 l 599 56 z "},"ª":{"ha":601,"x_min":-29,"x_max":644,"o":"m 511 28 q 435 15 476 22 q 360 3 393 8 q 371 93 365 49 q 378 171 375 132 q 385 238 382 210 l 264 238 l 208 38 q 136 28 178 33 q 58 19 94 24 q -29 8 14 14 q 81 372 26 193 q 127 529 103 447 q 176 692 151 611 q 222 849 200 774 q 261 986 244 924 q 453 1003 356 993 q 644 1029 551 1013 q 635 919 640 985 q 626 775 631 853 q 618 613 622 697 q 610 446 614 528 q 594 39 603 254 q 511 28 553 32 m 297 376 q 317 377 303 376 q 348 378 332 378 q 378 380 364 379 q 397 382 392 381 q 399 410 397 390 q 403 456 401 431 q 408 513 406 482 q 414 572 411 543 q 428 725 419 643 l 436 846 l 415 844 l 383 725 l 297 376 z "},"º":{"ha":685,"x_min":43,"x_max":778,"o":"m 778 751 q 753 537 778 638 q 689 352 729 436 q 595 202 649 268 q 483 90 542 136 q 365 19 425 43 q 251 -6 306 -6 q 168 12 206 -6 q 103 63 131 29 q 59 151 75 97 q 43 279 43 204 q 63 443 43 357 q 115 614 82 529 q 197 775 149 699 q 304 910 246 851 q 429 1004 363 969 q 568 1039 496 1039 q 672 1013 631 1039 q 735 947 713 988 q 768 854 758 906 q 778 751 778 803 m 250 315 q 256 283 250 300 q 271 254 261 267 q 295 233 281 242 q 326 224 310 224 q 438 267 389 224 q 518 372 486 310 q 567 506 550 435 q 585 635 585 576 q 583 671 585 651 q 574 707 581 690 q 555 735 568 724 q 519 747 542 747 q 438 725 475 747 q 370 666 400 703 q 318 583 340 629 q 280 488 296 536 q 257 394 264 440 q 250 315 250 349 z "},"¹":{"ha":440,"x_min":111,"x_max":540,"o":"m 256 233 q 165 218 210 225 q 203 403 185 308 q 239 578 219 483 q 272 760 258 672 q 210 753 240 757 q 158 746 185 750 q 111 739 131 742 q 119 788 114 754 q 128 857 124 822 q 139 943 133 897 q 224 957 169 950 q 348 975 271 964 q 540 1001 425 986 q 475 653 508 844 q 403 264 442 463 q 333 249 374 257 q 256 233 292 240 z "},"²":{"ha":604,"x_min":58,"x_max":715,"o":"m 261 267 q 58 261 164 264 l 82 397 q 118 464 88 431 q 193 531 149 497 q 288 599 238 565 q 380 662 338 632 q 450 717 422 692 q 478 764 478 743 q 462 813 478 794 q 424 831 446 831 q 383 822 399 831 q 358 801 368 814 q 344 774 349 789 q 340 744 340 758 l 340 732 q 342 728 340 729 q 275 724 311 725 q 209 717 246 721 q 138 711 172 714 q 135 728 136 719 q 135 744 135 736 q 163 858 135 808 q 238 942 192 907 q 341 994 283 976 q 456 1013 399 1013 q 553 999 506 1013 q 636 960 601 986 q 693 893 671 933 q 715 797 715 853 q 684 694 715 744 q 598 597 653 644 q 467 506 543 550 q 306 419 392 461 q 383 421 335 419 q 483 425 432 422 q 593 431 533 428 l 569 275 q 507 273 543 274 q 429 271 471 272 q 344 269 388 269 q 261 267 301 268 z "},"³":{"ha":556,"x_min":67,"x_max":626,"o":"m 610 488 q 581 385 610 436 q 505 292 553 333 q 394 225 457 251 q 261 199 331 199 q 122 233 176 199 q 67 349 67 267 q 78 404 67 376 l 300 415 q 309 384 300 393 q 331 375 318 375 q 358 382 343 375 q 385 401 374 389 q 406 429 397 414 q 414 461 414 444 q 384 510 414 489 q 288 532 354 532 q 190 526 238 532 q 110 518 142 521 l 132 681 q 227 735 178 706 q 318 789 276 764 q 414 847 368 819 l 154 843 l 169 1007 q 367 1014 275 1011 q 444 1017 404 1015 q 519 1019 485 1018 q 581 1022 553 1021 q 626 1022 610 1022 l 597 789 l 385 672 q 489 645 446 664 q 559 602 532 626 q 598 548 586 578 q 610 488 610 518 z "},"⁴":{"ha":613,"x_min":65,"x_max":694,"o":"m 332 292 l 360 460 l 126 444 l 65 540 q 150 736 110 642 q 185 819 168 778 q 221 901 203 861 q 253 976 239 940 q 281 1036 268 1011 q 389 1038 338 1036 q 499 1047 440 1040 q 405 853 447 951 q 321 654 363 756 q 319 642 319 647 q 315 629 318 636 l 413 629 q 418 652 414 636 q 428 691 422 668 q 439 740 433 714 q 451 790 444 765 q 485 925 467 851 q 558 933 522 929 q 627 940 590 936 q 692 946 664 943 q 678 885 689 931 q 655 788 667 839 q 632 691 643 736 q 618 629 621 646 l 694 629 l 639 463 l 569 463 l 557 325 l 332 292 z "},"⁄":{"ha":649,"x_min":-82,"x_max":850,"o":"m 417 329 q 149 -69 286 136 l -82 -15 q -2 94 -51 26 q 108 249 47 163 q 236 434 168 335 q 372 635 304 533 q 505 835 440 736 q 622 1021 569 935 q 663 1006 635 1013 q 726 993 692 999 q 794 983 760 988 q 850 976 828 979 q 756 836 808 914 q 647 674 704 758 q 531 501 590 589 q 417 329 472 413 z "},"½":{"ha":1617,"x_min":111,"x_max":1650,"o":"m 256 233 q 165 218 210 225 q 203 403 185 308 q 239 578 219 483 q 272 760 258 672 q 210 753 240 757 q 158 746 185 750 q 111 739 131 742 q 119 788 114 754 q 128 857 124 822 q 139 943 133 897 q 224 957 169 950 q 348 975 271 964 q 540 1001 425 986 q 475 653 508 844 q 403 264 442 463 q 333 249 374 257 q 256 233 292 240 m 868 358 q 600 -40 738 164 l 369 14 q 449 123 400 54 q 559 278 499 192 q 688 463 619 364 q 824 663 756 561 q 956 864 892 765 q 1074 1050 1021 963 q 1115 1034 1086 1042 q 1177 1021 1143 1026 q 1245 1012 1211 1015 q 1301 1006 1279 1008 q 1208 865 1260 943 q 1099 701 1156 786 q 983 528 1042 617 q 868 358 924 440 m 1196 -4 q 993 -10 1099 -7 l 1017 126 q 1053 193 1022 160 q 1128 260 1083 226 q 1222 328 1172 294 q 1315 391 1272 361 q 1385 447 1357 421 q 1413 493 1413 472 q 1397 542 1413 524 q 1358 560 1381 560 q 1318 551 1333 560 q 1293 531 1303 543 q 1279 503 1283 518 q 1275 474 1275 488 l 1275 461 q 1276 457 1275 458 q 1210 453 1246 454 q 1144 447 1181 450 q 1072 440 1107 443 q 1070 457 1071 449 q 1069 474 1069 465 q 1098 587 1069 538 q 1172 671 1126 636 q 1276 724 1218 706 q 1390 742 1333 742 q 1488 728 1440 742 q 1571 689 1536 715 q 1628 622 1606 663 q 1650 526 1650 582 q 1619 424 1650 474 q 1533 326 1588 374 q 1402 235 1478 279 q 1240 149 1326 190 q 1318 150 1269 149 q 1417 154 1367 151 q 1528 160 1468 157 l 1504 4 q 1442 2 1478 3 q 1364 0 1406 1 q 1279 -2 1322 -1 q 1196 -4 1236 -3 z "},"¼":{"ha":1506,"x_min":142,"x_max":1517,"o":"m 808 358 q 542 -40 678 164 l 311 14 q 390 123 340 54 q 499 278 439 192 q 628 463 560 364 q 765 663 696 561 q 897 864 833 765 q 1014 1050 961 963 q 1055 1034 1026 1042 q 1117 1021 1083 1026 q 1185 1012 1151 1015 q 1243 1006 1219 1008 q 1148 865 1200 943 q 1039 701 1096 786 q 923 528 982 617 q 808 358 864 440 m 285 233 q 196 218 240 225 q 233 403 214 308 q 269 578 250 483 q 303 760 288 672 q 240 753 269 757 q 187 746 214 750 q 142 739 160 742 q 149 788 144 754 q 157 857 153 822 q 168 943 163 897 q 254 957 200 950 q 378 975 301 964 q 569 1001 454 986 q 506 653 539 844 q 433 264 472 463 q 362 249 403 257 q 285 233 321 240 m 1154 -58 l 1182 110 l 949 94 l 888 190 q 972 386 932 292 q 1008 469 990 428 q 1043 551 1025 511 q 1076 626 1061 590 q 1103 686 1090 661 q 1211 688 1160 686 q 1321 697 1263 690 q 1227 503 1269 601 q 1143 304 1185 406 q 1140 292 1142 297 q 1136 279 1139 286 l 1235 279 q 1240 302 1236 286 q 1249 341 1244 318 q 1260 390 1254 364 q 1274 440 1267 415 q 1306 575 1289 501 q 1381 583 1344 579 q 1449 590 1413 586 q 1514 596 1485 593 q 1500 535 1511 581 q 1477 438 1489 490 q 1454 341 1465 386 q 1440 279 1443 296 l 1517 279 l 1461 113 l 1392 113 l 1379 -25 l 1154 -58 z "},"¾":{"ha":1569,"x_min":88,"x_max":1581,"o":"m 896 358 q 628 -40 765 164 l 397 14 q 477 123 428 54 q 587 278 526 192 q 715 463 647 364 q 851 663 782 561 q 984 864 919 765 q 1101 1050 1049 963 q 1142 1034 1114 1042 q 1205 1021 1171 1026 q 1272 1012 1239 1015 q 1329 1006 1306 1008 q 1235 865 1288 943 q 1126 701 1183 786 q 1010 528 1069 617 q 896 358 951 440 m 632 488 q 603 385 632 436 q 527 292 575 333 q 416 225 479 251 q 283 199 353 199 q 143 233 199 199 q 88 349 88 267 q 99 404 88 376 l 321 415 q 330 384 321 393 q 353 375 339 375 q 380 382 365 375 q 407 401 394 389 q 427 429 419 414 q 435 461 435 444 q 406 510 435 489 q 310 532 376 532 q 211 526 260 532 q 132 518 163 521 l 153 681 q 249 735 200 706 q 340 789 299 764 q 435 847 389 819 l 176 843 l 192 1007 q 388 1014 297 1011 q 466 1017 426 1015 q 540 1019 506 1018 q 603 1022 575 1021 q 649 1022 632 1022 l 618 789 l 407 672 q 510 645 468 664 q 581 602 553 626 q 620 548 608 578 q 632 488 632 518 m 1218 -58 l 1244 110 l 1013 94 l 951 190 q 1036 386 996 292 q 1072 469 1054 428 q 1107 551 1089 511 q 1140 626 1125 590 q 1167 686 1154 661 q 1275 688 1224 686 q 1385 697 1326 690 q 1290 503 1333 601 q 1207 304 1247 406 q 1204 292 1206 297 q 1200 279 1203 286 l 1299 279 q 1303 302 1300 286 q 1313 341 1307 318 q 1324 390 1318 364 q 1338 440 1331 415 q 1369 575 1353 501 q 1444 583 1408 579 q 1513 590 1476 586 q 1578 596 1549 593 q 1564 535 1575 581 q 1541 438 1553 490 q 1518 341 1529 386 q 1504 279 1507 296 l 1581 279 l 1525 113 l 1456 113 l 1443 -25 l 1218 -58 z "},"*":{"ha":588,"x_min":106,"x_max":651,"o":"m 401 307 l 360 485 l 261 311 l 106 379 l 238 532 l 106 524 l 125 689 l 274 674 l 183 839 l 332 929 l 406 726 l 518 928 l 647 829 l 513 679 l 651 696 l 640 514 l 475 538 l 576 375 l 401 307 z "},"\\":{"ha":708,"x_min":176,"x_max":674,"o":"m 508 14 q 479 8 494 11 q 449 1 464 4 q 383 245 417 125 q 317 488 350 365 q 248 738 283 610 q 176 1003 213 865 l 178 1003 q 187 1003 181 1003 q 200 1006 193 1004 q 217 1008 207 1007 q 288 1019 254 1014 q 347 1032 317 1025 q 396 1047 376 1039 q 445 872 419 965 q 497 681 471 778 q 548 488 522 583 q 597 309 574 393 q 640 156 619 225 q 674 44 660 88 q 642 37 665 42 q 597 29 619 32 q 539 19 569 24 q 508 14 524 17 z "},"·":{"ha":297,"x_min":68,"x_max":368,"o":"m 368 533 q 356 481 368 507 q 322 434 344 454 q 267 402 300 414 q 190 390 233 390 q 138 401 161 390 q 99 431 114 413 q 76 474 85 450 q 68 521 68 497 q 76 572 68 547 q 102 615 85 596 q 145 646 119 633 q 207 658 171 658 q 328 620 288 658 q 368 533 368 582 z "},"•":{"ha":394,"x_min":58,"x_max":467,"o":"m 467 568 q 451 466 467 519 q 400 367 435 413 q 312 293 365 322 q 185 264 258 264 q 90 305 122 264 q 58 399 58 346 q 74 509 58 449 q 123 621 89 569 q 210 708 157 672 q 340 743 264 743 q 403 726 378 743 q 442 684 428 710 q 461 627 456 658 q 467 568 467 596 z "},":":{"ha":271,"x_min":28,"x_max":354,"o":"m 100 467 q 124 619 111 544 q 147 768 136 693 q 251 776 200 768 q 354 800 303 785 q 321 637 335 719 q 294 472 307 554 q 205 468 250 469 q 117 467 160 467 l 100 467 m 231 89 q 128 81 179 88 q 28 58 78 74 q 56 213 43 136 q 79 367 68 289 q 141 369 110 368 q 203 369 172 369 q 240 369 222 369 q 276 368 258 369 q 253 228 264 299 q 231 89 242 158 z "},",":{"ha":274,"x_min":-47,"x_max":285,"o":"m -47 -154 q -24 -41 -36 -99 q 0 70 -11 17 q 20 169 11 124 q 33 250 29 215 q 69 249 44 250 q 106 249 93 249 q 156 249 125 249 q 219 250 188 249 q 285 253 250 251 q 255 131 274 201 q 215 -8 236 61 q 171 -154 194 -78 l -47 -154 z "},"…":{"ha":1071,"x_min":14,"x_max":1044,"o":"m 676 111 q 665 58 676 85 q 631 12 653 32 q 575 -20 608 -8 q 499 -32 542 -32 q 446 -21 469 -32 q 408 9 422 -10 q 385 51 393 28 q 376 99 376 75 q 385 149 376 125 q 410 192 393 174 q 453 224 428 211 q 515 236 479 236 q 636 198 596 236 q 676 111 676 160 m 1044 111 q 1033 58 1044 85 q 999 12 1021 32 q 943 -20 976 -8 q 867 -32 910 -32 q 814 -21 838 -32 q 776 9 790 -10 q 753 51 761 28 q 744 99 744 75 q 753 149 744 125 q 778 192 761 174 q 822 224 796 211 q 883 236 847 236 q 1004 198 964 236 q 1044 111 1044 160 m 314 111 q 302 58 314 85 q 268 12 290 32 q 213 -20 246 -8 q 136 -32 179 -32 q 83 -21 107 -32 q 45 9 60 -10 q 22 51 31 28 q 14 99 14 75 q 22 149 14 125 q 48 192 31 174 q 91 224 65 211 q 153 236 117 236 q 274 198 233 236 q 314 111 314 160 z "},"!":{"ha":365,"x_min":-6,"x_max":540,"o":"m 281 329 q 200 326 240 329 q 119 321 160 324 q 203 661 163 492 q 289 1001 244 831 q 349 1010 315 1006 q 418 1019 383 1014 q 485 1029 453 1025 q 540 1038 518 1033 q 403 685 465 863 q 281 329 342 508 m 294 111 q 283 58 294 85 q 249 12 271 32 q 193 -20 226 -8 q 117 -32 160 -32 q 64 -21 88 -32 q 26 9 40 -10 q 3 51 11 28 q -6 99 -6 75 q 3 149 -6 125 q 28 192 11 174 q 72 224 46 211 q 133 236 97 236 q 254 198 214 236 q 294 111 294 160 z "},"¡":{"ha":367,"x_min":-100,"x_max":446,"o":"m 160 711 q 240 714 200 711 q 321 719 281 717 q 237 379 278 549 q 151 39 196 210 q 91 31 125 35 q 22 21 57 26 q -45 11 -12 15 q -100 3 -78 7 q 37 355 -25 178 q 160 711 99 532 m 146 929 q 158 982 146 956 q 192 1028 169 1008 q 247 1060 214 1049 q 324 1072 281 1072 q 376 1061 353 1072 q 415 1031 400 1050 q 438 989 429 1013 q 446 942 446 965 q 438 891 446 915 q 412 848 429 867 q 369 817 394 829 q 307 804 343 804 q 186 842 226 804 q 146 929 146 881 z "},"#":{"ha":869,"x_min":61,"x_max":957,"o":"m 308 15 q 195 8 251 13 q 82 -7 139 3 q 113 94 97 43 q 142 194 128 144 q 101 193 126 194 q 61 192 76 192 l 86 421 q 106 422 90 421 q 138 424 121 422 q 171 426 156 425 q 192 426 186 426 q 197 453 194 436 q 203 489 200 471 q 208 525 206 507 q 213 553 211 543 l 118 553 q 123 601 119 568 q 129 665 126 633 q 138 747 133 704 l 247 754 q 264 844 257 800 q 278 922 271 883 q 290 988 285 961 q 333 991 307 989 q 389 996 358 993 q 452 1001 419 999 q 513 1006 485 1004 q 497 941 506 982 q 481 860 489 900 q 460 760 471 813 l 611 768 q 633 864 622 818 q 653 944 643 903 q 669 1008 664 985 q 776 1017 724 1011 q 883 1029 829 1022 q 864 963 875 1006 q 842 882 853 921 q 818 782 831 835 l 957 788 q 940 715 949 751 q 926 645 933 683 q 913 571 918 607 l 768 563 q 762 534 765 550 q 756 501 758 518 q 749 466 753 483 q 743 436 746 449 l 896 446 q 886 385 890 413 q 878 333 882 358 q 869 281 874 308 q 860 219 864 254 q 848 220 856 219 q 831 221 840 221 q 797 220 815 221 q 761 219 779 219 q 728 219 743 219 q 708 218 714 218 q 692 124 699 171 q 675 29 685 76 q 451 32 561 32 q 476 124 464 79 q 499 217 489 169 q 469 215 492 217 q 423 212 447 214 q 377 208 399 210 q 347 207 356 207 q 329 110 339 158 q 308 15 319 63 m 394 426 q 419 428 400 426 q 462 431 439 429 q 506 433 485 432 q 536 435 526 435 q 545 451 540 435 q 554 490 550 468 q 563 532 558 511 q 569 561 567 553 q 542 560 564 561 q 497 557 521 558 q 451 554 472 556 q 424 553 429 553 l 394 426 z "},".":{"ha":290,"x_min":-11,"x_max":289,"o":"m 289 111 q 277 58 289 85 q 243 12 265 32 q 188 -20 221 -8 q 111 -32 154 -32 q 58 -21 82 -32 q 20 9 35 -10 q -3 51 6 28 q -11 99 -11 75 q -3 149 -11 125 q 23 192 6 174 q 66 224 40 211 q 128 236 92 236 q 249 198 208 236 q 289 111 289 160 z "},"?":{"ha":608,"x_min":133,"x_max":711,"o":"m 207 328 q 228 461 207 403 q 282 565 250 519 q 351 645 314 610 q 419 709 388 681 q 472 760 451 738 q 493 806 493 783 q 482 828 493 814 q 447 843 471 843 q 383 822 421 843 q 306 772 344 800 q 225 706 267 743 l 151 876 q 311 977 222 940 q 492 1014 400 1014 q 576 1005 536 1014 q 645 974 615 996 q 693 919 675 953 q 711 836 711 885 q 689 720 711 768 q 634 636 667 672 q 560 569 601 600 q 482 507 519 539 q 414 436 444 475 q 371 344 383 397 l 289 336 l 207 328 m 436 126 q 424 69 436 97 q 386 19 411 42 q 324 -18 361 -4 q 242 -32 288 -32 q 160 2 186 -32 q 133 83 133 36 q 143 137 133 110 q 173 186 153 164 q 222 222 193 208 q 289 236 251 236 q 401 203 365 236 q 436 126 436 169 z "},"¿":{"ha":610,"x_min":38,"x_max":615,"o":"m 542 658 q 520 525 542 583 q 467 422 499 467 q 398 341 435 376 q 329 277 361 306 q 276 226 297 249 q 256 181 256 203 q 267 158 256 172 q 301 143 278 143 q 366 165 328 143 q 443 215 404 186 q 524 281 482 243 l 597 110 q 438 9 526 46 q 257 -28 349 -28 q 173 -19 213 -28 q 103 12 133 -10 q 56 67 74 33 q 38 150 38 101 q 60 266 38 218 q 115 350 82 314 q 188 417 147 386 q 267 479 229 447 q 335 550 304 511 q 378 642 365 589 l 460 650 l 542 658 m 313 860 q 325 917 313 889 q 363 967 338 944 q 424 1004 388 990 q 507 1018 461 1018 q 589 984 563 1018 q 615 903 615 950 q 606 849 615 876 q 576 800 596 822 q 526 764 556 778 q 460 750 497 750 q 348 783 383 750 q 313 860 313 817 z "},"\"":{"ha":585,"x_min":100,"x_max":792,"o":"m 396 625 q 457 786 428 707 q 510 933 483 856 q 556 1072 538 1010 q 620 1076 592 1074 q 675 1081 649 1078 q 729 1087 701 1083 q 792 1094 757 1090 q 735 947 767 1025 q 675 799 704 868 q 608 639 642 719 l 396 625 m 100 611 q 149 790 125 704 q 169 867 158 828 q 191 946 181 907 q 210 1020 201 985 q 225 1083 218 1056 q 249 1082 238 1082 q 271 1082 261 1082 q 368 1085 322 1082 q 468 1088 414 1088 q 413 953 443 1031 q 357 806 382 876 q 296 638 325 724 l 100 611 z "},"'":{"ha":281,"x_min":108,"x_max":472,"o":"m 108 640 q 146 790 128 715 q 181 933 163 856 q 215 1081 200 1011 q 239 1078 224 1079 q 269 1077 254 1078 q 300 1076 285 1076 q 322 1076 315 1076 q 367 1079 342 1076 q 418 1086 393 1082 q 472 1096 443 1090 l 336 664 l 108 640 z "},";":{"ha":364,"x_min":26,"x_max":403,"o":"m 26 -36 q 49 77 36 19 q 74 188 63 135 q 94 288 85 242 q 107 368 103 333 q 142 367 118 368 q 179 367 167 367 q 230 367 199 367 q 292 368 261 367 q 358 371 322 369 q 328 249 347 318 q 288 110 310 179 q 244 -36 267 40 l 26 -36 m 136 467 q 158 619 146 544 q 183 768 171 693 q 232 768 208 768 q 281 769 256 768 q 335 770 306 769 q 403 774 365 771 q 393 690 399 726 q 382 618 388 653 q 369 548 376 583 q 357 472 363 513 q 307 470 333 471 q 253 469 281 469 q 200 467 226 468 q 151 467 174 467 l 136 467 z "},"/":{"ha":765,"x_min":-15,"x_max":917,"o":"m 483 358 q 215 -40 353 164 l -15 14 q 65 123 15 54 q 174 278 114 192 q 303 463 235 364 q 439 663 371 561 q 572 864 507 765 q 689 1050 636 963 q 730 1034 701 1042 q 792 1021 758 1026 q 860 1012 826 1015 q 917 1006 894 1008 q 823 865 875 943 q 714 701 771 786 q 598 528 657 617 q 483 358 539 440 z "},"_":{"ha":557,"x_min":-74,"x_max":542,"o":"m 542 6 q 529 -42 535 -15 q 519 -96 524 -69 q 511 -151 514 -122 q 390 -150 446 -151 q 280 -148 335 -149 q 189 -147 225 -147 q 58 -148 124 -147 q -74 -150 -8 -149 q -61 -109 -67 -135 q -51 -57 -56 -83 q -42 4 -46 -29 q 75 1 22 3 q 178 0 128 0 q 261 0 229 0 q 401 1 332 0 q 542 6 471 3 z "},"{":{"ha":390,"x_min":47,"x_max":499,"o":"m 336 10 q 265 56 299 29 q 208 117 232 83 q 169 192 183 150 q 156 285 156 235 q 153 346 156 315 q 140 401 150 376 q 108 443 131 426 q 47 464 86 460 l 72 624 l 83 624 q 155 644 132 624 q 190 699 178 665 q 211 776 203 733 q 240 863 219 819 q 302 946 261 906 q 419 1015 343 986 l 499 811 q 424 788 450 807 q 383 741 397 768 q 360 682 368 714 q 340 621 351 650 q 307 568 328 592 q 246 533 286 544 q 286 507 271 524 q 310 467 301 490 q 319 419 318 444 q 321 369 321 393 l 321 319 q 329 285 321 303 q 350 253 338 268 q 378 228 363 239 q 410 211 393 217 l 336 10 z "},"}":{"ha":379,"x_min":26,"x_max":479,"o":"m 325 271 q 292 178 318 222 q 230 100 267 135 q 144 42 193 65 q 42 10 96 18 l 26 199 q 71 210 47 203 q 116 232 94 218 q 152 267 138 246 q 171 319 167 288 q 181 376 174 346 q 199 435 188 407 q 231 486 211 464 q 279 519 251 508 q 232 562 246 533 q 215 625 218 590 q 213 697 211 660 q 208 767 214 735 q 181 823 201 800 q 118 851 161 846 l 242 1015 q 317 967 289 994 q 359 910 344 940 q 377 847 374 879 q 381 783 381 815 q 380 747 381 765 q 379 714 379 729 q 382 672 379 690 q 394 640 385 654 q 422 617 404 625 q 468 610 439 610 l 479 610 l 458 450 q 403 431 426 446 q 364 394 379 417 q 340 340 349 371 q 325 271 331 308 z "},"[":{"ha":443,"x_min":29,"x_max":631,"o":"m 411 35 q 233 15 329 25 q 29 -7 136 6 q 107 356 69 171 q 141 522 124 435 q 176 697 158 608 q 209 874 193 785 q 240 1046 225 963 l 249 1046 q 278 1047 261 1046 q 315 1049 296 1047 q 356 1051 333 1050 q 454 1057 406 1053 q 544 1065 496 1060 q 631 1079 592 1071 q 610 997 621 1039 q 592 915 600 956 q 556 914 574 914 q 519 914 539 914 l 443 914 q 415 765 428 831 q 392 644 403 700 q 373 538 382 589 q 354 432 364 488 q 333 310 344 376 q 308 160 321 244 q 349 163 325 160 q 395 169 374 165 q 431 176 417 172 q 446 181 446 179 l 411 35 z "},"]":{"ha":435,"x_min":-28,"x_max":556,"o":"m 142 -19 q -28 -40 64 -29 q -21 21 -25 -10 q -13 74 -18 46 q -4 124 -8 101 q 44 133 14 128 q 101 143 74 139 q 172 153 136 147 l 299 863 l 140 844 l 151 1006 l 556 1057 q 481 700 517 882 q 447 536 464 622 q 413 360 431 450 q 381 181 396 271 q 353 7 365 90 q 320 3 342 6 q 269 -3 299 0 q 207 -11 240 -7 q 142 -19 174 -15 z "},"(":{"ha":464,"x_min":60,"x_max":665,"o":"m 314 -190 q 215 -116 261 -164 q 135 1 169 -68 q 80 157 100 69 q 60 349 60 244 q 87 587 60 468 q 168 817 114 706 q 303 1029 222 928 q 490 1218 383 1131 l 665 1053 q 540 933 607 1003 q 417 777 472 864 q 324 585 361 690 q 288 360 288 481 q 307 234 288 296 q 357 121 326 172 q 424 31 388 69 q 494 -25 461 -7 l 314 -190 z "},")":{"ha":460,"x_min":-79,"x_max":544,"o":"m 544 692 q 497 383 544 528 q 376 122 449 238 q 215 -75 303 6 q 47 -190 128 -156 l -79 3 q 79 115 11 42 q 193 278 147 188 q 263 469 239 368 q 286 667 286 569 q 276 785 286 728 q 248 894 267 843 q 201 985 229 944 q 133 1056 172 1026 l 351 1218 q 497 974 449 1108 q 544 692 544 839 z "},"—":{"ha":722,"x_min":57,"x_max":776,"o":"m 728 331 q 626 332 690 331 q 488 334 561 333 q 339 335 415 335 q 201 337 263 336 q 100 338 140 338 q 57 339 60 339 l 110 572 q 153 575 115 575 q 193 574 171 575 q 238 574 215 574 q 282 573 261 574 q 318 572 303 572 q 360 572 332 572 q 422 573 388 572 q 497 574 457 574 q 576 575 538 575 q 776 579 668 576 l 728 331 z "},"–":{"ha":500,"x_min":57,"x_max":554,"o":"m 507 331 q 415 333 458 332 q 326 335 371 335 q 250 336 281 336 q 192 335 225 336 q 126 333 160 335 q 57 332 93 332 l 124 578 q 195 575 161 576 q 264 573 229 574 q 322 572 299 572 q 392 573 351 572 q 472 575 432 574 q 554 579 511 576 l 507 331 z "},"-":{"ha":500,"x_min":57,"x_max":554,"o":"m 507 331 q 415 333 458 332 q 326 335 371 335 q 250 336 281 336 q 192 335 225 336 q 126 333 160 335 q 57 332 93 332 l 124 578 q 195 575 161 576 q 264 573 229 574 q 322 572 299 572 q 392 573 351 572 q 472 575 432 574 q 554 579 511 576 l 507 331 z "},"­":{"ha":500,"x_min":57,"x_max":554,"o":"m 507 331 q 415 333 458 332 q 326 335 371 335 q 250 336 281 336 q 192 335 225 336 q 126 333 160 335 q 57 332 93 332 l 124 578 q 195 575 161 576 q 264 573 229 574 q 322 572 299 572 q 392 573 351 572 q 472 575 432 574 q 554 579 511 576 l 507 331 z "},"«":{"ha":646,"x_min":60,"x_max":749,"o":"m 656 331 q 624 186 639 258 q 593 40 610 114 q 481 178 536 111 q 372 318 426 244 q 403 506 389 413 q 431 693 417 599 q 528 768 474 731 q 632 838 583 806 q 749 904 689 872 q 725 811 736 858 q 706 723 717 771 q 686 635 694 675 q 579 567 621 592 q 504 515 538 542 q 580 423 544 469 q 656 331 615 376 m 343 331 q 313 186 326 258 q 281 40 299 114 q 169 178 224 111 q 60 318 114 244 q 91 506 78 413 q 118 693 104 599 q 216 768 161 731 q 319 838 271 806 q 436 904 376 872 q 414 811 425 858 q 393 723 404 771 q 375 635 382 675 q 267 567 310 592 q 193 515 225 542 q 268 423 232 469 q 343 331 304 376 z "},"»":{"ha":643,"x_min":19,"x_max":708,"o":"m 447 108 q 331 40 390 74 q 354 135 343 88 q 374 222 364 175 q 393 311 383 268 q 452 358 426 338 q 500 395 478 378 q 540 426 522 413 q 575 457 558 440 q 500 535 536 496 q 425 614 464 575 q 455 760 440 688 q 488 904 469 832 q 599 768 544 835 q 708 626 654 701 q 677 440 690 533 q 650 253 664 347 q 551 176 607 213 q 447 108 496 140 m 136 108 q 19 40 79 74 q 42 135 31 88 q 62 222 51 175 q 82 311 72 268 q 140 358 114 338 q 188 395 165 378 q 228 426 210 413 q 263 457 247 440 q 188 535 224 496 q 113 614 151 575 q 143 760 129 688 q 175 904 157 832 q 287 768 232 835 q 396 626 342 701 q 365 440 378 533 q 338 253 351 347 q 240 176 294 213 q 136 108 185 140 z "},"‹":{"ha":368,"x_min":43,"x_max":503,"o":"m 381 331 q 351 186 365 258 q 318 40 336 114 q 180 178 250 111 q 43 318 110 244 q 74 506 61 413 q 101 693 88 599 q 306 850 204 771 q 503 1022 408 929 q 462 862 481 943 q 426 697 443 781 q 301 605 365 649 q 176 515 238 561 q 278 423 228 469 q 381 331 329 376 z "},"›":{"ha":376,"x_min":6,"x_max":475,"o":"m 410 318 q 204 167 308 242 q 6 1 100 92 q 43 167 28 83 q 72 333 58 250 q 203 425 138 381 q 335 515 269 469 q 240 600 288 557 q 144 685 193 643 q 160 843 151 765 q 178 1001 169 921 q 326 854 251 926 q 475 707 400 782 q 440 513 456 608 q 410 318 425 417 z "},"„":{"ha":640,"x_min":-42,"x_max":650,"o":"m 254 -239 q 315 -78 286 -157 q 369 69 342 -8 q 414 208 396 146 q 478 212 450 210 q 533 217 507 214 q 588 223 560 219 q 650 231 615 226 q 594 83 625 161 q 533 -65 563 4 q 467 -225 500 -144 l 254 -239 m -42 -253 q 7 -74 -17 -160 q 28 3 17 -36 q 49 82 39 43 q 68 156 60 121 q 83 219 76 192 q 108 218 96 218 q 129 218 119 218 q 226 221 181 218 q 326 224 272 224 q 271 90 301 167 q 215 -58 240 13 q 154 -226 183 -140 l -42 -253 z "},"“":{"ha":560,"x_min":101,"x_max":696,"o":"m 101 503 l 147 765 l 194 1049 l 411 1049 l 311 515 l 101 503 m 388 515 q 403 600 394 557 q 417 675 410 635 q 432 746 425 715 q 452 866 443 811 q 468 964 461 921 q 481 1046 475 1007 l 696 1046 l 608 518 l 494 518 l 388 515 z "},"”":{"ha":556,"x_min":111,"x_max":707,"o":"m 390 547 l 439 782 l 497 1075 l 707 1088 l 607 547 l 390 547 m 111 546 l 147 785 l 194 1075 l 418 1075 l 319 567 l 111 546 z "},"‘":{"ha":281,"x_min":108,"x_max":472,"o":"m 108 640 q 146 790 128 715 q 181 933 163 856 q 215 1081 200 1011 q 239 1078 224 1079 q 269 1077 254 1078 q 300 1076 285 1076 q 322 1076 315 1076 q 367 1079 342 1076 q 418 1086 393 1082 q 472 1096 443 1090 l 336 664 l 108 640 z "},"’":{"ha":281,"x_min":101,"x_max":474,"o":"m 332 665 q 317 665 333 665 q 275 663 300 665 q 219 660 250 661 q 163 656 189 658 q 119 653 138 654 q 101 653 101 653 q 116 698 107 669 q 135 760 125 726 q 158 832 146 794 q 181 906 169 869 q 236 1089 206 992 l 349 1086 l 474 1089 q 414 908 440 993 q 389 837 401 874 q 366 767 376 800 q 347 708 356 735 q 332 665 338 682 z "},"‚":{"ha":313,"x_min":-40,"x_max":324,"o":"m -40 -229 q -3 -79 -21 -154 q 33 64 14 -14 q 67 211 51 142 q 90 209 75 210 q 121 208 106 208 q 151 207 136 207 q 174 207 167 207 q 219 210 193 207 q 269 217 244 213 q 324 226 294 221 l 188 -206 l -40 -229 z "}," ":{"ha":271,"x_min":0,"x_max":0,"o":""},"¢":{"ha":619,"x_min":76,"x_max":731,"o":"m 332 -108 q 301 -111 318 -110 q 261 -115 283 -112 q 230 -119 239 -118 q 219 -119 221 -119 q 234 -54 229 -81 q 243 0 239 -28 q 124 90 171 14 q 76 304 76 167 q 105 531 76 418 q 184 740 133 644 q 306 905 235 836 q 465 1001 378 974 q 471 1041 468 1022 q 476 1074 474 1060 q 482 1104 479 1090 l 613 1107 q 607 1082 610 1097 q 600 1053 604 1071 q 592 1013 596 1035 q 692 953 653 1004 q 731 821 731 901 q 731 803 731 813 q 729 785 731 794 l 521 724 l 521 739 q 519 767 521 751 q 515 797 518 782 q 508 821 513 811 q 497 831 504 831 q 450 803 474 831 q 403 731 426 776 q 360 630 379 686 q 326 516 340 574 q 302 404 311 458 q 293 311 293 350 q 299 259 293 278 q 319 240 306 240 q 367 258 346 240 q 404 301 388 275 q 433 358 421 328 q 456 417 446 389 l 614 353 q 508 147 568 226 q 383 29 449 68 q 378 -31 381 3 q 368 -107 375 -64 q 332 -108 350 -107 z "},"¤":{"ha":596,"x_min":78,"x_max":704,"o":"m 540 342 q 532 354 538 343 q 514 381 525 364 q 482 435 503 399 q 410 396 446 410 q 340 382 375 382 q 213 414 261 382 q 180 383 193 394 q 160 364 167 371 l 147 351 l 78 432 q 94 447 85 438 q 117 467 104 456 q 149 496 131 479 q 142 531 144 513 q 139 569 139 550 q 165 704 139 635 q 236 831 190 774 l 169 928 q 215 953 189 939 q 258 983 240 968 q 275 953 268 964 q 287 934 282 943 q 297 916 292 925 q 311 896 303 907 q 388 940 346 924 q 474 957 431 957 q 582 925 539 957 l 633 978 q 669 938 647 958 q 704 903 690 917 l 640 842 q 653 753 653 797 q 629 620 653 686 q 561 497 606 554 q 593 453 581 471 q 613 424 606 435 q 628 404 622 410 l 540 342 m 283 617 q 303 549 283 576 q 365 521 322 521 q 428 542 399 521 q 479 597 457 564 q 515 669 501 631 q 528 742 528 708 q 510 804 528 779 q 457 829 493 829 q 383 808 415 829 q 329 756 351 788 q 295 687 307 724 q 283 617 283 650 z "},"$":{"ha":614,"x_min":29,"x_max":713,"o":"m 197 -100 q 206 -56 201 -79 q 215 -14 210 -36 q 228 28 221 8 q 127 61 178 32 q 29 150 76 90 l 129 353 q 155 313 139 333 q 190 276 171 293 q 229 247 208 258 q 268 236 250 236 q 333 259 304 236 q 363 339 363 282 q 344 389 363 364 q 301 440 326 414 q 244 494 275 465 q 187 553 213 522 q 144 619 161 585 q 126 693 126 654 q 145 774 126 735 q 197 847 164 814 q 272 907 229 881 q 358 953 314 933 q 378 1038 369 1004 q 399 1107 388 1071 l 589 1129 l 533 989 q 603 977 571 988 q 660 947 636 967 q 699 894 685 926 q 713 818 713 863 q 710 781 713 799 q 704 742 707 763 l 504 697 q 508 719 507 714 q 510 728 510 724 q 494 789 510 771 q 456 807 478 807 q 427 801 442 807 q 399 785 413 794 q 378 760 386 775 q 371 728 371 744 q 390 685 371 706 q 436 644 408 665 q 497 599 464 624 q 557 540 529 574 q 603 463 585 507 q 622 358 622 418 q 604 252 622 301 q 553 163 586 203 q 478 93 521 122 q 383 47 435 64 q 374 -31 378 8 q 371 -85 371 -69 l 197 -100 z "},"€":{"ha":658,"x_min":60,"x_max":758,"o":"m 621 183 q 509 51 572 101 q 365 1 446 1 q 256 25 301 1 q 181 90 210 49 q 140 185 153 131 q 126 304 126 240 l 126 326 l 60 326 q 75 377 68 354 q 88 424 82 400 q 96 467 93 447 l 144 467 l 157 521 l 113 521 q 94 522 103 521 q 108 571 101 547 q 121 615 115 592 q 133 660 126 639 l 204 656 q 280 796 238 729 q 373 913 322 863 q 481 992 424 963 q 599 1021 538 1021 q 665 999 636 1021 q 713 940 693 978 q 744 849 732 901 q 758 738 756 797 l 597 674 q 579 731 592 710 q 544 753 567 753 q 475 725 508 753 q 414 654 442 697 l 499 654 q 489 608 493 631 q 480 563 485 586 q 471 522 475 540 q 444 521 456 521 q 421 521 432 521 l 353 521 q 344 493 347 506 q 336 467 340 481 q 397 467 368 467 q 456 465 426 467 q 447 423 451 446 q 440 379 443 400 q 435 331 436 356 l 319 329 q 340 250 322 281 q 397 219 358 219 q 454 240 428 219 q 501 292 481 260 l 621 183 z "},"£":{"ha":557,"x_min":0,"x_max":654,"o":"m 449 44 q 338 42 397 44 q 220 33 279 39 q 104 19 161 28 q 0 -3 47 10 q 8 49 3 18 q 21 107 14 79 q 35 178 28 142 l 69 192 q 112 219 89 197 q 156 273 135 240 q 194 344 176 306 q 224 425 211 383 q 192 424 208 424 q 161 424 176 424 l 129 424 l 171 604 q 194 603 183 603 q 212 601 203 601 q 228 601 221 601 q 201 782 201 707 q 224 892 201 847 q 285 965 247 938 q 372 1005 322 993 q 471 1017 421 1017 q 569 1006 522 1017 q 654 976 617 996 q 636 911 646 946 q 618 847 626 876 q 600 782 608 814 q 547 803 582 792 q 478 814 513 814 q 420 795 444 814 q 396 724 396 776 q 406 666 396 700 q 422 601 417 632 q 474 601 449 601 q 522 603 500 601 q 563 606 543 604 l 540 422 q 503 424 522 422 q 466 425 488 425 q 422 426 444 425 q 417 374 422 404 q 401 313 413 344 q 372 249 390 281 q 328 196 354 218 q 374 198 349 197 q 427 200 400 199 q 480 202 454 201 q 525 203 506 203 q 519 119 522 158 q 517 57 517 79 q 517 49 517 53 q 518 43 518 46 q 483 44 501 43 q 449 44 465 44 z "},"¥":{"ha":619,"x_min":65,"x_max":758,"o":"m 140 21 l 169 150 q 128 149 146 150 q 94 149 110 149 l 65 149 l 97 264 l 196 264 l 203 300 l 203 344 l 103 344 l 125 460 q 147 458 136 458 q 172 458 158 458 q 201 457 186 457 q 194 628 199 543 q 183 782 189 713 q 171 936 178 861 l 397 1022 l 397 853 q 397 782 397 818 q 397 711 397 746 q 396 646 396 676 q 396 594 396 615 q 440 711 415 642 q 489 846 465 781 q 543 1007 514 922 l 758 958 q 678 794 721 879 q 599 634 643 722 q 515 460 556 546 q 551 460 535 460 q 579 463 567 461 q 603 464 592 464 l 557 344 l 460 344 l 440 303 l 433 263 l 543 263 l 515 150 l 482 150 q 447 150 467 150 q 406 151 426 150 q 394 112 399 131 q 385 81 389 93 q 376 50 379 64 l 140 21 z "},"∕":{"ha":649,"x_min":-82,"x_max":850,"o":"m 417 329 q 149 -69 286 136 l -82 -15 q -2 94 -51 26 q 108 249 47 163 q 236 434 168 335 q 372 635 304 533 q 505 835 440 736 q 622 1021 569 935 q 663 1006 635 1013 q 726 993 692 999 q 794 983 760 988 q 850 976 828 979 q 756 836 808 914 q 647 674 704 758 q 531 501 590 589 q 417 329 472 413 z "},"+":{"ha":432,"x_min":69,"x_max":486,"o":"m 144 156 q 157 212 150 182 q 169 269 164 242 q 181 325 175 297 l 69 325 q 76 396 72 363 q 83 465 79 429 q 92 532 88 500 l 107 532 q 142 533 122 532 q 181 535 161 533 q 219 539 200 536 q 229 594 224 567 q 238 644 233 617 q 249 699 243 672 q 333 704 292 701 q 417 714 375 707 q 403 656 410 686 q 389 600 396 625 q 376 540 382 568 q 417 544 396 542 q 453 549 435 547 q 486 551 471 550 q 473 493 479 521 q 461 438 467 465 q 451 383 456 411 q 440 324 446 356 q 408 324 426 324 q 372 325 389 325 q 331 326 351 325 q 325 271 329 299 q 319 219 322 247 q 310 165 315 192 l 144 156 z "},"−":{"ha":389,"x_min":32,"x_max":385,"o":"m 32 171 q 47 247 40 210 q 61 320 54 283 q 75 385 68 357 l 189 385 q 288 385 239 385 q 385 382 336 385 q 379 278 382 331 q 374 174 376 226 q 353 174 364 174 q 332 175 343 175 q 247 174 290 175 q 163 173 203 174 q 91 172 122 172 q 43 171 60 171 l 32 171 z "},"×":{"ha":689,"x_min":19,"x_max":793,"o":"m 661 240 q 642 235 658 239 q 600 224 625 231 q 545 208 575 217 q 487 192 515 200 q 433 176 458 183 q 394 163 408 168 q 381 224 386 194 q 371 275 376 249 q 363 318 365 301 q 334 275 351 300 q 299 226 317 250 q 256 168 278 200 l 19 189 q 99 285 54 229 q 188 390 144 340 q 286 510 236 449 q 260 603 272 556 q 235 687 249 642 q 208 772 221 732 l 432 864 q 453 767 439 819 q 478 667 468 714 q 533 759 504 715 q 592 849 561 803 l 793 808 q 717 717 757 768 q 642 617 676 665 q 563 506 601 563 q 597 408 579 456 q 628 322 611 368 q 661 240 646 275 z "},"÷":{"ha":475,"x_min":57,"x_max":529,"o":"m 493 350 q 397 351 442 350 q 306 353 351 353 q 228 354 261 354 q 174 353 203 354 q 118 353 144 353 q 57 351 88 351 l 97 539 q 172 536 138 538 q 242 535 207 535 q 304 535 278 535 q 372 535 333 535 q 449 536 411 535 q 529 539 488 538 l 493 350 m 131 46 q 145 126 139 88 q 158 207 151 164 q 171 289 164 250 q 232 291 203 290 q 293 292 261 292 q 331 292 313 292 q 369 290 350 292 q 358 227 363 256 q 348 170 353 199 q 338 113 343 142 q 328 49 333 83 q 268 47 301 47 q 203 46 235 46 l 131 46 m 419 596 q 328 592 375 593 q 225 590 282 590 q 235 653 231 628 q 242 701 239 678 q 250 748 246 724 q 261 808 254 772 q 321 809 286 808 q 390 811 356 810 q 463 814 424 813 q 446 746 453 782 q 433 676 439 715 q 419 596 426 636 z "},"=":{"ha":419,"x_min":13,"x_max":461,"o":"m 404 356 q 330 355 367 356 q 256 354 293 354 q 172 355 213 354 q 88 356 131 356 q 99 463 94 411 q 106 569 103 515 q 177 565 142 567 q 249 564 213 564 q 356 567 303 564 q 461 578 408 571 q 429 467 443 522 q 404 356 415 413 m 225 17 q 119 14 172 17 q 13 4 65 11 q 45 113 31 58 q 71 224 60 167 l 185 224 q 283 224 235 224 q 381 221 332 224 q 375 117 378 169 q 369 13 372 65 q 225 17 297 17 z "},">":{"ha":410,"x_min":19,"x_max":489,"o":"m 424 318 q 217 167 321 242 q 19 1 114 92 q 56 167 40 83 q 86 333 72 250 q 217 425 150 381 q 349 515 283 469 q 253 600 301 557 q 158 685 206 643 q 174 843 165 765 q 192 1001 183 921 q 339 854 264 926 q 489 707 414 782 q 453 513 469 608 q 424 318 438 417 z "},"<":{"ha":401,"x_min":65,"x_max":525,"o":"m 403 331 q 372 186 386 258 q 340 40 358 114 q 201 178 271 111 q 65 318 132 244 q 97 506 83 413 q 124 693 110 599 q 328 850 226 771 q 525 1022 431 929 q 483 862 501 943 q 447 697 465 781 q 323 605 386 649 q 199 515 260 561 q 301 423 250 469 q 403 331 351 376 z "},"±":{"ha":510,"x_min":17,"x_max":522,"o":"m 171 256 q 185 301 178 276 q 196 347 192 326 l 204 394 l 89 394 q 95 454 92 425 q 103 514 99 483 q 114 571 107 544 q 123 570 118 571 q 133 569 128 569 q 169 570 149 569 q 208 572 189 571 q 247 576 226 574 l 257 624 q 266 668 261 644 q 275 714 271 692 q 363 717 319 715 q 450 725 407 719 q 436 677 443 703 q 422 628 429 651 q 408 576 415 603 q 450 581 429 578 q 488 585 468 583 q 522 589 507 586 q 497 491 507 535 q 476 393 488 447 q 442 394 461 393 q 404 394 424 394 q 361 396 382 394 q 356 349 360 374 q 349 303 353 328 q 339 258 344 279 l 171 256 m 474 57 q 375 58 422 57 q 289 59 333 58 q 211 60 244 60 q 154 59 188 60 q 89 58 121 58 l 17 58 l 47 192 q 125 190 88 190 q 190 189 156 189 q 251 189 225 189 q 319 189 279 189 q 399 190 360 189 q 485 193 439 192 l 474 57 z "},"~":{"ha":564,"x_min":94,"x_max":711,"o":"m 293 750 q 249 723 269 750 q 210 626 229 696 q 163 650 183 639 q 125 669 142 661 q 94 688 108 678 q 101 707 96 688 q 119 756 107 726 q 149 820 131 786 q 193 884 167 854 q 256 934 219 914 q 338 954 292 954 q 405 935 376 954 q 454 896 433 917 q 492 857 475 875 q 524 839 508 839 q 557 865 540 839 q 596 958 574 890 q 679 917 649 933 q 711 897 697 907 q 667 764 697 822 q 638 714 656 738 q 597 672 619 690 q 547 641 575 653 q 486 629 519 629 q 435 648 460 629 q 385 690 410 667 q 338 731 361 713 q 293 750 315 750 z "},"¬":{"ha":554,"x_min":93,"x_max":625,"o":"m 329 338 q 347 407 338 372 q 365 472 356 436 q 383 542 375 507 l 93 542 l 119 665 q 321 669 225 667 q 406 672 363 671 q 489 674 449 674 q 565 676 529 675 q 625 679 600 678 q 596 568 610 624 q 571 467 582 513 q 547 363 557 413 l 329 338 z "},"µ":{"ha":599,"x_min":-18,"x_max":721,"o":"m 721 1010 l 576 269 q 468 51 549 129 q 268 -26 388 -26 q 193 -12 222 -26 l 168 -121 l -18 -154 l 182 989 l 414 1010 l 258 256 q 254 214 254 235 q 262 174 254 189 q 286 158 269 158 q 343 197 319 158 q 376 297 367 236 l 510 993 l 721 1010 z "},"%":{"ha":1110,"x_min":114,"x_max":1139,"o":"m 479 103 q 382 -40 428 26 l 151 14 q 203 80 167 29 q 288 201 239 131 q 396 358 338 272 q 515 533 454 444 q 633 708 575 622 q 737 864 690 793 q 815 984 783 935 q 856 1050 846 1033 q 947 1031 901 1039 q 1022 1015 983 1022 q 1083 1006 1061 1008 q 947 804 1024 918 q 789 568 871 690 q 881 640 832 613 q 986 668 931 668 q 1054 651 1025 668 q 1103 604 1083 633 q 1131 535 1122 575 q 1139 450 1139 494 q 1118 306 1139 381 q 1057 169 1097 231 q 959 67 1017 107 q 829 28 901 28 q 748 43 782 28 q 692 85 714 58 q 660 147 669 111 q 650 224 650 183 q 663 330 650 275 q 703 438 676 385 q 580 256 638 342 q 479 103 522 169 m 281 657 q 292 610 281 629 q 331 592 304 592 q 388 608 363 592 q 431 648 413 624 q 458 701 449 672 q 468 758 468 731 q 452 815 468 792 q 403 839 436 839 q 356 820 378 839 q 317 774 333 801 q 291 715 301 747 q 281 657 281 683 m 603 844 q 581 701 603 776 q 521 563 560 625 q 424 462 482 501 q 293 422 367 422 q 212 438 246 422 q 156 479 178 453 q 124 542 135 506 q 114 618 114 578 q 140 767 114 689 q 213 912 167 846 q 320 1021 260 978 q 450 1064 381 1064 q 519 1046 490 1064 q 566 999 547 1028 q 594 930 585 969 q 603 844 603 890 m 817 261 q 828 216 817 235 q 867 197 839 197 q 923 213 897 197 q 967 253 949 229 q 994 307 985 278 q 1004 364 1004 336 q 988 420 1004 397 q 939 443 972 443 q 892 425 914 443 q 853 380 869 407 q 827 321 838 353 q 817 261 817 289 z "},"@":{"ha":1371,"x_min":63,"x_max":1421,"o":"m 142 -32 q 81 142 100 57 q 63 310 63 228 q 99 515 63 421 q 197 685 135 608 q 342 821 258 763 q 519 918 425 879 q 715 978 614 957 q 914 999 817 999 q 1137 960 1042 999 q 1295 858 1232 921 q 1390 713 1358 794 q 1421 549 1421 632 q 1389 381 1421 463 q 1293 234 1357 299 q 1133 130 1229 169 q 908 90 1036 90 q 861 94 885 90 q 817 105 838 97 q 786 124 797 113 q 775 151 775 136 q 781 189 775 171 q 678 136 728 156 q 576 117 628 117 q 485 131 524 117 q 422 168 447 144 q 384 224 396 192 q 372 292 372 256 q 405 410 372 350 q 495 522 438 469 q 631 612 553 574 q 761 658 708 650 q 833 667 814 665 q 872 668 851 668 q 976 656 918 668 q 1094 608 1033 643 q 1078 550 1086 581 q 1063 494 1071 525 q 1049 436 1056 464 l 1006 261 q 1167 399 1122 325 q 1211 544 1211 472 q 1183 653 1211 607 q 1108 731 1156 700 q 998 777 1061 763 q 864 792 935 792 q 656 762 760 792 q 469 674 553 732 q 335 530 386 615 q 283 335 283 444 q 318 143 283 239 l 142 -32 m 585 335 q 604 282 585 303 q 681 261 624 261 q 744 270 711 261 q 808 294 778 279 l 885 542 q 864 546 874 544 q 843 547 854 547 q 753 531 799 547 q 669 485 707 514 q 608 418 632 457 q 585 335 585 379 z "},"&":{"ha":743,"x_min":28,"x_max":839,"o":"m 729 467 q 706 274 729 363 q 633 120 683 185 q 501 19 582 56 q 304 -18 421 -18 q 178 2 231 -18 q 92 55 125 22 q 43 132 58 88 q 28 224 28 176 q 45 328 28 275 q 94 428 63 382 q 169 510 125 475 q 269 560 214 544 q 215 597 238 576 q 174 647 192 618 q 157 714 157 676 q 188 842 157 783 q 269 943 218 901 q 388 1008 321 985 q 529 1031 456 1031 q 649 1001 594 1031 q 735 918 704 971 l 621 790 q 599 810 610 800 q 574 828 589 821 q 536 840 558 836 q 481 844 514 844 q 432 835 453 844 q 397 807 411 825 q 377 767 383 789 q 371 724 371 746 q 378 676 371 699 q 399 635 385 654 q 436 606 414 617 q 488 596 458 596 q 501 596 493 596 q 518 599 510 596 q 519 617 518 608 q 522 635 521 625 q 524 653 522 644 q 626 656 579 653 q 726 661 672 658 q 724 640 724 654 l 724 617 l 724 606 q 747 608 731 606 q 782 614 764 610 q 824 624 800 618 l 839 482 q 793 474 814 478 q 753 469 772 471 q 729 467 735 467 m 249 257 q 276 185 249 213 q 350 157 303 157 q 428 190 399 157 q 475 271 458 224 q 499 370 492 318 q 508 461 506 422 q 388 437 438 456 q 308 390 339 418 q 263 327 276 361 q 249 257 249 293 z "},"¶":{"ha":622,"x_min":128,"x_max":713,"o":"m 165 -1 q 206 192 186 96 q 242 359 224 272 q 274 511 261 446 q 163 588 199 535 q 128 706 128 640 q 153 818 128 761 q 225 921 178 875 q 340 996 272 967 q 493 1025 408 1025 q 568 1018 529 1025 q 641 1002 607 1011 q 713 981 675 993 q 681 845 697 918 q 649 694 665 772 q 617 539 632 617 q 588 389 601 461 q 522 46 553 219 l 376 31 l 464 483 l 415 483 l 315 19 l 165 -1 z "},"§":{"ha":610,"x_min":31,"x_max":731,"o":"m 525 214 q 503 114 525 158 q 442 39 481 69 q 354 -8 404 8 q 249 -25 304 -25 q 141 -5 196 -25 q 31 58 86 15 l 93 224 q 167 173 124 193 q 250 153 210 153 q 288 167 271 153 q 306 204 306 182 q 272 268 306 233 q 198 341 239 303 q 124 422 157 379 q 90 506 90 464 q 137 632 90 575 q 281 717 183 689 q 236 842 236 782 q 264 932 236 893 q 335 998 292 971 q 432 1040 378 1025 q 539 1056 486 1056 q 613 1047 578 1056 q 674 1019 647 1038 q 715 971 700 1000 q 731 900 731 942 q 728 874 731 888 q 724 844 725 860 l 550 833 q 534 887 550 872 q 497 901 518 901 q 450 885 472 901 q 428 844 428 868 q 444 815 428 829 q 485 785 460 800 q 539 751 510 769 q 593 708 568 732 q 635 651 618 683 q 651 576 651 619 q 604 451 651 504 q 489 364 557 399 q 516 285 507 322 q 525 214 525 249 m 308 538 q 324 503 308 518 q 367 472 340 489 q 405 500 389 479 q 421 558 421 521 q 410 588 421 574 q 379 618 399 603 q 333 593 357 615 q 308 538 308 571 z "},"©":{"ha":799,"x_min":83,"x_max":875,"o":"m 875 735 q 826 478 875 593 q 701 281 776 363 q 535 156 625 200 q 364 111 444 111 q 251 127 303 111 q 163 176 200 143 q 104 261 125 210 q 83 383 83 313 q 97 531 83 454 q 141 683 111 608 q 216 824 171 757 q 320 940 261 890 q 456 1019 379 990 q 625 1049 533 1049 q 738 1025 692 1049 q 815 959 785 1001 q 860 859 846 917 q 875 735 875 801 m 603 490 q 504 324 561 379 q 392 269 447 269 q 306 319 340 269 q 271 464 271 368 q 294 621 271 543 q 357 760 317 699 q 452 860 397 822 q 572 897 507 897 q 644 866 614 897 q 674 781 674 835 q 674 768 674 774 q 672 756 674 763 l 546 718 l 546 725 q 543 761 546 740 q 532 782 540 782 q 488 747 510 782 q 447 660 465 711 q 417 555 429 610 q 406 464 406 500 q 422 421 406 421 q 449 431 436 421 q 473 458 463 442 q 491 494 483 475 q 504 529 499 513 l 603 490 m 207 404 q 207 377 207 389 q 208 349 207 365 q 222 311 210 333 q 253 271 233 289 q 300 241 274 253 q 360 229 326 229 q 522 277 447 229 q 650 398 596 325 q 734 553 704 471 q 764 706 764 636 q 732 868 764 804 q 632 932 700 932 q 477 907 543 932 q 364 839 411 882 q 287 742 317 796 q 239 628 257 688 q 214 511 221 569 q 207 404 207 453 z "},"®":{"ha":747,"x_min":90,"x_max":829,"o":"m 829 757 q 783 517 829 624 q 667 334 736 410 q 513 217 597 258 q 353 176 429 176 q 248 191 296 176 q 165 236 200 206 q 110 315 131 267 q 90 431 90 364 q 104 567 90 496 q 145 708 118 639 q 214 839 172 778 q 312 947 256 900 q 438 1022 368 994 q 596 1049 508 1049 q 701 1026 657 1049 q 773 965 744 1004 q 815 872 801 925 q 829 757 829 818 m 239 335 q 286 299 258 314 q 349 285 314 285 q 451 304 403 285 q 542 360 499 324 l 465 339 q 443 429 453 386 q 428 499 435 464 q 419 550 421 535 l 396 546 q 382 490 389 522 q 368 429 375 458 q 350 358 360 393 l 239 335 m 207 447 q 207 411 207 428 q 214 376 207 394 q 238 466 224 413 q 265 580 251 519 q 293 702 279 640 q 317 815 307 764 q 263 728 283 775 q 229 632 242 681 q 212 536 217 583 q 207 447 207 489 m 421 649 q 459 658 435 650 q 506 680 483 667 q 543 710 528 693 q 558 746 558 726 q 540 764 558 760 q 499 768 522 768 q 473 767 485 768 q 450 767 461 767 l 421 649 m 542 590 q 572 501 556 550 q 600 418 589 453 q 692 574 660 489 q 725 728 725 658 q 718 813 725 775 q 696 880 711 851 q 658 924 681 908 q 603 940 635 940 q 456 916 518 940 q 351 851 394 892 q 451 866 399 861 q 553 871 504 871 q 626 864 597 871 q 670 847 654 857 q 692 820 686 836 q 699 786 699 804 q 653 672 699 725 q 542 590 608 618 z "},"™":{"ha":1303,"x_min":157,"x_max":1443,"o":"m 492 332 q 594 576 546 457 q 637 681 614 626 q 681 790 660 736 q 719 895 701 844 q 751 988 738 946 q 899 993 831 988 q 1047 1004 968 999 q 1029 917 1040 968 q 1007 815 1018 867 q 982 704 996 764 l 994 704 q 1052 818 1024 767 q 1110 920 1081 869 q 1163 1006 1139 971 q 1302 1024 1232 1015 q 1443 1049 1372 1033 q 1406 953 1422 1006 q 1374 847 1389 901 q 1349 735 1360 792 q 1331 626 1339 679 q 1300 376 1310 503 l 1053 349 q 1061 392 1053 354 q 1081 478 1069 429 q 1106 579 1093 528 q 1126 665 1118 631 l 1114 665 l 975 351 q 885 349 931 350 q 796 346 839 349 l 842 665 l 832 665 q 819 627 829 654 q 797 567 810 600 q 770 497 783 533 q 744 429 757 460 q 724 378 732 399 q 714 356 715 357 l 492 332 m 157 338 q 214 542 188 440 q 238 629 226 583 q 260 721 250 675 q 281 808 271 767 q 297 885 290 849 q 235 887 265 888 q 174 893 204 886 q 176 927 175 907 q 178 965 176 947 q 181 1013 179 988 q 318 1008 247 1008 q 446 1010 383 1008 q 560 1015 508 1013 q 663 1022 611 1018 l 650 974 q 638 931 644 954 q 626 892 632 907 q 569 883 599 885 q 510 876 539 881 q 469 724 490 811 q 432 556 449 638 q 392 364 411 461 l 157 338 z "},"°":{"ha":331,"x_min":136,"x_max":472,"o":"m 472 883 q 460 818 472 850 q 424 761 447 786 q 365 721 400 736 q 286 706 331 706 q 222 719 250 706 q 174 756 193 732 q 145 808 154 779 q 136 868 136 838 q 146 929 136 899 q 177 984 156 960 q 231 1023 199 1008 q 307 1038 263 1038 q 380 1025 349 1038 q 431 991 411 1013 q 462 941 451 969 q 472 883 472 913 m 232 879 q 250 826 232 850 q 304 801 268 801 q 371 828 349 801 q 393 888 393 856 q 373 937 393 915 q 313 958 353 958 q 252 934 272 958 q 232 879 232 910 z "},"|":{"ha":344,"x_min":31,"x_max":444,"o":"m 261 0 q 212 -3 249 0 q 135 -12 175 -7 q 65 -21 96 -17 q 31 -26 33 -25 q 61 111 44 33 q 94 275 78 189 q 128 451 111 361 q 160 625 144 542 q 232 1036 196 824 l 444 1053 q 371 651 406 844 q 340 479 356 568 q 309 305 324 390 q 282 141 294 219 q 261 0 269 63 z "},"¦":{"ha":338,"x_min":28,"x_max":440,"o":"m 257 0 q 208 -3 244 0 q 131 -12 171 -7 q 60 -21 92 -17 q 28 -26 29 -25 q 69 167 46 56 q 115 401 92 279 l 328 435 q 288 200 307 314 q 257 0 268 86 m 150 592 q 181 763 167 682 q 204 904 194 843 q 228 1036 217 976 l 440 1053 q 417 924 431 994 q 391 784 406 863 q 361 615 376 706 l 150 592 z "},"^":{"ha":506,"x_min":82,"x_max":550,"o":"m 501 1136 q 513 985 501 1060 q 550 842 525 911 q 451 851 500 847 q 351 854 401 854 q 350 908 350 882 q 350 958 350 933 l 350 1049 q 321 949 335 999 q 290 850 307 899 q 253 851 271 851 q 218 851 235 851 q 82 847 150 851 q 182 1033 140 935 q 271 1228 224 1132 q 308 1226 290 1226 q 344 1226 325 1226 q 425 1228 385 1226 q 507 1232 465 1229 q 502 1185 503 1208 q 501 1136 501 1161 z "},"´":{"ha":490,"x_min":68,"x_max":422,"o":"m 422 896 q 246 828 340 863 q 69 764 151 794 q 68 792 68 779 q 68 817 68 804 q 69 862 68 839 q 69 910 69 885 q 247 1081 164 1006 q 403 1235 331 1156 q 410 1061 410 1142 q 422 896 411 981 z "},"¸":{"ha":439,"x_min":68,"x_max":372,"o":"m 372 -94 q 358 -148 372 -124 q 318 -190 343 -172 q 259 -219 293 -208 q 185 -229 225 -229 q 120 -217 151 -229 q 68 -178 89 -204 l 94 -56 q 168 -94 131 -94 q 219 -72 199 -94 q 239 -15 239 -50 q 232 26 239 1 q 273 21 257 24 q 302 16 289 18 q 317 14 315 14 q 372 -94 372 -40 z "},"ˆ":{"ha":550,"x_min":68,"x_max":482,"o":"m 297 1022 q 261 986 282 1008 q 219 940 240 964 q 178 894 199 917 q 143 857 157 872 q 111 885 125 872 q 89 910 97 899 q 68 933 76 922 q 149 1044 107 990 q 224 1140 183 1090 q 301 1226 265 1190 q 377 1219 356 1218 q 401 1218 399 1221 q 426 1132 413 1181 q 451 1040 439 1083 q 482 938 467 989 q 449 910 465 924 q 417 884 435 897 q 382 858 399 871 l 297 1022 z "},"¨":{"ha":718,"x_min":68,"x_max":650,"o":"m 650 1114 q 640 1066 650 1089 q 612 1025 631 1043 q 566 995 593 1007 q 501 983 539 983 q 418 1020 446 983 q 390 1103 390 1057 q 398 1149 390 1126 q 421 1188 406 1171 q 460 1215 436 1204 q 517 1226 485 1226 q 617 1192 583 1226 q 650 1114 650 1157 m 326 1114 q 317 1066 326 1089 q 289 1025 308 1043 q 242 995 269 1007 q 179 983 214 983 q 96 1020 124 983 q 68 1103 68 1057 q 76 1149 68 1126 q 99 1188 83 1171 q 138 1215 114 1204 q 193 1226 161 1226 q 294 1192 261 1226 q 326 1114 326 1157 z "},"`":{"ha":497,"x_min":68,"x_max":431,"o":"m 421 804 q 285 838 350 821 q 168 866 228 850 q 68 894 108 882 q 88 992 76 935 q 108 1104 99 1050 q 133 1235 121 1168 q 242 1121 188 1176 q 340 1017 288 1072 q 431 917 392 961 l 421 804 z "},"¯":{"ha":679,"x_min":68,"x_max":611,"o":"m 401 989 q 313 983 358 986 q 225 977 268 981 q 144 970 182 974 q 78 964 106 967 q 69 1026 71 988 q 68 1101 68 1065 l 68 1157 q 69 1182 68 1171 l 589 1226 l 611 1001 q 401 989 501 994 z "},"˚":{"ha":453,"x_min":68,"x_max":385,"o":"m 385 1081 q 374 1020 385 1050 q 340 967 363 990 q 284 928 317 943 q 210 913 251 913 q 149 926 175 913 q 103 960 122 939 q 76 1010 85 982 q 68 1067 68 1038 q 77 1125 68 1096 q 107 1176 86 1154 q 158 1213 128 1199 q 229 1226 189 1226 q 297 1214 268 1226 q 346 1182 326 1201 q 375 1136 365 1163 q 385 1081 385 1110 m 151 1064 q 171 1010 151 1035 q 225 986 190 986 q 291 1013 268 986 q 314 1071 314 1040 q 294 1122 314 1100 q 233 1144 274 1144 q 172 1119 192 1144 q 151 1064 151 1094 z "},"˜":{"ha":749,"x_min":68,"x_max":681,"o":"m 285 1025 q 244 1013 264 1025 q 208 985 225 1001 q 174 950 190 968 q 143 919 157 932 q 112 943 125 932 q 88 963 99 954 q 68 981 76 971 q 76 999 68 981 q 100 1044 85 1017 q 137 1103 115 1071 q 185 1162 158 1135 q 242 1208 211 1189 q 308 1226 272 1226 q 367 1207 342 1226 q 413 1165 393 1188 q 444 1125 432 1143 q 463 1107 456 1107 q 503 1122 483 1107 q 540 1157 522 1136 q 575 1199 558 1178 q 606 1232 592 1219 q 636 1208 622 1219 q 661 1189 650 1197 q 681 1171 672 1181 q 614 1050 651 1103 q 579 1006 599 1026 q 538 968 560 985 q 491 941 515 951 q 439 931 467 931 q 388 945 406 931 q 357 978 371 960 q 328 1010 343 996 q 285 1025 314 1025 z "}}}
